<svg width="188" height="65" viewBox="0 0 188 65" fill="none" xmlns="http://www.w3.org/2000/svg">
<g clip-path="url(#clip0_5506_1331)">
<path d="M21.7284 41.9955C27.1443 41.9955 31.5348 37.6342 31.5348 32.2543C31.5348 26.8744 27.1443 22.5132 21.7284 22.5132C16.3124 22.5132 11.9219 26.8744 11.9219 32.2543C11.9219 37.6342 16.3124 41.9955 21.7284 41.9955Z" fill="white"/>
<path d="M56.9993 19.812C52.7965 19.812 46.3687 17.8474 46.3687 17.8474C46.3687 17.8474 44.9678 21.4492 44.9678 26.3607C44.9678 31.2722 49.0881 44.2058 57.4113 47.4802C57.4113 47.4802 69.278 40.031 69.278 27.0156C69.278 19.239 68.1243 17.8474 68.1243 17.8474C68.1243 17.8474 61.202 19.812 56.9993 19.812Z" fill="white"/>
<path d="M80 14.518H85.7213C88.4499 14.3453 91.1785 15.4676 91.1785 18.4029C91.1785 20.0432 90.0342 21.1655 88.5379 21.6835C90.4743 22.1151 91.8826 23.4101 91.8826 25.5683C91.8826 28.5036 88.0978 29.6259 85.8093 29.4532H80V14.518ZM85.8093 20.4748C87.2176 20.4748 87.9218 19.9568 87.9218 18.7482C87.9218 17.5396 87.1296 17.0216 85.8093 17.0216H83.2567V20.5612H85.8093V20.4748ZM85.8093 26.8633C87.3056 26.8633 88.3619 26.6043 88.3619 24.8777C88.3619 23.1511 87.3056 22.8921 85.8093 22.8921H83.2567V26.8633H85.8093ZM97.0758 14.518V29.3669H93.9071V14.518H97.0758ZM106.67 28.0719C105.966 29.0216 104.998 29.6259 103.413 29.6259C102.357 29.6259 100.333 28.8489 99.9804 27.3813C99.8044 26.777 99.8044 26.0863 99.8044 25.741V19.0072H102.973V25.223C102.973 26.3453 103.325 27.6403 104.822 27.6403C105.79 27.6403 106.67 26.777 106.67 25.223V19.0072H109.839V27.4676C109.839 28.0719 109.927 28.6763 109.927 29.2806H106.758L106.67 28.0719ZM115.384 25.0504C115.384 26.4317 115.56 27.6403 117.232 27.6403C118.289 27.6403 118.905 27.2086 119.169 26.259H121.985C121.721 28.8489 119.697 29.6259 117.232 29.6259C113.623 29.6259 112.127 27.6403 112.127 24.187C112.127 21.0791 113.976 18.6619 117.232 18.6619C119.169 18.6619 120.841 19.3525 121.721 21.1655C121.985 21.7698 122.161 22.3741 122.249 22.9784C122.337 23.5827 122.337 24.2734 122.337 24.964H115.384V25.0504ZM119.081 22.9784C119.081 21.8561 118.729 20.8201 117.232 20.8201C115.824 20.8201 115.472 21.8561 115.384 22.9784H119.081ZM132.988 19.2662C132.988 17.7122 132.02 16.4173 130.083 16.4173C127.795 16.4173 127.178 19.7842 127.178 21.8561C127.178 23.9281 127.795 27.295 130.083 27.295C132.02 27.295 132.988 26 132.988 24.446H136.421C136.245 28.1583 133.516 29.5396 130.083 29.5396C125.682 29.5396 123.746 26.1727 123.746 21.7698C123.746 17.4532 125.682 14 130.083 14C133.604 14 136.333 15.3813 136.421 19.0935H132.988V19.2662ZM140.998 19.0072L141.086 20.9065C141.79 19.2662 143.11 18.8345 144.694 18.9209V21.6835H143.286C142.758 21.6835 142.054 22.0288 141.79 22.4604C141.438 23.0647 141.35 23.5827 141.35 24.2734V29.3669H138.181V21.0791C138.181 20.6475 138.093 19.7842 138.093 19.0072H140.998ZM151.56 29.7122C148.127 29.7122 146.015 27.4676 146.015 24.187C146.015 20.9065 148.039 18.6619 151.56 18.6619C154.993 18.6619 157.105 20.9065 157.105 24.187C157.105 27.4676 154.993 29.7122 151.56 29.7122ZM151.56 27.6403C153.496 27.6403 153.848 25.8273 153.848 24.187C153.848 22.5468 153.496 20.7338 151.56 20.7338C149.623 20.7338 149.271 22.5468 149.271 24.187C149.359 25.8273 149.623 27.6403 151.56 27.6403ZM164.675 21.7698C164.675 21.0791 163.971 20.7338 163.267 20.7338C162.386 20.7338 162.034 20.9928 162.034 21.6835C162.034 23.3237 168.108 22.3741 168.108 26.259C168.108 28.5036 165.291 29.6259 163.355 29.6259C160.89 29.6259 158.778 28.6763 158.69 26.3453H161.594C161.682 27.1223 162.386 27.6403 163.355 27.6403C164.235 27.6403 164.851 27.295 164.851 26.518C164.851 25.6547 163.355 25.3094 162.738 25.223C160.714 24.7914 158.866 24.2734 158.866 21.9424C158.866 19.7842 161.506 18.8345 163.355 18.8345C165.555 18.8345 167.491 19.6115 167.579 21.9424H164.675V21.7698ZM175.149 21.7698C175.149 21.0791 174.445 20.7338 173.741 20.7338C172.861 20.7338 172.509 20.9928 172.509 21.6835C172.509 23.3237 178.582 22.3741 178.582 26.259C178.582 28.5036 175.765 29.6259 173.829 29.6259C171.364 29.6259 169.252 28.6763 169.164 26.3453H172.068C172.157 27.1223 172.861 27.6403 173.829 27.6403C174.709 27.6403 175.325 27.295 175.325 26.518C175.325 25.6547 173.829 25.3094 173.213 25.223C171.188 24.7914 169.34 24.2734 169.34 21.9424C169.34 19.7842 171.98 18.8345 173.829 18.8345C176.029 18.8345 177.966 19.6115 178.054 21.9424H175.149V21.7698ZM80 34.7194H85.7213C88.4499 34.5468 91.1785 35.6691 91.1785 38.6043C91.1785 40.2446 90.0342 41.3669 88.5379 41.8849C90.4743 42.3165 91.8826 43.6115 91.8826 45.7698C91.8826 48.705 88.0978 49.8273 85.8093 49.6547H80V34.7194ZM85.8093 40.6763C87.2176 40.6763 87.9218 40.1583 87.9218 38.9496C87.9218 37.741 87.1296 37.223 85.8093 37.223H83.2567V40.7626L85.8093 40.6763ZM85.8093 47.0648C87.3056 47.0648 88.3619 46.8058 88.3619 45.0791C88.3619 43.3525 87.3056 43.0935 85.8093 43.0935H83.2567V47.0648H85.8093ZM97.0758 34.7194V49.5683H93.9071V34.7194H97.0758ZM106.67 48.2734C105.966 49.223 104.998 49.8273 103.413 49.8273C102.357 49.8273 100.333 49.0504 99.9804 47.4964C99.8044 46.8921 99.8044 46.2014 99.8044 45.8561V39.1223H102.973V45.4245C102.973 46.5468 103.325 47.8417 104.822 47.8417C105.79 47.8417 106.67 46.9784 106.67 45.4245V39.2086H109.839V47.6691C109.839 48.2734 109.927 48.8777 109.927 49.482H106.758L106.67 48.2734ZM115.384 45.2518C115.384 46.6331 115.56 47.8417 117.232 47.8417C118.289 47.8417 118.905 47.4101 119.169 46.4604H121.985C121.721 49.0504 119.697 49.8273 117.232 49.8273C113.623 49.8273 112.127 47.8417 112.127 44.3885C112.127 41.2806 113.976 38.8633 117.232 38.8633C119.169 38.8633 120.841 39.554 121.721 41.3669C121.985 41.9712 122.161 42.5755 122.249 43.1799C122.337 43.7842 122.337 44.4748 122.337 45.1655L115.384 45.2518ZM119.081 43.1799C119.081 42.0576 118.729 41.0216 117.232 41.0216C115.824 41.0216 115.472 42.0576 115.384 43.1799H119.081ZM132.548 38.9496C132.46 37.482 131.579 36.705 129.995 36.705C128.763 36.705 127.619 37.3094 127.619 38.6043C127.619 40.2446 129.115 40.4173 130.435 40.6763C132.724 41.2806 136.156 41.8849 136.156 44.9065C136.156 48.6187 132.9 49.9137 129.643 49.9137C126.21 49.9137 123.746 48.6187 123.834 44.8201H127.178C127.09 46.4604 128.059 47.5827 129.731 47.5827C131.051 47.5827 132.724 47.1511 132.724 45.5971C132.724 43.8705 130.523 43.6978 129.291 43.3525C127.178 42.8345 124.274 41.8849 124.274 39.2086C124.274 35.8417 127.443 34.2878 130.611 34.2878C133.516 34.2878 135.804 35.8417 135.804 38.8633L132.548 38.9496ZM138.357 49.5683V34.7194H141.526V40.5036C142.142 39.554 143.198 38.9496 144.782 38.9496C145.839 38.9496 147.863 39.7266 148.215 41.1942C148.391 41.7986 148.391 42.4892 148.391 42.8345V49.5683H145.311V43.3525C145.311 42.2302 144.958 41.0216 143.462 41.0216C142.494 41.0216 141.614 41.8849 141.614 43.3525V49.5683H138.357ZM154.465 34.7194V37.3957H151.12V34.7194H154.465ZM154.289 39.2086V49.5683H151.12V39.2086H154.289ZM159.834 45.2518C159.834 46.6331 160.01 47.8417 161.682 47.8417C162.738 47.8417 163.355 47.4101 163.619 46.4604H166.435C166.171 49.0504 164.147 49.8273 161.682 49.8273C158.073 49.8273 156.577 47.8417 156.577 44.3885C156.577 41.2806 158.425 38.8633 161.682 38.8633C163.619 38.8633 165.291 39.554 166.171 41.3669C166.435 41.9712 166.611 42.5755 166.699 43.1799C166.787 43.7842 166.787 44.4748 166.787 45.1655L159.834 45.2518ZM163.443 43.1799C163.443 42.0576 163.09 41.0216 161.594 41.0216C160.186 41.0216 159.834 42.0576 159.746 43.1799H163.443ZM171.804 34.7194V49.5683H168.636V34.7194H171.804ZM181.839 34.7194H185.007V47.5827C185.007 48.2734 185.095 48.964 185.095 49.6547H181.927C181.927 49.1367 181.839 48.705 181.839 48.187C181.134 49.3957 179.99 50 178.582 50C175.501 50 174.005 47.1511 174.005 44.4748C174.005 41.7122 175.677 38.9496 178.934 38.9496C179.99 38.9496 181.134 39.554 181.751 40.4173L181.839 34.7194ZM179.55 47.8417C181.223 47.8417 181.839 45.8561 181.839 44.3885C181.839 43.0072 181.311 40.9352 179.55 40.9352C177.526 40.9352 177.262 42.7482 177.262 44.3885C177.262 45.9424 177.526 47.8417 179.55 47.8417ZM180.078 29.3669C179.55 29.3669 179.11 28.9353 179.11 28.4173C179.11 27.8993 179.55 27.4676 180.078 27.4676C180.606 27.4676 181.046 27.8993 181.046 28.4173C181.046 28.9353 180.694 29.3669 180.078 29.3669ZM180.078 27.2086C179.462 27.2086 178.934 27.7266 178.934 28.3309C178.934 28.9353 179.462 29.4532 180.078 29.4532C180.694 29.4532 181.223 28.9353 181.223 28.3309C181.223 27.7266 180.694 27.2086 180.078 27.2086Z" fill="#231F20"/>
<path d="M180.078 28.3308H179.814V27.8992H180.166C180.342 27.8992 180.518 27.8992 180.518 28.0718C180.518 28.3308 180.254 28.3308 180.078 28.3308ZM180.694 28.0718C180.694 27.8128 180.606 27.7265 180.254 27.7265H179.638V29.0215H179.814V28.4172H180.078L180.518 29.0215H180.694L180.342 28.4172C180.518 28.4172 180.694 28.3308 180.694 28.0718ZM186.856 49.4819C186.328 49.4819 185.888 49.0502 185.888 48.5323C185.888 48.0143 186.328 47.5826 186.856 47.5826C187.384 47.5826 187.824 48.0143 187.824 48.5323C187.824 49.0502 187.384 49.4819 186.856 49.4819ZM186.856 47.3236C186.24 47.3236 185.711 47.8416 185.711 48.4459C185.711 49.0502 186.24 49.5682 186.856 49.5682C187.472 49.5682 188 49.0502 188 48.4459C188 47.8416 187.472 47.3236 186.856 47.3236Z" fill="#231F20"/>
<path d="M186.768 48.4459H186.504V48.0143H186.856C187.032 48.0143 187.208 48.0143 187.208 48.1869C187.208 48.4459 187.032 48.4459 186.768 48.4459ZM187.472 48.1869C187.472 47.9279 187.384 47.8416 187.032 47.8416H186.416V49.1366H186.592V48.5322H186.856L187.208 49.1366H187.384L187.032 48.5322C187.296 48.5322 187.472 48.4459 187.472 48.1869Z" fill="#231F20"/>
<path d="M33.1613 46.2296C32.0247 46.2296 31.1504 47.098 31.1504 48.2271C31.1504 49.3561 32.0247 50.2246 33.1613 50.2246C34.2105 50.2246 35.1722 49.3561 35.1722 48.2271C35.1722 47.098 34.2979 46.2296 33.1613 46.2296ZM33.1613 49.8772C32.1996 49.8772 31.5001 49.1824 31.5001 48.2271C31.5001 47.2717 32.1996 46.5769 33.1613 46.5769C34.123 46.5769 34.8225 47.2717 34.8225 48.2271C34.8225 49.1824 34.2105 49.8772 33.1613 49.8772Z" fill="#008BCC"/>
<path d="M34.2097 47.7059C34.2097 47.2717 34.0349 47.098 33.4229 47.098H32.4611V49.356H32.7234V48.4007H33.248L33.86 49.356H34.2097L33.5103 48.4007C33.9474 48.3139 34.2097 48.1402 34.2097 47.7059ZM33.1606 48.0533H32.7234V47.3585H33.3354C33.5977 47.3585 33.86 47.3585 33.86 47.7059C33.9474 48.1402 33.4229 48.0533 33.1606 48.0533ZM17.4231 34.9393C17.3357 34.9393 17.3357 34.9393 17.2483 35.0261L13.9259 40.0633C14.9751 40.4976 16.1117 40.7581 17.3357 40.7581C18.5597 40.7581 19.6963 40.4976 20.7455 40.0633L17.4231 35.0261C17.5105 34.9393 17.4231 34.9393 17.4231 34.9393ZM14.1882 30.7706L9.20467 30.3364C9.02981 30.9443 8.94238 31.6391 8.94238 32.3339C8.94238 34.4182 9.72926 36.3289 10.9533 37.8053L14.4505 31.2048C14.6253 31.0311 14.5379 30.8575 14.1882 30.7706Z" fill="#008BCC"/>
<path d="M25.2924 24.4307V14.6169H9.46751V24.4307H-0.412109V40.1501H9.46751V49.9639H25.2924V40.1501H35.172V24.4307H25.2924ZM17.4237 22.6069C21.358 22.6069 24.7678 24.8649 26.2541 28.252H19.2597C18.298 28.252 17.8608 27.6441 17.7734 27.2098C17.7734 26.6887 17.8608 26.515 18.298 25.9071C18.8225 25.2123 18.4728 23.9964 17.3362 23.9096C16.1996 23.9096 15.8499 25.2123 16.3745 25.9071C16.8116 26.515 16.8991 26.6887 16.8991 27.2098C16.8991 27.6441 16.4619 28.252 15.4128 28.252H8.41835C10.0795 24.9518 13.4893 22.6069 17.4237 22.6069ZM7.63147 32.3338C7.63147 31.118 7.89376 29.9889 8.24348 28.9468L14.8008 29.5547C16.0248 29.7284 16.1996 30.9443 15.8499 31.639L11.391 40.0633C9.11779 38.2395 7.63147 35.4604 7.63147 32.3338ZM22.7569 40.4975C21.1832 41.5397 19.3471 42.0608 17.3362 42.0608C15.3253 42.0608 13.4893 41.4528 11.9156 40.4975L16.7242 33.4629C17.0739 32.9418 17.5985 33.0286 17.9482 33.4629L22.7569 40.4975ZM23.4563 39.9764L18.9974 31.639C18.6477 30.9443 18.8225 29.7284 20.0466 29.5547L26.6038 28.9468C27.041 29.9889 27.2158 31.2048 27.2158 32.3338C27.2158 35.4604 25.7295 38.2395 23.4563 39.9764Z" fill="#008BCC"/>
<path d="M23.8058 26.8625C22.7567 25.6466 21.3578 24.6913 19.784 24.257C20.3086 25.0386 19.8715 26.1677 19.4343 26.6888C19.3469 26.7756 19.4343 26.8625 19.4343 26.8625H23.8058ZM20.6583 30.7706C20.3086 30.7706 20.3086 30.9443 20.3961 31.118L23.8933 37.7184C25.1173 36.242 25.9042 34.3314 25.9042 32.247C25.9042 31.5522 25.8167 30.8575 25.6419 30.2495L20.6583 30.7706ZM15.0628 24.3439C13.4891 24.7781 12.0902 25.7334 11.041 26.9493H15.4125C15.5 26.9493 15.5 26.8625 15.4125 26.7756C14.9754 26.1677 14.5382 25.1255 15.0628 24.3439Z" fill="#008BCC"/>
<path d="M66.9974 14.6169C63.1505 16.5276 59.3035 17.5698 54.8446 17.5698C50.3856 17.5698 46.5387 16.5276 42.6918 14.6169C40.1563 19.5673 39.8066 27.5573 41.9923 34.2445C44.0907 40.6713 48.1999 46.5769 54.8446 50.2245C61.5767 46.5769 65.5985 40.6713 67.6968 34.2445C69.97 27.5573 69.5329 19.5673 66.9974 14.6169ZM65.2488 33.4629C63.3253 38.9343 60.4401 43.7978 54.932 47.1849C49.4239 43.7978 46.4513 38.9343 44.6153 33.4629C42.9541 28.5994 42.5169 22.8675 44.353 18.4382C47.1507 19.3936 48.7245 19.6541 50.2108 19.9147C51.6097 20.1752 52.8337 20.262 54.932 20.262C56.9429 20.262 58.2544 20.0884 59.6533 19.9147C61.1396 19.6541 62.8007 19.3936 65.5111 18.4382C67.2597 22.8675 66.91 28.5994 65.2488 33.4629Z" fill="#008BCC"/>
<path d="M59.6537 21.1306C58.0799 21.3042 56.4188 21.4779 54.845 21.4779C53.2713 21.4779 51.6975 21.3042 50.0363 21.1306C48.4626 20.87 46.8889 20.5226 45.2277 20.0884C44.0911 23.3886 44.266 27.5573 45.2277 31.2049C46.8889 38.1527 51.1729 43.4504 54.845 45.7953C58.6045 43.4504 62.8012 38.1527 64.4623 31.2049C65.3366 27.4704 65.5989 23.3886 64.4623 20.0884C62.8012 20.5226 61.3148 20.9569 59.6537 21.1306ZM53.9707 42.582C53.8833 42.9293 54.0581 43.103 54.0581 43.2767C53.9707 43.5373 53.7959 43.4504 53.7084 43.2767C53.5336 43.0162 53.4461 42.8425 53.4461 42.4083C53.3587 41.7135 53.7084 41.4529 53.8833 41.2792C54.0581 41.1055 54.233 41.0187 54.233 41.0187L54.3204 42.1477C54.1456 42.1477 53.9707 42.2346 53.9707 42.582ZM55.457 43.711C55.457 43.8847 55.3696 44.0584 55.0199 44.0584C54.7576 44.0584 54.5827 43.9715 54.5827 43.6241C54.4953 42.2346 54.4953 39.716 54.4953 39.716C54.4953 39.716 54.845 39.8028 55.1073 39.9765C55.1947 39.9765 55.3696 40.1502 55.5445 40.3239C55.5445 40.4108 55.6319 40.4108 55.6319 40.4976C55.5445 41.4529 55.457 43.2767 55.457 43.711ZM56.5936 41.1055C56.2439 41.3661 55.8942 41.4529 55.8942 41.4529V40.4108C55.8942 40.4108 55.9816 40.3239 55.9816 40.1502C55.8942 39.9765 55.1947 39.4554 54.845 39.2817C54.4079 39.108 53.8833 38.9343 53.5336 38.8475C52.6593 38.5001 52.3095 37.7185 52.6593 36.85C52.7467 36.5026 53.1838 36.3289 53.3587 36.2421C53.5336 36.1552 53.8833 36.0684 53.8833 36.0684L53.9707 37.2842C53.9707 37.2842 53.8833 37.2842 53.7958 37.4579C53.7084 37.6316 53.8833 37.8053 53.9707 37.8053C54.5827 38.0659 55.3696 38.4133 55.9816 38.7607C56.7685 39.1949 57.0308 39.5423 57.0308 40.1502C57.1182 40.5845 56.8559 40.9319 56.5936 41.1055ZM54.4079 35.4604C55.0199 35.5473 55.1947 35.5473 55.7193 35.6341L55.6319 38.0659L55.1073 37.8053L54.5827 37.5448L54.4079 35.4604ZM57.9051 35.9815C57.8176 36.4158 57.5554 36.7632 57.1182 37.0237C56.681 37.2842 56.1565 37.2842 56.1565 37.2842V35.8078C56.1565 35.8078 56.2439 35.8078 56.3313 35.721C56.4188 35.6341 56.4188 35.5473 56.4188 35.4604C56.4188 35.3736 56.3313 35.2867 56.2439 35.1999C56.069 35.113 55.8942 35.113 55.8067 35.113L53.7084 34.8525C52.4844 34.6788 51.5227 33.8972 51.6101 32.6813C51.6975 31.8997 52.4844 31.6391 53.0964 31.3786L53.5336 32.2471C53.621 32.5945 53.7084 32.7682 53.7084 32.7682C53.7084 32.7682 53.4461 32.855 53.4461 33.0287C53.4461 33.2024 53.7084 33.2892 53.7958 33.2892C54.6702 33.3761 55.8942 33.5498 56.5062 33.8103C56.9433 33.984 57.2931 34.1577 57.5554 34.5051C57.9051 35.113 57.9925 35.5473 57.9051 35.9815ZM53.8833 30.3364C53.8833 30.3364 54.1456 30.3364 54.9324 30.4233C55.457 30.4233 55.8942 30.597 55.8942 30.597L55.8067 33.2024C55.1947 33.1155 54.845 33.0287 54.3204 32.9419C54.1456 31.9865 53.8833 31.6391 53.5336 30.9444C53.4461 30.7707 53.5336 30.6838 53.5336 30.6838C53.621 30.597 53.9707 30.5101 53.9707 30.5101L53.8833 30.3364ZM56.2439 32.9419C56.2439 32.9419 56.3313 31.726 56.3313 31.118C56.681 31.0312 56.7685 30.6838 56.5936 30.4233C56.5062 30.2496 56.2439 30.1627 56.1565 30.1627C55.457 29.989 54.845 29.989 54.1456 29.9022C53.5336 29.8153 53.009 29.7285 52.4844 29.6416C51.3478 29.3811 50.2986 28.7732 49.7741 27.731C49.162 26.4283 49.6866 24.7782 50.9981 24.1702C51.9598 23.6491 53.009 23.736 53.9707 24.1702C54.3204 24.2571 54.4953 24.6045 54.6702 24.865C54.7576 24.9519 54.9324 25.0387 55.0199 25.2124C55.1073 25.2992 54.9324 25.2992 54.9324 25.2992C54.7576 25.3861 53.9707 25.3861 53.7958 25.2992H52.7467C53.009 25.4729 53.3587 25.6466 53.7084 25.8203C53.8833 25.9072 54.0581 25.9072 54.233 25.994C54.3204 25.994 54.4953 26.0809 54.4953 26.1677C54.4953 26.2546 54.3204 26.2546 54.1456 26.3414C53.8833 26.4283 53.5336 26.4283 53.1838 26.3414C52.6593 26.2546 52.397 25.9072 52.0472 26.0809C51.785 26.2546 51.785 26.5151 51.8724 26.8625C51.9598 27.3836 52.4844 27.5573 52.9215 27.731C54.4079 28.2521 56.069 27.9047 57.4679 28.6863C57.9925 28.9469 58.6919 29.5548 58.7794 30.1627C59.2165 32.5945 56.2439 32.9419 56.2439 32.9419ZM58.8668 24.865C58.7794 25.1256 58.6919 25.1256 58.5171 25.2992C58.1674 25.6466 57.6428 25.994 57.1182 26.4283C56.7685 26.6888 56.5062 26.8625 56.2439 27.2967C56.1565 27.3836 56.069 27.5573 56.069 27.5573C55.1947 27.3836 54.4079 27.3836 53.7084 27.2099V26.5151C53.7084 26.5151 54.4953 26.5151 54.5827 25.994C54.5827 25.994 54.5827 25.8203 54.4953 25.7335C54.4079 25.6466 54.1456 25.5598 54.0581 25.5598C54.6702 25.6466 55.2822 25.9072 55.8942 26.1677C55.8942 26.0809 55.8067 25.8203 55.8067 25.8203C55.7193 25.7335 55.6319 25.6466 55.3696 25.5598C55.0199 25.4729 54.0581 25.3861 54.0581 25.3861H54.845C55.0199 25.3861 55.2822 25.2992 55.2822 25.2124C55.3696 25.1256 55.2822 24.9519 55.1073 24.7782L54.845 24.5176C54.7576 24.3439 54.5827 24.1702 54.4953 23.9965C54.3204 23.736 53.621 23.4754 53.621 23.4754C53.621 23.4754 53.5336 23.0412 53.7084 22.8675C53.7959 22.6938 54.1456 22.6938 54.233 22.7807C54.6702 23.0412 55.2822 23.3017 55.8942 23.4754C56.069 23.5623 56.069 23.5623 56.069 23.8228C56.1565 24.2571 55.9816 24.865 56.069 25.1256C56.069 25.2124 56.2439 25.2124 56.2439 25.2124C56.8559 24.865 57.2056 24.3439 57.8176 24.0834C58.2548 23.9097 59.0417 24.2571 58.8668 24.865ZM67.1727 46.3164C66.1235 46.3164 65.2492 47.1849 65.2492 48.2271C65.2492 49.2692 66.1235 50.1377 67.1727 50.1377C68.2218 50.1377 69.0961 49.2692 69.0961 48.2271C69.0961 47.1849 68.2218 46.3164 67.1727 46.3164ZM67.1727 49.8772C66.2109 49.8772 65.5115 49.1824 65.5115 48.2271C65.5115 47.2717 66.2109 46.577 67.1727 46.577C68.1344 46.577 68.8338 47.2717 68.8338 48.2271C68.8338 49.1824 68.1344 49.8772 67.1727 49.8772Z" fill="#008BCC"/>
<path d="M68.2208 47.706C68.2208 47.2717 68.0459 47.098 67.4339 47.098H66.4722V49.3561H66.7345V48.4008H67.1716L67.7836 49.3561H68.1334L67.4339 48.4008C67.8711 48.3139 68.2208 48.1402 68.2208 47.706ZM67.1716 48.1402H66.7345V47.4454H67.3465C67.6088 47.4454 67.8711 47.4454 67.8711 47.7928C67.8711 48.1402 67.4339 48.1402 67.1716 48.1402ZM53.0079 24.2571C53.1828 24.4308 53.1828 24.6045 53.4451 24.6045C53.6199 24.6045 53.7074 24.5176 53.7948 24.4308H53.9697C53.7074 24.1702 53.0954 24.1702 52.6582 24.0834C52.8331 24.2571 52.9205 24.1702 53.0079 24.2571Z" fill="#008BCC"/>
</g>
<defs>
<clipPath id="clip0_5506_1331">
<rect width="188" height="65" fill="white"/>
</clipPath>
</defs>
</svg>
