<svg width="188" height="65" fill="none" xmlns="http://www.w3.org/2000/svg"><g clip-path="url(#clip0_5506_1331)"><path d="M21.728 41.995c5.416 0 9.807-4.36 9.807-9.74s-4.39-9.742-9.807-9.742c-5.416 0-9.806 4.361-9.806 9.741s4.39 9.742 9.806 9.742zM57 19.812c-4.203 0-10.631-1.965-10.631-1.965s-1.401 3.602-1.401 8.514c0 4.911 4.12 17.845 12.443 21.12 0 0 11.867-7.45 11.867-20.465 0-7.777-1.154-9.169-1.154-9.169S61.202 19.812 57 19.812z" fill="#fff"/><path d="M80 14.518h5.721c2.729-.173 5.457.95 5.457 3.885 0 1.64-1.144 2.763-2.64 3.28 1.936.432 3.345 1.727 3.345 3.885 0 2.936-3.785 4.058-6.074 3.885H80V14.518zm5.81 5.957c1.408 0 2.112-.518 2.112-1.727 0-1.208-.792-1.726-2.113-1.726h-2.552v3.54h2.552v-.087zm0 6.388c1.496 0 2.552-.259 2.552-1.985 0-1.727-1.056-1.986-2.553-1.986h-2.552v3.971h2.552zm11.266-12.345v14.849h-3.169V14.518h3.169zm9.594 13.554c-.704.95-1.672 1.554-3.257 1.554-1.056 0-3.08-.777-3.433-2.245-.176-.604-.176-1.295-.176-1.64v-6.734h3.169v6.216c0 1.122.352 2.417 1.849 2.417.968 0 1.848-.863 1.848-2.417v-6.216h3.169v8.46c0 .605.088 1.21.088 1.814h-3.169l-.088-1.21zm8.714-3.022c0 1.382.176 2.59 1.848 2.59 1.057 0 1.673-.431 1.937-1.381h2.816c-.264 2.59-2.288 3.367-4.753 3.367-3.609 0-5.105-1.986-5.105-5.439 0-3.108 1.849-5.525 5.105-5.525 1.937 0 3.609.69 4.489 2.504.264.604.44 1.208.528 1.812.088.605.088 1.295.088 1.986h-6.953v.086zm3.697-2.072c0-1.122-.352-2.158-1.849-2.158-1.408 0-1.76 1.036-1.848 2.158h3.697zm13.907-3.712c0-1.554-.968-2.849-2.905-2.849-2.288 0-2.905 3.367-2.905 5.44 0 2.071.617 5.438 2.905 5.438 1.937 0 2.905-1.295 2.905-2.849h3.433c-.176 3.712-2.905 5.094-6.338 5.094-4.401 0-6.337-3.367-6.337-7.77 0-4.317 1.936-7.77 6.337-7.77 3.521 0 6.25 1.381 6.338 5.093h-3.433v.173zm8.01-.259l.088 1.9c.704-1.64 2.024-2.073 3.608-1.986v2.762h-1.408c-.528 0-1.232.346-1.496.777-.352.605-.44 1.123-.44 1.813v5.094h-3.169v-8.288c0-.431-.088-1.295-.088-2.072h2.905zm10.562 10.705c-3.433 0-5.545-2.244-5.545-5.525 0-3.28 2.024-5.525 5.545-5.525 3.433 0 5.545 2.245 5.545 5.525 0 3.28-2.112 5.525-5.545 5.525zm0-2.072c1.936 0 2.288-1.813 2.288-3.453s-.352-3.453-2.288-3.453c-1.937 0-2.289 1.813-2.289 3.453.088 1.64.352 3.453 2.289 3.453zm13.115-5.87c0-.69-.704-1.036-1.408-1.036-.881 0-1.233.259-1.233.95 0 1.64 6.074.69 6.074 4.575 0 2.245-2.817 3.367-4.753 3.367-2.465 0-4.577-.95-4.665-3.28h2.904c.088.776.792 1.294 1.761 1.294.88 0 1.496-.345 1.496-1.122 0-.863-1.496-1.209-2.113-1.295-2.024-.432-3.872-.95-3.872-3.28 0-2.159 2.64-3.109 4.489-3.109 2.2 0 4.136.777 4.224 3.108h-2.904v-.172zm10.474 0c0-.69-.704-1.036-1.408-1.036-.88 0-1.232.259-1.232.95 0 1.64 6.073.69 6.073 4.575 0 2.245-2.817 3.367-4.753 3.367-2.465 0-4.577-.95-4.665-3.28h2.904c.089.776.793 1.294 1.761 1.294.88 0 1.496-.345 1.496-1.122 0-.863-1.496-1.209-2.112-1.295-2.025-.432-3.873-.95-3.873-3.28 0-2.159 2.64-3.109 4.489-3.109 2.2 0 4.137.777 4.225 3.108h-2.905v-.172zM80 34.72h5.721c2.729-.173 5.457.95 5.457 3.884 0 1.64-1.144 2.763-2.64 3.28 1.936.432 3.345 1.727 3.345 3.886 0 2.935-3.785 4.057-6.074 3.885H80V34.719zm5.81 5.956c1.408 0 2.112-.518 2.112-1.726 0-1.209-.792-1.727-2.113-1.727h-2.552v3.54l2.552-.087zm0 6.389c1.496 0 2.552-.26 2.552-1.986 0-1.727-1.056-1.986-2.553-1.986h-2.552v3.972h2.552zm11.266-12.346v14.85h-3.169v-14.85h3.169zm9.594 13.554c-.704.95-1.672 1.554-3.257 1.554-1.056 0-3.08-.777-3.433-2.33-.176-.605-.176-1.296-.176-1.64v-6.735h3.169v6.303c0 1.122.352 2.417 1.849 2.417.968 0 1.848-.864 1.848-2.417v-6.216h3.169v8.46c0 .604.088 1.209.088 1.813h-3.169l-.088-1.209zm8.714-3.021c0 1.381.176 2.59 1.848 2.59 1.057 0 1.673-.432 1.937-1.382h2.816c-.264 2.59-2.288 3.367-4.753 3.367-3.609 0-5.105-1.985-5.105-5.438 0-3.108 1.849-5.526 5.105-5.526 1.937 0 3.609.691 4.489 2.504.264.604.44 1.209.528 1.813.088.604.088 1.295.088 1.986l-6.953.086zm3.697-2.072c0-1.122-.352-2.158-1.849-2.158-1.408 0-1.76 1.036-1.848 2.158h3.697zm13.467-4.23c-.088-1.468-.969-2.245-2.553-2.245-1.232 0-2.376.604-2.376 1.9 0 1.64 1.496 1.812 2.816 2.071 2.289.605 5.721 1.209 5.721 4.23 0 3.713-3.256 5.008-6.513 5.008-3.433 0-5.897-1.295-5.809-5.094h3.344c-.088 1.64.881 2.763 2.553 2.763 1.32 0 2.993-.432 2.993-1.986 0-1.727-2.201-1.9-3.433-2.245-2.113-.517-5.017-1.467-5.017-4.143 0-3.367 3.169-4.921 6.337-4.921 2.905 0 5.193 1.554 5.193 4.575l-3.256.087zm5.809 10.618V34.72h3.169v5.785c.616-.95 1.672-1.554 3.256-1.554 1.057 0 3.081.777 3.433 2.244.176.605.176 1.295.176 1.64v6.734h-3.08v-6.215c0-1.123-.353-2.331-1.849-2.331-.968 0-1.848.863-1.848 2.33v6.216h-3.257zm16.108-14.849v2.677h-3.345v-2.677h3.345zm-.176 4.49v10.36h-3.169v-10.36h3.169zm5.545 6.043c0 1.381.176 2.59 1.848 2.59 1.056 0 1.673-.432 1.937-1.382h2.816c-.264 2.59-2.288 3.367-4.753 3.367-3.609 0-5.105-1.985-5.105-5.438 0-3.108 1.848-5.526 5.105-5.526 1.937 0 3.609.691 4.489 2.504.264.604.44 1.209.528 1.813.088.604.088 1.295.088 1.986l-6.953.086zm3.609-2.072c0-1.122-.353-2.158-1.849-2.158-1.408 0-1.76 1.036-1.848 2.158h3.697zm8.361-8.46v14.848h-3.168V34.72h3.168zm10.035 0h3.168v12.863c0 .69.088 1.381.088 2.072h-3.168c0-.518-.088-.95-.088-1.468-.705 1.209-1.849 1.813-3.257 1.813-3.081 0-4.577-2.849-4.577-5.525 0-2.763 1.672-5.525 4.929-5.525 1.056 0 2.2.604 2.817 1.467l.088-5.698zm-2.289 13.122c1.673 0 2.289-1.986 2.289-3.453 0-1.382-.528-3.454-2.289-3.454-2.024 0-2.288 1.813-2.288 3.453 0 1.554.264 3.454 2.288 3.454zm.528-18.475a.967.967 0 01-.968-.95c0-.518.44-.95.968-.95s.968.432.968.95-.352.95-.968.95zm0-2.158c-.616 0-1.144.518-1.144 1.122 0 .604.528 1.122 1.144 1.122.616 0 1.145-.518 1.145-1.122 0-.604-.529-1.122-1.145-1.122z" fill="#231F20"/><path d="M180.078 28.33h-.264v-.43h.352c.176 0 .352 0 .352.172 0 .259-.264.259-.44.259zm.616-.258c0-.26-.088-.345-.44-.345h-.616v1.294h.176v-.604h.264l.44.604h.176l-.352-.604c.176 0 .352-.086.352-.345zm6.162 21.41a.967.967 0 01-.968-.95c0-.518.44-.95.968-.95s.968.432.968.95-.44.95-.968.95zm0-2.158c-.616 0-1.145.518-1.145 1.122 0 .604.529 1.122 1.145 1.122S188 49.05 188 48.446c0-.604-.528-1.122-1.144-1.122z" fill="#231F20"/><path d="M186.768 48.446h-.264v-.432h.352c.176 0 .352 0 .352.173 0 .259-.176.259-.44.259zm.704-.26c0-.258-.088-.344-.44-.344h-.616v1.295h.176v-.605h.264l.352.605h.176l-.352-.605c.264 0 .44-.086.44-.345z" fill="#231F20"/><path d="M33.161 46.23c-1.136 0-2.01.868-2.01 1.997 0 1.13.874 1.998 2.01 1.998 1.05 0 2.011-.869 2.011-1.998s-.874-1.997-2.01-1.997zm0 3.647c-.961 0-1.66-.695-1.66-1.65s.699-1.65 1.66-1.65c.962 0 1.661.695 1.661 1.65s-.611 1.65-1.66 1.65z" fill="#008BCC"/><path d="M34.21 47.706c0-.434-.175-.608-.787-.608h-.962v2.258h.262v-.955h.525l.612.955h.35l-.7-.955c.437-.087.7-.26.7-.695zm-1.05.347h-.437v-.694h.612c.263 0 .525 0 .525.347.087.434-.437.347-.7.347zM17.424 34.94c-.087 0-.087 0-.175.087l-3.322 5.037a8.85 8.85 0 003.41.695 8.85 8.85 0 003.41-.695l-3.323-5.037c.088-.087 0-.087 0-.087zm-3.235-4.168l-4.983-.435a7.356 7.356 0 00-.263 1.998c0 2.084.787 3.995 2.011 5.471l3.498-6.6c.174-.174.087-.347-.263-.434z" fill="#008BCC"/><path d="M25.292 24.43v-9.813H9.468v9.814h-9.88v15.72h9.88v9.813h15.824V40.15h9.88V24.43h-9.88zm-7.868-1.823c3.934 0 7.344 2.258 8.83 5.645H19.26c-.962 0-1.4-.608-1.487-1.042 0-.521.088-.695.525-1.303.525-.695.175-1.91-.962-1.997-1.136 0-1.486 1.302-.961 1.997.437.608.524.782.524 1.303 0 .434-.437 1.042-1.486 1.042H8.418c1.662-3.3 5.071-5.645 9.006-5.645zM7.63 32.334c0-1.216.263-2.345.612-3.387l6.558.608c1.224.173 1.399 1.39 1.049 2.084l-4.459 8.424c-2.273-1.824-3.76-4.603-3.76-7.73zm15.126 8.163c-1.574 1.043-3.41 1.564-5.42 1.564-2.012 0-3.848-.608-5.421-1.563l4.808-7.035c.35-.521.875-.434 1.224 0l4.809 7.035zm.7-.52l-4.46-8.338c-.35-.695-.174-1.91 1.05-2.084l6.557-.608c.437 1.042.612 2.258.612 3.387a9.608 9.608 0 01-3.76 7.642z" fill="#008BCC"/><path d="M23.806 26.863c-1.05-1.216-2.448-2.172-4.022-2.606.525.782.088 1.91-.35 2.432-.087.087 0 .174 0 .174h4.372zm-3.148 3.908c-.35 0-.35.173-.262.347l3.497 6.6c1.224-1.476 2.011-3.387 2.011-5.471a7.36 7.36 0 00-.262-1.997l-4.984.52zm-5.595-6.427c-1.574.434-2.973 1.39-4.022 2.605h4.371c.088 0 .088-.087 0-.173-.437-.608-.874-1.65-.35-2.432zm51.934-9.727c-3.846 1.91-7.694 2.953-12.152 2.953-4.46 0-8.306-1.042-12.153-2.953-2.536 4.95-2.885 12.94-.7 19.627 2.099 6.427 6.208 12.333 12.853 15.98 6.732-3.647 10.754-9.553 12.852-15.98 2.273-6.687 1.836-14.677-.7-19.627zM65.25 33.463c-1.924 5.471-4.809 10.335-10.317 13.722-5.508-3.387-8.48-8.25-10.317-13.722-1.66-4.864-2.098-10.596-.262-15.025 2.798.956 4.371 1.216 5.858 1.477 1.399.26 2.623.347 4.721.347 2.01 0 3.322-.174 4.721-.347 1.487-.26 3.148-.521 5.858-1.477 1.749 4.43 1.399 10.161-.262 15.025z" fill="#008BCC"/><path d="M59.654 21.13c-1.574.174-3.235.348-4.809.348-1.574 0-3.148-.174-4.809-.347a53.406 53.406 0 01-4.808-1.043c-1.137 3.3-.962 7.47 0 11.117 1.66 6.948 5.945 12.245 9.617 14.59 3.76-2.345 7.956-7.642 9.617-14.59.875-3.735 1.137-7.816 0-11.117-1.66.435-3.147.869-4.808 1.043zM53.97 42.583c-.088.347.087.521.087.695-.087.26-.262.173-.35 0-.174-.26-.262-.434-.262-.869-.087-.694.262-.955.437-1.129.175-.174.35-.26.35-.26l.087 1.129c-.174 0-.35.087-.35.434zm1.486 1.129c0 .174-.087.347-.437.347-.262 0-.437-.087-.437-.434-.088-1.39-.088-3.908-.088-3.908s.35.087.612.26c.088 0 .263.174.438.348 0 .087.087.087.087.174a57.69 57.69 0 00-.175 3.213zm1.137-2.605a2.2 2.2 0 01-.7.347V40.41s.088-.087.088-.26c-.088-.175-.787-.696-1.137-.87a11.53 11.53 0 00-1.311-.434c-.875-.347-1.224-1.129-.875-1.997.088-.347.525-.521.7-.608.175-.087.524-.174.524-.174l.088 1.216s-.088 0-.175.174c-.088.174.087.347.175.347.612.26 1.399.608 2.01.956.788.434 1.05.781 1.05 1.39.087.433-.175.78-.437.954zm-2.186-5.646c.612.087.787.087 1.311.174l-.087 2.432-.525-.26-.524-.261-.175-2.085zm3.497.521c-.087.435-.35.782-.787 1.043-.437.26-.962.26-.962.26v-1.476s.088 0 .175-.087c.088-.087.088-.174.088-.26 0-.087-.088-.174-.175-.261-.175-.087-.35-.087-.437-.087l-2.099-.26c-1.224-.174-2.185-.956-2.098-2.172.087-.781.874-1.042 1.486-1.302l.438.868c.087.347.174.521.174.521s-.262.087-.262.26c0 .174.262.261.35.261.874.087 2.098.26 2.71.521.437.174.787.348 1.05.695.35.608.437 1.042.35 1.476zm-4.022-5.645s.263 0 1.05.087c.524 0 .961.174.961.174l-.087 2.605c-.612-.087-.962-.173-1.487-.26-.174-.956-.437-1.303-.786-1.998-.088-.173 0-.26 0-.26.087-.087.437-.174.437-.174l-.088-.174zm2.36 2.606s.088-1.216.088-1.824c.35-.087.438-.434.263-.695-.088-.173-.35-.26-.438-.26-.699-.174-1.311-.174-2.01-.26a69.481 69.481 0 01-1.662-.261c-1.136-.26-2.185-.869-2.71-1.911-.612-1.303-.087-2.953 1.224-3.56.962-.522 2.011-.435 2.973 0 .35.086.524.434.7.694.087.087.261.174.349.347.087.087-.088.087-.088.087-.174.087-.961.087-1.136 0h-1.05c.263.174.613.348.962.521.175.087.35.087.525.174.087 0 .262.087.262.174s-.175.087-.35.173c-.262.087-.611.087-.961 0-.525-.086-.787-.434-1.137-.26-.262.174-.262.434-.175.782.088.52.612.694 1.05.868 1.486.521 3.147.174 4.546.955.524.26 1.224.869 1.311 1.477.438 2.431-2.535 2.779-2.535 2.779zm2.624-8.077c-.088.26-.175.26-.35.434-.35.348-.874.695-1.399 1.13-.35.26-.612.434-.874.868-.087.087-.175.26-.175.26-.874-.173-1.661-.173-2.36-.347v-.695s.786 0 .874-.521c0 0 0-.174-.088-.26-.087-.087-.35-.174-.437-.174.612.087 1.224.347 1.836.608 0-.087-.087-.348-.087-.348-.088-.087-.175-.173-.437-.26-.35-.087-1.312-.174-1.312-.174h.787c.175 0 .437-.087.437-.174.088-.086 0-.26-.175-.434l-.262-.26c-.087-.174-.262-.348-.35-.521-.175-.261-.874-.522-.874-.522s-.087-.434.087-.608c.088-.173.438-.173.525-.086.437.26 1.05.52 1.661.694.175.087.175.087.175.348.087.434-.087 1.042 0 1.303 0 .086.175.086.175.086.612-.347.962-.868 1.574-1.129.437-.173 1.224.174 1.049.782zm8.306 21.451c-1.05 0-1.924.869-1.924 1.911s.875 1.91 1.924 1.91 1.923-.868 1.923-1.91c0-1.042-.874-1.91-1.923-1.91zm0 3.561c-.962 0-1.662-.695-1.662-1.65s.7-1.65 1.662-1.65c.961 0 1.66.695 1.66 1.65s-.699 1.65-1.66 1.65z" fill="#008BCC"/><path d="M68.22 47.706c0-.434-.174-.608-.786-.608h-.962v2.258h.263v-.955h.437l.612.955h.35l-.7-.955c.437-.087.787-.26.787-.695zm-1.048.434h-.438v-.695h.613c.262 0 .524 0 .524.348 0 .347-.437.347-.7.347zM53.008 24.257c.175.174.175.348.437.348.175 0 .262-.087.35-.174h.175c-.263-.26-.875-.26-1.312-.348.175.174.262.087.35.174z" fill="#008BCC"/></g><defs><clipPath id="clip0_5506_1331"><path fill="#fff" d="M0 0h188v65H0z"/></clipPath></defs></svg>