<svg width="188" height="65" fill="none" xmlns="http://www.w3.org/2000/svg"><path d="M22.953 55.716c1.606.558 3.291.85 5.003.824 7.531 0 12.772-5.497 12.772-15.959v-31.2L43.598 8v33.112C43.598 51.786 38.147 58 30.405 58c-2.686 0-5.267-.797-7.452-2.284zM19.66 52.53c1.738.584 3.476.956 5.003.956 6.32 0 10.534-4.01 10.534-13.038V11.771l2.817-1.355v30.271C38.015 50.14 33.25 55 26.64 55c-2.422 0-4.898-.903-6.978-2.47zm-1.975-2.815c1.343.452 2.765.69 4.187.744 4.924 0 7.953-2.709 7.953-9.852V14.16l2.765-1.354v27.35c0 8.02-3.634 11.63-8.848 11.63a9.576 9.576 0 01-6.057-2.07zm9.506-8.337V15.276L15 20.826v21.189c0 4.036 2.528 6.744 6.241 6.744 3.713 0 5.951-2.761 5.951-7.381zm32.074-26.155v9.718c0 3.585 2.107 6.4 6.136 6.4 3.45 0 6.057-2.576 6.057-6.48v-9.4c-.027-1.035.763-1.911 1.79-1.938h.027l.368-.027v-.929h-6.056v.93l.395.026a1.863 1.863 0 011.817 1.912v9.134c0 2.974-1.528 4.78-3.924 4.78s-3.845-1.912-3.845-4.806v-9.347c0-1.01.553-1.62 1.686-1.673l.368-.027v-.929h-6.899v.93l.395.026c1.132.106 1.685.664 1.685 1.7zm8.19 20.764l.395.027c.974.053 1.685.451 1.685 1.54v5.709h-6.82v-5.71c0-1.114.737-1.46 1.685-1.54l.369-.026v-.93h-6.9v.93l.396.027c.974.053 1.685.451 1.685 1.54v13.383c0 1.115-.737 1.487-1.685 1.54l-.395.027v.929h6.899v-.93l-.369-.026c-.974-.08-1.685-.451-1.685-1.54v-6.24h6.794v6.24c0 1.115-.737 1.487-1.685 1.54l-.395.027v.929h6.899v-.93l-.369-.026c-.948-.08-1.685-.451-1.685-1.54V37.554c0-1.115.737-1.46 1.685-1.54l.369-.027v-.93h-6.873v.93zm6.188-18.003v.876l.527.027c.79.053 1.29.451 1.29 1.54v8.072c0 1.089-.553 1.487-1.422 1.54l-.395.027v.903h6.162v-.903l-.368-.027c-.896-.053-1.422-.451-1.422-1.54v-4.301c.052-3.16 1.395-5.046 3.002-5.046 1.211 0 2.027.85 2.027 2.47v6.85c0 1.09-.553 1.488-1.422 1.54l-.395.027v.903h6.162v-.903l-.368-.026c-.896-.053-1.422-.452-1.422-1.54v-7.17c0-2.044-1.238-3.744-3.713-3.744-1.738 0-3.266 1.062-3.845 2.921v-2.868l-4.398.372zm35.577 13.25c2.633 0 4.108-1.805 4.713-3.85l-1.132-.319c-.527 1.408-1.422 2.523-3.239 2.523-2.107 0-3.529-2.018-3.529-5.231h8.085v-.77c0-3.372-1.975-6.107-5.162-6.107-3.397 0-5.661 3.292-5.661 6.877s2.185 6.877 5.925 6.877zm-.29-12.268c1.422 0 2.344 1.355 2.449 4.09h-5.319c.263-2.523 1.316-4.09 2.87-4.09zm-12.508 9.055c0 2.045 1.211 3.213 3.186 3.213 1.817 0 3.028-1.354 3.555-3.266l-.948-.265c-.369 1.115-.974 1.779-1.791 1.779-1.106 0-1.448-.797-1.448-1.753v-8.497h3.555v-1.354h-3.555v-4.036h-1.29c-.5 3.053-2.028 4.142-3.634 4.487v.93h2.396l-.026 8.762zm-5.451-12.506c.948-.027 1.685-.85 1.659-1.806-.027-.903-.764-1.62-1.66-1.673-.921 0-1.658.77-1.658 1.7-.053.982.684 1.752 1.659 1.779-.027 0-.027 0 0 0zm-1.212 4.912v8.072c0 1.089-.553 1.487-1.422 1.54l-.395.027v.903h6.162v-.903l-.368-.027c-.896-.053-1.422-.451-1.422-1.54V17.64l-4.503.345v.876l.658.027c.79 0 1.29.425 1.29 1.54zm30.995 10.807c1.711 0 3.054-.903 3.607-2.416v2.15h4.345v-.876l-.368-.026c-.896-.053-1.422-.452-1.422-1.54V12.249l-4.424.398v.876l.579.027c.79.026 1.29.451 1.29 1.54v4.726c-.579-1.46-1.896-2.336-3.607-2.336-3.397 0-5.346 3.292-5.346 6.877s1.922 6.877 5.346 6.877zm.421-12.268c1.922 0 3.186 2.098 3.186 5.364s-1.237 5.364-3.186 5.364c-1.817 0-3.028-2.071-3.028-5.364 0-3.292 1.211-5.363 3.028-5.363zm38.289 21.03c-1.501 0-2.818 1.01-3.371 2.789v-2.682l-4.371.345v.877l.526.026c.79.053 1.291.451 1.291 1.54v8.072c0 1.116-.527 1.487-1.422 1.54l-.395.027v.903h6.162v-.903l-.369-.026c-.895-.054-1.422-.452-1.422-1.54v-4.408c.053-3.267 1.448-5.338 3.186-5.338a1.11 1.11 0 01.869.345 1.402 1.402 0 00-.737 1.222c0 .77.606 1.38 1.369 1.38.764 0 1.37-.637 1.37-1.513 0-1.62-1.238-2.655-2.686-2.655zm8.374-.052c-3.397 0-5.662 3.266-5.662 6.877 0 3.611 2.186 6.877 5.925 6.877 2.633 0 4.108-1.805 4.714-3.85l-1.133-.319c-.526 1.408-1.422 2.523-3.239 2.523-2.106 0-3.528-2.018-3.528-5.231H173v-.77c0-3.372-1.975-6.107-5.161-6.107zm-2.897 5.576c.263-2.55 1.29-4.09 2.87-4.09 1.422 0 2.344 1.355 2.449 4.09h-5.319zm-15.431 5.735v-6.85c0-2.815-1.738-4.461-4.688-4.461-2.528 0-4.766 1.673-4.766 3.584a1.35 1.35 0 001.343 1.408c.764 0 1.396-.584 1.396-1.355 0-.504-.264-.982-.711-1.22.474-.665 1.29-1.063 2.317-1.063 1.606 0 2.554 1.195 2.554 3.213v.61l-3.844 1.62c-2.581 1.063-3.45 2.018-3.45 3.718 0 1.965 1.396 3.213 3.608 3.213 1.632 0 3.081-1.036 3.66-2.576v.398c0 1.355.948 2.151 2.502 2.151.553 0 1.106-.08 1.632-.239v-.876c-1.079.133-1.553-.292-1.553-1.275zm-2.555-2.974c-.131 2.31-1.264 3.85-2.87 3.85-1.132 0-1.87-.796-1.87-1.99 0-1.063.58-1.913 1.659-2.39l3.081-1.381v1.912zm-33.97 1.886c-.368 1.088-.948 1.779-1.79 1.779-1.106 0-1.449-.797-1.449-1.753v-8.497h3.555v-1.354h-3.555v-4.036h-1.29c-.5 3.053-2.028 4.142-3.634 4.487v.93h2.396v8.762c0 2.045 1.212 3.213 3.187 3.213 1.817 0 3.028-1.354 3.555-3.266l-.975-.265zm-16.51 1.088v-6.85c0-2.815-1.739-4.461-4.688-4.461-2.528 0-4.766 1.673-4.766 3.584a1.35 1.35 0 001.343 1.408c.763 0 1.395-.584 1.395-1.355 0-.504-.263-.982-.71-1.22.473-.665 1.29-1.063 2.317-1.063 1.606 0 2.554 1.195 2.554 3.213v.61l-3.845 1.62c-2.58 1.063-3.45 2.018-3.45 3.718 0 1.965 1.396 3.213 3.608 3.213 1.633 0 3.081-1.036 3.66-2.576v.398c0 1.355.949 2.151 2.502 2.151.553 0 1.106-.08 1.633-.239v-.876c-1.053.133-1.554-.292-1.554-1.275zm-2.529-2.974c-.131 2.31-1.264 3.85-2.87 3.85-1.132 0-1.87-.796-1.87-1.99 0-1.063.58-1.913 1.66-2.39l3.08-1.381v1.912zm40.554 3.745c-2.107 0-3.529-2.019-3.529-5.232 0-3.266 1.396-5.337 3.502-5.337.948 0 1.659.319 2.107.903a1.467 1.467 0 00-.658 1.195c0 .77.605 1.38 1.369 1.38.79 0 1.369-.637 1.369-1.513 0-1.566-1.553-3.505-4.345-3.505-3.871 0-6.109 3.266-6.109 6.877 0 3.585 2.186 6.878 5.925 6.878 2.581 0 4.029-1.726 4.608-3.691l-1.132-.345c-.474 1.354-1.343 2.39-3.107 2.39zm-31.442-1.063V34.74l-4.424.372v.876l.579.027c.79.026 1.29.451 1.29 1.54v13.41c0 1.115-.553 1.486-1.422 1.54l-.395.026v.903h6.162v-.876l-.368-.027c-.869-.08-1.422-.478-1.422-1.567zm22.804 0v-7.17c0-2.044-1.237-3.743-3.713-3.743-1.738 0-3.265 1.036-3.844 2.92v-8.23l-4.424.371v.876l.579.027c.79.026 1.29.451 1.29 1.54v13.41c0 1.115-.553 1.486-1.422 1.54l-.395.026v.903h6.136v-.876l-.369-.027c-.895-.053-1.422-.451-1.422-1.54v-4.302c.053-3.133 1.396-5.045 3.002-5.045 1.212 0 2.028.85 2.028 2.47v6.877c0 1.115-.553 1.487-1.422 1.54l-.395.027v.902h6.162v-.902l-.369-.027c-.895-.08-1.422-.478-1.422-1.567zm-45.346-11.02c-3.397 0-5.661 3.293-5.661 6.878s2.185 6.877 5.925 6.877c2.633 0 4.108-1.805 4.713-3.85l-1.132-.319c-.527 1.408-1.422 2.523-3.239 2.523-2.107 0-3.529-2.018-3.529-5.231h8.085v-.77c0-3.372-2.002-6.107-5.162-6.107zM77.62 45.52c.263-2.55 1.29-4.09 2.87-4.09 1.422 0 2.344 1.355 2.449 4.09h-5.32z" fill="#002677"/></svg>