<svg width="188" height="65" fill="none" xmlns="http://www.w3.org/2000/svg"><path d="M23.903 28.126c-.123-1.902-.246-3.781-.326-5.659 0-.165.255-.454.44-.498 1.62-.387 3.238-.832 4.885-1.07 2.891-.431 5.83-.48 8.735-.146 1.508.178 2.976.502 4.342 1.175 2.251 1.109 3.498 2.965 3.925 5.297.278 1.53.301 3.106.384 4.664.025.467.104.657.64.656 1.35 0 2.7.04 4.048.11.539.03.727-.1.799-.654.282-2.134.858-4.191 2.025-6.053 1.256-2.053 3.248-3.586 5.596-4.305 4.449-1.402 8.961-1.492 13.433-.142 2.652.8 4.67 2.422 5.384 5.147.768 2.935.394 5.689-1.949 7.914-1.447 1.375-3.303 2.003-5.24 2.416-2.944.627-5.929.557-8.913.492-.261-.006-.523 0-.777 0-.346 2.078.75 4.712 3.094 5.878 1.91.951 3.95 1.08 6.031.898a16.444 16.444 0 006.227-1.858c.06.17.104.344.132.521.094 1.665.168 3.322.272 4.982.027.424-.1.685-.537.777-1.809.382-3.602.906-5.433 1.113-3.133.357-6.282.295-9.396-.31-2.924-.567-5.52-1.696-7.389-4.066-1.386-1.762-2.05-3.811-2.444-5.959-.101-.544-.14-1.1-.265-1.638-.04-.17-.268-.419-.42-.425-1.53-.069-3.066-.094-4.595-.136-.355-.01-.43.166-.446.475-.175 3.487-.185 6.97.138 10.451.033.357.08.703.123 1.1-.19.028-.34.064-.491.072-3.999.197-7.996.42-11.995.576-2.557.1-5.108.026-7.575-.775-3.075-1-4.856-3.073-5.242-6.174a13.204 13.204 0 01.029-3.776c.41-2.418 2.046-3.98 4.264-5.012 1.92-.893 3.967-1.349 6.072-1.519 1.748-.14 3.507-.178 5.262-.228.4-.012.563-.11.522-.504-.084-.807-.08-1.628-.245-2.418-.419-2.045-1.727-3.07-3.867-3.246-3.108-.258-5.992.464-8.772 1.731-.092.043-.184.086-.28.12a.96.96 0 01-.205.006zm39.355 4.776a12.86 12.86 0 004.152-.595c2.006-.625 2.975-2.965 2.075-4.826a3.17 3.17 0 00-1.305-1.337c-2.196-1.145-5.133-.139-6.197 2.042-.642 1.317-.756 2.735-.837 4.162-.017.292.08.438.402.45.57.026 1.14.07 1.71.104zm-26.15 11.382l-.001-5.955c0-.257 0-.515.01-.772.008-.346-.201-.45-.51-.43-1.157.082-2.338.053-3.466.275-2.763.547-3.88 2.49-3.066 5.088.302.968.973 1.538 1.935 1.8 1.685.454 3.379.31 5.097-.006zm76.136 5.038h-9.573c.336-9.283.412-18.537-.016-27.819.888-.049 1.742-.08 2.592-.144 2.87-.22 5.735-.509 8.607-.663 3.099-.167 6.209-.276 9.241.607 3.803 1.106 5.52 3.406 5.936 6.98.237 2.015.123 4.07.158 6.107.053 3.626.082 7.254.148 10.876.021 1.108.134 2.213.199 3.32.013.23 0 .464 0 .73h-9.541a4.004 4.004 0 01-.045-.489c.1-4.078.245-8.157.291-12.236.025-2.155-.03-4.32-.191-6.47-.206-2.734-1.404-3.837-4.216-3.894-1.126-.022-2.258.267-3.386.418-.35.047-.444.259-.444.594.016 6.081.011 12.162.039 18.243 0 1.087.131 2.173.199 3.26.012.164.002.344.002.58zm23.761-21.097c-.092-1.684-.19-3.277-.261-4.875-.058-1.283-.065-1.378 1.263-1.658 2.027-.424 4.077-.82 6.139-1.014 2.477-.238 4.977-.223 7.45.192 2.371.399 4.552 1.16 6.036 3.15a8.076 8.076 0 011.606 4.49c.122 2.488.13 4.986.066 7.477-.104 4.059-.315 8.116.094 12.17l.123 1.2c-.614 0-1.162-.023-1.704 0-2.691.136-5.38.304-8.072.428-3.199.148-6.399.381-9.567-.42-3.492-.882-5.601-3.187-6.019-6.67-.212-1.755-.199-3.477.62-5.113.951-1.895 2.597-3.014 4.549-3.758 2.523-.96 5.174-1.264 7.86-1.342.9-.026 1.799-.042 2.698-.046.276 0 .513-.023.475-.367-.123-1.077-.123-2.19-.418-3.22-.468-1.63-1.822-2.439-3.713-2.588-3.019-.238-5.832.443-8.547 1.649-.186.091-.37.176-.678.315zm13.17 16.053a.711.711 0 00.063-.166c0-2.175-.013-4.35-.01-6.525 0-.38-.212-.484-.545-.462-1.115.078-2.248.067-3.341.26-2.415.431-3.504 1.769-3.386 3.975.094 1.757.954 2.774 2.655 3.058 1.516.253 3.068.205 4.564-.14zm-50.665-.996c.123 1.863.246 3.678.377 5.494.02.29.023.543-.38.615-3.544.623-7.09.974-10.593-.177-2.418-.795-3.917-2.48-4.501-4.86a14.52 14.52 0 01-.397-3.403c0-4.281.058-8.562.122-12.843.009-.57-.15-.772-.75-.742-.828.044-1.661.012-2.563.012 0-1.498-.016-2.92.026-4.34 0-.133.358-.32.576-.37 1.686-.386 3.234-1.004 4.372-2.335 1.138-1.33 1.636-2.905 1.98-4.55.123-.579.213-1.163.323-1.783h5.315l-.332 7.46h.783c1.514 0 3.026.01 4.538 0 .39 0 .547.103.544.5-.016 1.645-.016 3.29 0 4.936 0 .405-.177.497-.554.494-1.574-.014-3.148.011-4.721-.014-.507-.007-.664.152-.661.646.02 3.686-.022 7.372.038 11.058.016 1.013.236 2.042.504 3.028.221.81.891 1.292 1.747 1.512 1.259.322 2.26.257 4.207-.338zm64.656-20.972c0 .567.017 1.136-.01 1.703-.008.156-.145.307-.222.46-.065-.142-.182-.285-.185-.43-.019-.731-.008-1.464-.001-2.195 0-.096.018-.194.027-.312.457-.183.723-.073.869.396.191.62.429 1.225.646 1.838l.177.016c.234-.634.463-1.269.703-1.902.176-.466.182-.464.829-.34 0 .872.007 1.758-.01 2.644 0 .098-.142.193-.219.289-.065-.102-.183-.202-.187-.306-.017-.622-.009-1.246-.009-1.869l-.163-.03c-.236.616-.463 1.237-.718 1.847-.058.14-.215.238-.327.357-.099-.11-.238-.206-.292-.334-.253-.615-.484-1.24-.723-1.859l-.185.026zm-1.234-.02a3.1 3.1 0 01-.432-.209c-.111-.078-.182-.25-.297-.277-.368-.084-.84-.238-1.022.22-.197.489.27.566.625.665.238.058.472.128.702.21.614.246.801.986.267 1.328-.362.238-.912.268-1.372.249-.46-.02-.776-.318-.858-.964.229.13.368.202.5.284.212.132.405.34.634.389.36.076.793.073.908-.377.123-.495-.31-.57-.664-.672a6.26 6.26 0 01-.763-.217c-.613-.265-.67-.95-.134-1.336.71-.502 1.691-.196 1.906.706z" fill="#7D3F98"/></svg>