<svg width="188" height="65" fill="none" xmlns="http://www.w3.org/2000/svg"><path d="M50.68 28.554c0 .426-.454.897-1.044 1.614-2.02 2.444-6.493 6.794-6.493 17.578 0 5.582.93 7.891.93 10.514 0 1.189-.25 1.817-.862 1.817-1.43 0-3.837-5.897-3.837-12.937 0-14.775 9.445-18.9 10.898-18.9.295-.022.408.135.408.314zm-23.77-.336c1.452 0 10.897 4.125 10.897 18.9 0 7.062-2.407 12.936-3.837 12.936-.636 0-.863-.628-.863-1.816 0-2.623.931-4.932.931-10.515 0-10.784-4.495-15.133-6.493-17.577-.59-.718-1.045-1.188-1.045-1.614-.022-.157.114-.314.41-.314z" fill="#0982C6"/><path d="M35.151 31.177c0 1.928 1.544 3.498 3.451 3.498 1.908 0 3.451-1.57 3.451-3.498 0-1.928-1.543-3.497-3.45-3.497-1.93 0-3.452 1.57-3.452 3.497z" fill="#F8971F"/><path d="M68.05 53.126c-4.905-2.981-12.375-6.075-23.182-7.062-.022.135-.113.92-.113 1.681 0 .36.068.83.068.92 10.557.672 18.072 2.892 23.158 4.685.09.045.204.09.25.09.045 0 .09-.045.09-.09.023-.067-.067-.112-.272-.224zm-23.863-39.84c-.817-.74-1.521-1.86-.976-3.565.522-1.636 1.794-2.96 3.133-3.34.908 1.053 1.203 2.87.681 4.506-.522 1.726-1.725 2.265-2.838 2.4zm7.97 6.547c-.296-1.01-.273-2.265 1.066-3.386 1.272-1.053 2.997-1.502 4.291-1.098.182 1.323-.522 2.937-1.793 3.99-1.34 1.122-2.611.942-3.565.494zm.249 9.865c.34-.987 1.044-1.996 2.747-2.175 1.612-.18 3.27.426 4.087 1.435-.59 1.166-2.066 2.085-3.678 2.264-1.703.202-2.611-.628-3.156-1.524zm-2.883 3.587c.544-.74 1.43-1.413 2.906-1.121 1.43.269 2.656 1.21 3.087 2.286-.817.852-2.315 1.256-3.746.965-1.475-.292-2.02-1.233-2.247-2.13zm-8.673-9.35c-1-.874-1.817-2.219-1.18-4.282.612-1.973 2.133-3.564 3.768-3.99 1.09 1.255 1.453 3.43.817 5.403-.635 2.062-2.089 2.713-3.405 2.87zm3.791 2.175c-.318-1.143-.295-2.556 1.204-3.811 1.43-1.188 3.383-1.682 4.813-1.233.204 1.48-.59 3.296-2.02 4.484-1.5 1.278-2.907 1.076-3.997.56zm2.52-7.981c-.726-1.144-1.157-2.668.046-4.529 1.158-1.749 3.11-2.915 4.813-2.892.727 1.547.454 3.766-.704 5.515-1.203 1.883-2.792 2.108-4.155 1.906zm5.109 6.95c.022-1.256.454-2.668 2.338-3.52 1.794-.807 3.928-.74 5.245.135-.227 1.569-1.567 3.183-3.36 3.99-1.885.83-3.27.202-4.223-.605zM35.81 10.685c0-2.376 1.135-4.663 2.792-5.694 1.657 1.031 2.77 3.318 2.77 5.694 0 2.489-1.385 3.677-2.77 4.327-1.408-.65-2.793-1.838-2.793-4.327zM8.836 53.35c0 .045.023.09.09.09.046 0 .137-.045.25-.09 5.086-1.793 12.624-4.013 23.159-4.685.022-.09.068-.56.068-.92 0-.762-.091-1.546-.114-1.681-10.807.986-18.277 4.08-23.18 7.062-.182.112-.273.157-.273.224zm21.296-42.463c-.522-1.636-.227-3.453.681-4.506 1.363.358 2.634 1.704 3.134 3.34.544 1.704-.16 2.825-.977 3.565-1.09-.134-2.293-.672-2.838-2.399zM21.46 19.34c-1.271-1.077-1.975-2.668-1.793-3.991 1.294-.404 3.02.022 4.29 1.098 1.34 1.121 1.363 2.377 1.068 3.386-.976.448-2.225.628-3.565-.493zm.16 11.904c-1.635-.179-3.111-1.098-3.679-2.264.818-1.031 2.475-1.614 4.087-1.435 1.703.18 2.407 1.188 2.747 2.175-.545.874-1.453 1.704-3.156 1.524zm3.768 4.17c-1.43.27-2.929-.134-3.723-.964.431-1.076 1.657-2.017 3.088-2.286 1.498-.292 2.36.38 2.906 1.12-.227.898-.772 1.84-2.27 2.13zm7.515-14.348c-.613-1.973-.272-4.148.818-5.403 1.634.426 3.156 2.04 3.769 3.99.635 2.063-.182 3.386-1.181 4.283-1.317-.157-2.747-.808-3.406-2.87zm-4.359 4.506c-1.43-1.188-2.225-3.004-2.02-4.484 1.453-.448 3.382.045 4.813 1.233 1.498 1.256 1.52 2.668 1.203 3.812-1.09.493-2.497.695-3.996-.56zm-2.702-9.304c-1.158-1.749-1.43-3.99-.704-5.515 1.726-.023 3.678 1.12 4.814 2.892 1.203 1.838.772 3.385.045 4.529-1.34.157-2.929-.068-4.155-1.906zm-5.154 9.394c-1.793-.807-3.155-2.421-3.36-3.99 1.34-.875 3.451-.942 5.245-.135 1.884.852 2.316 2.264 2.338 3.52-.953.83-2.338 1.457-4.223.605z" fill="#56B948"/><path d="M129.282 46.087V32.41c0-1.838-.181-5.336-.227-6.143h4.291l.205 2.78h.09c.5-.784 2.112-3.228 5.858-3.228 4.518 0 7.038 3.273 7.038 7.376v12.87h-4.79V34.136c0-2.511-1.431-4.417-3.86-4.417-2.52 0-3.86 1.995-3.86 4.417v11.927h-4.745v.023zm-27.971-19.753h-4.79v19.753h4.79V26.334zm68.248 19.753c-.159-1.1-.613-4.014-.613-6.525V26.716c-.749-.18-3.474-.897-6.584-.897-8.105 0-11.602 5.358-11.602 11.165 0 5.336 2.725 9.529 7.924 9.529 3.814 0 5.517-2.444 6.153-3.722h.113c.046.605.227 2.713.273 3.296h4.336zm-5.381-9.798c0 4.529-1.793 6.412-4.382 6.412-2.611 0-4.086-2.197-4.086-6.03 0-3.924 2.293-7.175 6.493-7.175.863 0 1.476.09 1.998.202v6.591h-.023zm-72.426 4.955c-1.294.605-3.383 1.009-5.403 1.009-5.495 0-9.559-3.879-9.559-9.798 0-5.874 4.019-9.797 9.559-9.797 2.747 0 4.7.65 5.403.986v-4.237c-1.203-.449-3.156-.897-5.903-.897-8.537 0-14.28 5.83-14.28 13.923 0 7.667 5.29 13.922 14.28 13.922 2.634 0 4.61-.403 5.903-.874v-4.237zm27.586 2.466v1.48c0 4.035-2.52 5.605-5.654 5.605-2.815 0-4.881-.83-5.539-1.054v3.99c.545.135 2.815.853 6.062.853 5.789 0 9.649-2.355 9.649-10.426v-17.42c-.749-.18-3.451-.897-6.584-.897-8.106 0-11.602 5.359-11.602 11.165 0 5.336 2.724 9.529 7.924 9.529 3.428 0 5.085-2.04 5.63-2.803h.114v-.022zm-.25-7.421c0 4.529-1.794 6.412-4.405 6.412s-4.086-2.197-4.086-6.03c0-3.924 2.27-7.175 6.493-7.175.863 0 1.476.09 1.998.202v6.591zM95.953 21.155c0 1.592 1.316 2.87 2.974 2.87 1.634 0 2.951-1.278 2.951-2.87 0-1.591-1.317-2.87-2.951-2.87-1.635 0-2.975 1.301-2.975 2.87zm82.415 24.349a2.608 2.608 0 01-1.884.784c-.75 0-1.363-.269-1.885-.784a2.523 2.523 0 01-.772-1.861c0-.718.25-1.346.772-1.861.522-.516 1.135-.762 1.885-.762.726 0 1.362.246 1.884.762.522.516.772 1.12.772 1.86 0 .718-.25 1.346-.772 1.861zm-3.519-3.476c-.454.449-.659.965-.659 1.592 0 .628.227 1.166.659 1.614.454.449.976.673 1.612.673.636 0 1.18-.224 1.612-.672.454-.449.658-.987.658-1.615a2.17 2.17 0 00-.658-1.592 2.23 2.23 0 00-1.612-.672 2.427 2.427 0 00-1.612.672zm1.566.157c.364 0 .636.045.795.112.295.113.454.36.454.74 0 .27-.091.449-.295.56-.091.068-.25.113-.431.135.227.045.386.135.499.292a.72.72 0 01.159.448v.426c0 .067.023.135.023.157l.022.045h-.476v-.359c0-.336-.091-.56-.273-.65-.113-.067-.295-.09-.567-.09h-.409v1.144h-.522v-2.892h1.021v-.068zm.568.449c-.136-.068-.341-.112-.636-.112h-.431v1.053h.477c.227 0 .386-.022.499-.067.205-.09.295-.224.295-.448-.022-.202-.068-.359-.204-.426z" fill="#0982C6"/></svg>