<svg width="85" height="85" fill="none" xmlns="http://www.w3.org/2000/svg"><rect x="4.491" y="4.491" width="76.017" height="76.017" rx="38.009" fill="#FCFCF0" stroke="#F87C56" stroke-width="6"/><rect x="6.465" y="6.465" width="72.07" height="72.07" rx="36.035" fill="#FCFCF0" stroke="#2D2A26"/><g clip-path="url(#clip0_5507_1414)" fill="#2D2A26"><path d="M45.023 15.549c.102-.697.594-.946 1.552-.8.958.147 1.36.528 1.258 1.222-.101.694-.603.96-1.554.806-.95-.153-1.358-.525-1.256-1.228zm14.234 6.984c-.563.915-1.497 1.246-2.71.48l-4.881-3.091 3.333-5.418 4.698 2.977c1.211.768 1.2 1.632.71 2.429a1.857 1.857 0 01-1.067.787 1.823 1.823 0 01-.083 1.836zm-1.33-.938c.353-.571.017-.785-.35-1.018l-3.172-2.009-.71 1.145 3.178 2.011c.366.24.702.445 1.055-.13zM55.062 17.5l2.838 1.793c.367.24.71.444 1.048-.12.339-.564 0-.77-.366-1.008l-2.839-1.79-.681 1.125zm8.492 10.902l-1.044.893-4.198-4.995 4.788-4.145 1.047 1.25-3.754 3.25 3.16 3.747zm1.88-.542c1.916-.836 3.432-.185 4.525 2.4 1.093 2.585.504 4.147-1.403 4.98-1.906.833-3.454.185-4.544-2.4-1.09-2.585-.504-4.14 1.422-4.98zm2.484 5.866c1.17-.511 1.461-1.352.794-2.928-.667-1.577-1.46-1.945-2.64-1.429-1.18.516-1.476 1.366-.814 2.933.663 1.568 1.477 1.94 2.66 1.424zm.904 2.64c2.079-.142 3.297.982 3.482 3.785.184 2.804-.885 4.08-2.957 4.222-2.073.142-3.312-.99-3.501-3.785-.19-2.794.884-4.083 2.975-4.222zm.418 6.37c1.273-.086 1.822-.782 1.71-2.493-.11-1.712-.74-2.326-2.022-2.24-1.282.087-1.84.792-1.727 2.494.114 1.702.75 2.326 2.04 2.24zm-2.043 10.331c-2.065-.569-2.662-2.234-2.236-3.828l1.197-4.472 6.073 1.68-1.204 4.465c-.421 1.594-1.767 2.736-3.83 2.155zm.423-1.584c1.474.408 1.942-.334 2.264-1.529l.613-2.29-3.452-.96-.615 2.288c-.319 1.207-.284 2.085 1.19 2.496v-.005zm-3.58 6.214c.541.437.508.994-.095 1.764s-1.13.93-1.672.48c-.542-.448-.51-1.005.09-1.769.598-.763 1.128-.924 1.677-.475zm-13.07 9.028c-.5-.96-.319-1.937.947-2.621l5.072-2.756 2.969 5.631-4.883 2.64c-1.258.684-1.992.24-2.43-.583a1.914 1.914 0 01-.139-1.332 1.757 1.757 0 01-.9-.276 1.793 1.793 0 01-.635-.703zm1.465-.703c.315.595.662.407 1.043.199l3.298-1.788-.63-1.2-3.295 1.79c-.38.216-.73.406-.416.999zm4.925-.48l-2.94 1.596c-.381.206-.731.396-.421.984s.655.388 1.043.177l2.94-1.596-.622-1.162zM43.822 67.57l-.237-1.354 6.366-1.186 1.133 6.28-1.59.294-.89-4.922-4.782.888zm-.473 1.92c-.237 2.1-1.555 3.12-4.306 2.784-2.751-.336-3.785-1.627-3.548-3.72.236-2.093 1.563-3.12 4.305-2.801 2.742.319 3.785 1.617 3.549 3.737zm-6.25-.744c-.15 1.286.425 1.96 2.103 2.16 1.677.2 2.389-.312 2.538-1.608.149-1.296-.43-1.98-2.1-2.177-1.671-.197-2.404.319-2.553 1.615l.011.01zm-2.716-.526c-.918 1.901-2.486 2.4-4.968 1.174-2.482-1.227-3.044-2.813-2.129-4.707.915-1.894 2.503-2.422 4.98-1.2 2.476 1.221 3.04 2.825 2.117 4.733zm-5.652-2.81c-.56 1.163-.236 1.992 1.275 2.748 1.512.756 2.366.51 2.922-.66.556-1.172.236-2.014-1.266-2.763-1.502-.749-2.365-.497-2.93.674zm-7.797-6.978c1.519-1.53 3.241-1.22 4.386-.046l3.217 3.289-4.468 4.498-3.215-3.291c-1.148-1.171-1.439-2.921.08-4.45zm1.14 1.166c-1.086 1.092-.688 1.875.173 2.753l1.656 1.68 2.54-2.556-1.655-1.68c-.861-.88-1.63-1.289-2.714-.197zm-3.522-6.233c-.644.26-1.103-.048-1.46-.96-.357-.912-.236-1.457.414-1.714.65-.257 1.114.053 1.467.96.352.907.23 1.452-.421 1.714zm-1.173-16.003c1.06.036 1.814.69 1.77 2.139l-.185 5.835-6.288-.204.175-5.614c.045-1.44.788-1.873 1.712-1.844.454.024.884.216 1.207.54.168-.275.407-.499.69-.649.282-.15.6-.22.919-.203zm-2.182 6.205l.107-3.382c.014-.437.026-.838-.63-.86-.654-.021-.66.38-.673.826l-.107 3.382 1.303.034zm2.05-4.56c-.666-.022-.677.379-.692.816l-.118 3.792 1.33.043.118-3.792c.014-.442.026-.843-.639-.86zm2.987-8.361l1.28.461-2.162 6.19-5.931-2.131.54-1.548 4.65 1.68 1.623-4.652zm-1.403-1.376c-1.67-1.264-1.876-2.923-.22-5.174 1.656-2.252 3.288-2.516 4.954-1.255 1.665 1.26 1.892 2.942.236 5.184s-3.293 2.518-4.97 1.246zm3.764-5.114c-1.022-.775-1.893-.61-2.896.766-1.003 1.375-.93 2.253.1 3.034 1.029.78 1.892.612 2.91-.754 1.017-1.366.917-2.266-.114-3.046zm1.793-2.117c-1.166-1.755-.82-3.387 1.474-4.96 2.294-1.571 3.924-1.276 5.086.48 1.161 1.758.823 3.41-1.465 4.977-2.287 1.567-3.924 1.267-5.095-.497zm5.218-3.57c-.71-1.075-1.582-1.2-2.985-.24-1.403.96-1.61 1.818-.892 2.9.72 1.083 1.602 1.215 2.995.262 1.393-.953 1.613-1.841.883-2.921zm9.849-3.374c.547 2.1-.577 3.456-2.15 3.879l-4.417 1.183-1.604-6.173 4.414-1.184c1.571-.422 3.21.197 3.757 2.295zm-1.564.42c-.39-1.5-1.256-1.541-2.439-1.224l-2.259.605.913 3.511 2.26-.607c1.182-.317 1.916-.787 1.525-2.285z"/></g><g clip-path="url(#clip1_5507_1414)"><path d="M53.122 32.49l-7.264-4.194a.932.932 0 10-.932 1.614l7.264 4.194a.932.932 0 00.932-1.614z" fill="#D1E7F8"/><path d="M46.778 42.548l-6.175 10.695a3.728 3.728 0 01-6.457-3.728l6.407-11.099.428.284c.607.473.588.84 1.491 1.362.364.222.77.365 1.193.42.423.055.83.198 1.193.42.904.522.884.89 1.492 1.362.136.104.279.2.428.284z" fill="#D80027"/><path d="M51.787 33.871l-5.01 8.677-.427-.284c-.607-.472-.588-.84-1.492-1.362a3.046 3.046 0 00-1.192-.42 3.05 3.05 0 01-1.193-.42c-.904-.521-.884-.89-1.492-1.362a3.78 3.78 0 00-.428-.284l4.777-8.273 6.457 3.728z" fill="#BDDBFF"/><path d="M40.553 38.416c.148.085.291.18.427.284l-.427-.284zm6.224 4.132a3.778 3.778 0 01-.427-.284l.427.284z" fill="#E0E0E2"/><path d="M40.98 38.7l-.427-.284c.148.085.291.18.427.284zm5.797 3.848a3.778 3.778 0 01-.427-.284l.427.284z" fill="#E0E0E2"/><path d="M53.355 32.086l-7.264-4.194a1.398 1.398 0 00-1.398 2.422L33.74 49.282a4.194 4.194 0 107.265 4.194l10.95-18.968a1.398 1.398 0 001.399-2.422zM40.199 53.01a3.262 3.262 0 01-5.65-3.262l6.159-10.669c.165.135.314.288.444.456a3.5 3.5 0 001.087.931c.412.25.872.412 1.35.476a2.965 2.965 0 011.868 1.079c.2.257.433.485.695.677L40.199 53.01zm6.422-11.125a2.764 2.764 0 01-.444-.456 3.895 3.895 0 00-2.436-1.407 2.966 2.966 0 01-1.869-1.079 3.486 3.486 0 00-.694-.677L45.5 30.78l5.65 3.262-4.529 7.843zm5.802-8.184l-7.264-4.195a.466.466 0 01.466-.807l7.264 4.194a.466.466 0 01-.466.808z" fill="#2D2A26"/><path d="M45.375 32.86l1.614.932a.466.466 0 10.466-.807l-1.614-.932a.466.466 0 10-.466.807zm-.699 1.21l1.614.933a.466.466 0 00.466-.807l-1.614-.932a.466.466 0 00-.466.807zm-.699 1.211l1.614.932a.466.466 0 00.466-.807l-1.614-.932a.466.466 0 10-.466.807z" fill="#2D2A26"/></g><defs><clipPath id="clip0_5507_1414"><path fill="#fff" transform="translate(12.676 12.675)" d="M0 0h59.649v59.649H0z"/></clipPath><clipPath id="clip1_5507_1414"><path fill="#fff" transform="rotate(30 -22.773 80.186)" d="M0 0h29.825v29.825H0z"/></clipPath></defs></svg>