<svg width="132" height="132" fill="none" xmlns="http://www.w3.org/2000/svg"><g clip-path="url(#clip0_5507_3136)"><path d="M101.26 12.962c-18.704-3.035-37.105 8.062-41.144 27.293a29114.67 29114.67 0 00-3.162 15.067l-15.315-3.267C23.807 48.253 3.469 60.703.491 79.349c-3.01 18.851 8 37.396 27.083 41.466l46.702 9.965c.823.21 1.656.397 2.504.534 17.83 3.804 38.168-8.648 41.146-27.295l10.417-49.59c3.774-17.969-8.581-38.467-27.083-41.467z" fill="#ED1C24"/><path d="M129.486 46.027c.136-.202.372-.302.521-.497.149-.195.446-.187.683-.084.202.08.223.562.035.763-.063.071-.175.1-.251.163-.077.064-.112.154.044.2.157.048.341.126.512.188.173.06.331.157.465.283.171.173.404.375.318.615a.867.867 0 01-.657.578c-.204.037-.399.045-.453-.25-.062-.326-.278-.013-.304-.04-.186-.171-.416-.318-.455-.61-.026-.188.096-.375.044-.529-.03-.094-.279 0-.424-.124-.275-.23-.309-.384-.078-.656zm-9.704 12.255c.325.276.372.859.058 1.279-.27.358-.903.49-1.26.253a.733.733 0 01-.31-.504 2.748 2.748 0 01-.04-.608c.021-.51.255-.725.771-.693.284-.009.563.089.781.273zm8.393-11.844c.456.22.353.667.336 1.085a.293.293 0 01-.1.21 1.205 1.205 0 01-.924.29 1.198 1.198 0 01-.836-.49.518.518 0 010-.67c.248-.332.61-.513.947-.729a.205.205 0 01.27.038c.095.076.184.159.307.266zm-6.166 17.609c.21-.236.467-.4.787-.335s.476.356.53.667c.04.219.049.443.024.664-.069.527-.614.883-1.06.686-.372-.163-.488-.538-.53-.892a1.003 1.003 0 01.249-.79zm1.274-6.32c.372.32.45.537.35.795a.98.98 0 01-.845.598c-.11 0-.136-.073-.141-.155a.327.327 0 00-.186-.289c-.17-.062-.086.133-.151.188-.065.054-.11 0-.139-.047a.98.98 0 01-.112-.984c.125-.291.511-.42.891-.291.117.05.229.111.333.185zm-.042-5.189c.077.121.146.247.209.375.089.223.236.467.059.69-.177.223-.405.026-.612-.013-.206-.04-.372-.16-.588-.096-.147.044-.321.148-.446-.018-.186-.24-.419-.452-.437-.786 0-.157.091-.223.227-.215.182.002.363.025.539.069.268.075.519.22.774-.047.069-.073.19-.013.275.041zm3.288 26.062a.448.448 0 01.299-.172.442.442 0 01.331.094c.145.102.272.276.426.017a.067.067 0 01.056 0 .985.985 0 01.318.75.503.503 0 01-.372.5 1.083 1.083 0 01-.878-.067.722.722 0 01-.18-1.123zm-1.777-22.61c-.019.015.035-.049.104-.088.249-.14.66.015.889.326.255.345.294.793.09 1.012a.869.869 0 01-.947.16c-.16-.083-.078-.203-.104-.31-.026-.107.085-.405-.253-.28-.073.027-.09-.115-.08-.187.026-.239.132-.462.301-.633zm4.947-3.302c.481.431.483.9.044 1.215a.44.44 0 01-.673-.105c-.101-.135-.143-.253-.361-.161-.088.038-.127-.188-.16-.29a.706.706 0 01.186-.784c.249-.205.541-.094.807.017.058.028.11.064.157.108zm-2.324 19.862a.713.713 0 01.558-.248c.186.013.356.045.372.3.014.187.023.435.343.304.011 0 .067.048.07.08a.953.953 0 01-.245.786.491.491 0 01-.567.07 1.117 1.117 0 01-.633-.537.594.594 0 01.102-.756zm3.879-20.612a.47.47 0 01-.323.22.472.472 0 01-.378-.094 1.166 1.166 0 01-.488-.67.552.552 0 01.186-.648.645.645 0 01.78-.068c.048.03.115.074.123.119.031.213-.09.5.277.547a.418.418 0 010 .172.861.861 0 01-.177.422zm-12.795 24.01c.035-.208.227-.262.372-.35.061-.038.203-.06.225-.028.205.292.542.302.826.427.158.07.186.255.128.43a.304.304 0 01-.327.217c-.372 0-.761 0-1.138-.019-.151-.01-.313-.037-.372-.251-.06-.214.078-.25.186-.34a.859.859 0 00.1-.086zm10.271-13.56a.75.75 0 01.281.398c.042.225.031.399-.244.451-.136.027-.26.107-.396.135-.348.068-.601-.022-.685-.224a.89.89 0 01.186-.85.635.635 0 01.729-.011 1.4 1.4 0 01.129.101zm-6.729 20.673a.558.558 0 01.643-.2.424.424 0 01.354.425c0 .263 0 .533-.255.701a1.096 1.096 0 01-.869.105c-.186-.037-.227-.213-.186-.388.045-.238.153-.46.313-.643zm2.073-8.432c.385.324.347.66-.099.884-.054.027-.11.055-.166.075-.412.149-.591.128-.697-.073a.788.788 0 01-.057-.466.773.773 0 01.221-.415c.303-.26.494-.26.798-.005zm-7.107-5.069a.658.658 0 01.714-.119c.235.152.408.563.33.79a.276.276 0 01-.209.187c-.21.06-.43.076-.647.05-.409-.063-.515-.22-.35-.594.049-.103.108-.208.162-.315zm9.779-16.808c-.089-.336-.387-.605-.361-.997a.217.217 0 01.085-.154.203.203 0 01.17-.034c.238.037.47.1.694.188.195.08.195.29.041.705-.097.258-.286.391-.495.346a.491.491 0 00-.134-.054zm2.902 12.186a2.34 2.34 0 01.339-.22.244.244 0 01.207-.018.246.246 0 01.145.15c.031.075.054.153.07.232.041.214.212.508.019.626-.246.148-.54.192-.819.124-.256-.067-.329-.268-.169-.506.088-.118.158-.25.208-.388zm-3.686 9.629c.284.24.256.437-.066.596-.124.06-.243.137-.372.187a.504.504 0 01-.461 0c-.281-.187-.125-.425-.045-.645.08-.219.105-.474.421-.374.19.037.369.118.523.236zm5.792-21.527a.816.816 0 01.095.085c.173.167.218.336.013.516-.076.065-.124.166-.204.223-.149.099-.298.2-.501.103-.203-.098-.136-.259-.126-.416 0-.12-.025-.246 0-.364.026-.158.052-.338.228-.401.177-.064.298.058.495.255zm-6.771 32.46c.104.218.372.31.443.563.067.213.015.375-.199.414a2.26 2.26 0 01-.596.015.223.223 0 01-.207-.153.233.233 0 01-.012-.09c.015-.218-.043-.438.071-.655.113-.218.297-.29.5-.094zm-2.781-8.376c.144-.084.272-.229.484-.156.212.073.128.233.171.358a.38.38 0 01.019.059c.048.256.175.562-.071.738-.246.176-.474-.126-.705-.221a.245.245 0 01-.105-.063.258.258 0 01-.063-.106.257.257 0 01.049-.234c.074-.12.145-.244.221-.375zm.472 2.893l.298-.2c.186-.117.357-.108.459.097.102.204.43.416.229.693-.151.208-.437.118-.672.085-.057 0-.115-.034-.173-.045-.368-.083-.435-.293-.141-.63zm1.968-25.337c-.128-.145-.372-.263-.232-.496a.81.81 0 01.603-.455.241.241 0 01.282.247c.011.16.006.321-.014.48-.025.152 0 .349-.186.422-.194.088-.324-.064-.453-.199zm.223-8.471a.486.486 0 01.559-.043.362.362 0 01.088.117.373.373 0 01-.288.535.368.368 0 01-.252-.061.475.475 0 01-.107-.548zm6.688 9.751a.758.758 0 01.061.562c-.089.116-.385.092-.541-.045a.297.297 0 01-.141-.218.299.299 0 01.081-.247.488.488 0 01.54-.052zm-6.803 2.506a.427.427 0 01.06.482c-.06.139-.391.156-.539.049a.316.316 0 01-.142-.217.312.312 0 01.069-.25.398.398 0 01.552-.064zm5.67 3.75a.378.378 0 01-.056-.51c.129-.13.28-.25.479-.109.167.12.215.467.07.594-.145.128-.338.064-.493.025zm-15.659 7.221a.432.432 0 01.539.081.32.32 0 01-.018.442.371.371 0 01-.499-.033.346.346 0 01-.022-.49zm6.275 6.374c-.168-.168-.186-.375-.05-.511a.394.394 0 01.539.062c.117.135.164.292 0 .416-.147.108-.288.27-.489.033zm1.995-3.217a.327.327 0 01.428-.075.36.36 0 01.104.11.349.349 0 01.031.293.345.345 0 01-.077.13c-.134.161-.29.118-.434.035a.36.36 0 01-.087-.105.349.349 0 01.035-.388zm-.617-10.06a.461.461 0 01.558.02c.106.106.052.344-.111.473a.345.345 0 01-.445.021c-.074-.056-.063-.46-.002-.514zm-2.22 20.803a.36.36 0 01.129.227.362.362 0 01-.056.257c-.095.091-.424.114-.495.026a.387.387 0 01-.061-.499.35.35 0 01.483-.011zM128.366 41a.38.38 0 01.06.441.373.373 0 01-.525.119.244.244 0 01-.056-.327c.088-.172.398-.307.521-.232zm-4.339 18.385a.326.326 0 01.076.474.297.297 0 01-.325.093.285.285 0 01-.102-.061.333.333 0 01-.135-.353.339.339 0 01.055-.121.312.312 0 01.431-.032zm-4.911 25.692a1.084 1.084 0 01.687.778.27.27 0 01-.045.223c-.069.052-.147-.028-.186-.092a2.84 2.84 0 01-.456-.91zm1.773 2.845a6.57 6.57 0 01-.404-.52c-.05-.085-.197-.201-.039-.3.123-.078.238.033.311.123a.721.721 0 01.132.697zm-2.979-7.024c-.115-.075-.141-.141-.091-.227.084-.139.197-.216.341-.1.07.057.154.143.083.26-.106.17-.243.069-.333.067zm8.174-7.582c.076-.082.162-.124.251-.03a.285.285 0 010 .385c-.067.093-.186.07-.262 0-.115-.096-.112-.222.011-.355zm-5.335-23.506a.182.182 0 01.067-.059.183.183 0 01.172 0 .187.187 0 01.066.06c.017.018.03.039.038.062a.181.181 0 01-.006.144.184.184 0 01-.043.06.222.222 0 01-.15.088.218.218 0 01-.166-.049c-.125-.105-.063-.21.022-.306zm3.607 33.188c-.053.093-.126.073-.186.022a.234.234 0 01-.102-.17.217.217 0 01.012-.1.24.24 0 01.055-.086.174.174 0 01.122-.074.166.166 0 01.135.046c.147.13.02.245-.036.362zm-4.922-13.373c-.088-.083-.157-.188-.041-.304a.195.195 0 01.273-.013c.127.086.093.225.034.326-.06.102-.171.064-.266-.01zm4.248 13.475a.14.14 0 01.04.048.14.14 0 010 .12.14.14 0 01-.04.048.281.281 0 01-.372.015.182.182 0 01-.043-.061.167.167 0 01.01-.146.157.157 0 01.05-.055.269.269 0 01.355.031zm-.111-37.236c.186-.079.294-.049.346.075.034.083.056.204-.037.266-.128.085-.225 0-.275-.116a.746.746 0 01-.034-.225zm4.133 13.272c-.058-.081-.136-.165-.076-.27.059-.105.171-.072.255-.014.083.059.163.135.087.25-.076.114-.167.09-.266.034zm-2.786 33.174a.146.146 0 01-.045.04.137.137 0 01-.167-.025c-.071-.055-.186-.123-.088-.231a.232.232 0 01.218-.045.21.21 0 01.082.26z" fill="#fff"/><path d="M122.6 63.472a.86.86 0 01.214 1.21c-.384.588-1.04.803-1.489.488-.405-.279-.569-1.124-.299-1.55.27-.426 1.045-.503 1.574-.148zm2.552-24.417c-.312.504-.744.607-1.24.3a1.13 1.13 0 01-.333-1.47c.245-.424.967-.583 1.404-.313.437.27.506.941.169 1.483zm1.983 10.004c.792.562.68 1.185.037 1.687-.331.26-.681.188-.93-.14-.088-.117-.138-.263-.231-.376-.126-.155-.337-.247-.311-.508.015-.233.096-.457.235-.645.21-.268.699-.3 1.101-.093a.982.982 0 01.099.075zm-3.666-3.128c.424.252.465.87.076 1.33a2.06 2.06 0 01-.372.331c-.612.437-.744.376-.827-.374-.015-.124-.064-.244-.09-.375-.026-.132-.069-.252.166-.197.111.028.136-.128.143-.233.009-.15-.212-.316.019-.45.23-.133.498-.24.781-.107l.104.075zm7.42 3.591a2.971 2.971 0 00-.437.506c-.22.28-.847.053-.988-.317a2.8 2.8 0 01-.145-.917.307.307 0 01.186-.302c.363-.187 1.116.036 1.365.359.179.227.143.427.019.67zm-3.263 4.132c.394.223.292.542.333.793.041.251-.186.296-.372.335a2.147 2.147 0 01-.744.017.712.712 0 01-.584-.641c.009-.206.476-.675.688-.652.229.037.456.086.679.148zm-1.709-7.857a1.148 1.148 0 01-.558-.938.507.507 0 01.337-.55.478.478 0 01.656.194.718.718 0 00.372.401c.294.101.214.35.17.527-.103.396-.622.572-.977.366zm-7.54 21.578c-.026.13-.061.25-.225.259a.318.318 0 01-.331-.238 6.193 6.193 0 01-.261-.645c-.107-.356.084-.593.57-.737.372-.11.68 0 .788.296.066.18.08.375.041.563-.024.138-.022.14-.344.232a.355.355 0 00-.238.27zm6.84-13.945c-.318.505-.779.501-1.077-.013-.043-.073-.059-.159-.098-.232-.274-.486-.01-.679.489-.673a.861.861 0 01.58.199c.257.228.289.427.106.72zm5.032-10.457c-.136.23-.523.324-.859.221a.604.604 0 01-.443-.61.25.25 0 01.197-.22c.31-.116.627-.212.949-.287.275-.054.394.096.329.375-.047.176-.119.364-.173.521zm-2.092 10.004c-.24-.135-.426-.563-.346-.77.08-.209.45-.404.684-.394a.543.543 0 01.504.562c0 .234.116.542-.128.705-.244.163-.485-.04-.714-.103zm-4.545 8.095c-.186.34-.654.534-.943.424-.288-.11-.413-.461-.336-.808a.322.322 0 01.28-.296 1.48 1.48 0 01.953.258c.184.11.054.306.046.422zm2.031-20.402c.087-.105.188-.194.302-.267.148-.073.344-.103.385.144.041.248.282.467.238.769-.045.302-.186.41-.465.337-.039 0-.075-.039-.114-.052-.589-.197-.66-.383-.346-.932zm-8.213 22.08c.357.188.372.23.147.619-.113.198-.186.468-.48.444-.294-.024-.372-.292-.402-.506-.029-.214-.316-.484-.024-.696.242-.187.482-.02.703.109l.056.03zm10.438 10.264c.212-.375.248-.388.624-.17.13.066.251.15.359.249a.31.31 0 01.097.328.31.31 0 01-.263.218 2.193 2.193 0 01-.603.15c-.416 0-.526-.173-.344-.563.039-.073.083-.144.13-.212zm-4.079-15.639c-.249-.21-.467-.336-.568-.589-.065-.168-.046-.3.095-.375.245-.114.517-.154.784-.114a.186.186 0 01.165.167c.011.225.108.446.017.68-.123.312-.289.375-.493.231zm4.375-25.004c-.204.147-.255.434-.496.563-.209.107-.384.08-.458-.135a2.49 2.49 0 01-.117-.617.236.236 0 01.05-.18.238.238 0 01.164-.088c.225-.022.439-.12.679-.037.271.082.348.253.178.494zm-7.32 16.444c.166.056.298.163.277.358-.015.158-.164.24-.284.306a2.369 2.369 0 01-.419.123.222.222 0 01-.305-.138c-.074-.272-.346-.563-.114-.823.233-.26.495-.014.728.11l.117.064zm.183-11.942c.091.075.169.146.254.204a.26.26 0 01.064.425 2.47 2.47 0 01-.216.23c-.114.117-.207.309-.394.256-.227-.064-.289-.283-.322-.495-.011-.082 0-.169 0-.25-.028-.187-.119-.374.117-.494s.335.079.497.124zm6.43 9.591a.679.679 0 01.144.8.516.516 0 01-.683.038c-.275-.2-.372-.484-.233-.694a.558.558 0 01.772-.144zm3.824 12.538c-.108.188-.744.364-.883.25a.375.375 0 01-.041-.512c.113-.146.264-.337.502-.324.121 0 .299-.028.346.086.047.163.073.33.076.5zm-5.805-3.83c-.199.287-.408.388-.569.289a.485.485 0 01-.077-.626c.121-.175.467-.26.61-.145a.293.293 0 01.14.232.295.295 0 01-.104.25zm-5.702 13.682c-.111-.125-.268-.258-.186-.474a.48.48 0 01.603-.188.433.433 0 01.082.512.384.384 0 01-.499.15zm4.183-18.419a.374.374 0 01.086.485c-.087.188-.337.285-.467.163-.13-.121-.298-.26-.186-.489a.393.393 0 01.247-.213.383.383 0 01.32.054zm4.679 4.649a.428.428 0 01-.558.135.303.303 0 01-.142-.203.303.303 0 01.053-.243c.093-.17.398-.295.536-.214a.677.677 0 01.111.525zm-5.217-19.018a.357.357 0 01.128.477c-.121.138-.273.294-.474.165a.349.349 0 01-.194-.2.354.354 0 01.008-.278.372.372 0 01.532-.163zm-3.083 15.662c.04.024.075.056.103.094a.345.345 0 01.007.395.356.356 0 01-.473.175.4.4 0 01-.179-.206.41.41 0 01-.007-.274.446.446 0 01.549-.184zm1.601 21.918a.36.36 0 01.497-.092.327.327 0 01.108.486.38.38 0 01-.541.107c-.177-.148-.127-.33-.064-.5zm3.433-11.98c.145.111.197.456.067.576-.13.12-.221.187-.383.047s-.292-.426-.21-.551a.554.554 0 01.526-.072zm2.537 16.596c.043.02.035.165-.019.305-.074.201-.361.343-.493.246a.307.307 0 01-.163-.313.309.309 0 01.039-.118c.113-.221.29-.289.636-.12zm-5.169-35.146a.352.352 0 01-.483.111.355.355 0 01-.111-.486.431.431 0 01.558-.08.38.38 0 01.036.455zm4.869-16.907a1.144 1.144 0 01-.681.844.274.274 0 01-.234 0c-.065-.064 0-.158.061-.212.245-.261.534-.475.854-.632zm-.572 39.468c.132-.14.289-.235.486-.094a.304.304 0 01.104.44.332.332 0 01-.364.157.324.324 0 01-.125-.063c-.147-.109-.244-.242-.101-.44zm-.365 5.125c.145-.259.353-.334.58-.212.114.062.117.156.051.259-.187.275-.46.401-.616.272-.123-.103-.075-.221-.015-.319zm-1.674-42.272c.146-.177.302-.346.465-.506.078-.068.173-.24.301-.092.099.116 0 .253-.076.343a.74.74 0 01-.69.255zm-9.803 26.175a.268.268 0 01.16.31.322.322 0 01-.224.336c-.055.014-.12.039-.156-.044a.836.836 0 01-.037-.55c.041-.151.171-.038.257-.052zm10.036 9.513c.113.077.199.197.117.306a.325.325 0 01-.435.125c-.108-.065-.049-.187-.021-.283.056-.197.188-.19.339-.148zm-9.605-10.381a.24.24 0 01.32-.04c.139.104.085.27.018.399a.163.163 0 01-.051.056.173.173 0 01-.213-.017c-.087-.094-.212-.218-.074-.398zm8.34 19.397a.28.28 0 01.1.176.283.283 0 01-.042.199c-.058.1-.175.078-.27.015-.095-.064-.186-.165-.106-.304a.223.223 0 01.057-.073.23.23 0 01.083-.043.215.215 0 01.178.03zm-2.774-39.777a.146.146 0 01-.077-.098.151.151 0 01.025-.122c.042-.08.091-.22.221-.129a.253.253 0 01.084.22.221.221 0 01-.253.129z" fill="#fff"/><path d="M120.268 44.07c-.056-.233.024-.465-.015-.709-.039-.243.165-.444.389-.553.186-.093.545.203.571.476-.01.098-.027.194-.049.29 0 .127.037.187.173.099.136-.089.316-.166.475-.246.156-.088.329-.14.507-.154.237-.013.531-.054.652.17a.855.855 0 01-.017.86c-.108.174-.231.322-.478.168-.248-.154-.186.188-.227.188-.246.02-.503.093-.744-.07-.153-.105-.207-.317-.35-.375-.087-.04-.186.203-.372.227-.339.05-.476-.024-.515-.371zm2.425 15.139c.413-.058.863.29.956.798.08.43-.242.979-.646 1.086a.714.714 0 01-.558-.105 2.847 2.847 0 01-.461-.375c-.354-.35-.354-.664 0-1.018.182-.211.434-.348.709-.386zM119.7 45.296c.46-.187.713.188 1.001.469a.288.288 0 01.086.212 1.195 1.195 0 01-.401.863 1.162 1.162 0 01-.901.286.502.502 0 01-.482-.439c-.075-.4.033-.783.098-1.172.021-.12.104-.157.207-.172.102-.015.234-.028.392-.047zm8.606 16.08a.816.816 0 01.277-.793c.273-.204.569-.114.828.05.184.114.35.255.493.419.334.397.23 1.029-.205 1.224-.359.163-.707 0-.99-.199a.983.983 0 01-.403-.701zm1.466-20.759a.876.876 0 01-.087.7c-.22.376-.597.398-.85.046a2.003 2.003 0 00-.383-.364c-.335-.287-.335-.29-.129-.694.123-.252.327-.455.579-.575.402-.188.703-.064.807.364.032.135.034.285.063.523zm-4.361-13.604c.004.104-.001.209-.017.312-.119.624-.723.834-1.22.429-.199-.163-.22-.311-.082-.594.069-.147.158-.285-.041-.41-.087-.055-.048-.14.011-.2.236-.236.512-.399.85-.315.339.085.458.351.499.778zm-.827 29.279c.469-.059.681.026.8.268a.97.97 0 01-.124 1.01.137.137 0 01-.104.046.14.14 0 01-.103-.046.304.304 0 00-.333-.047c-.156.083.039.15.032.229-.008.079-.075.08-.127.073a.956.956 0 01-.779-.562c-.127-.282.033-.649.372-.842.117-.056.24-.1.366-.13zm-3.744-3.385c.137.022.272.054.405.094.22.08.493.135.536.41.043.276-.247.314-.411.44-.164.125-.361.166-.456.363-.065.137-.106.334-.307.313-.29-.026-.601 0-.852-.187a.193.193 0 01-.079-.154.187.187 0 01.079-.154 2.42 2.42 0 01.404-.348c.229-.147.5-.237.476-.597-.013-.105.11-.148.205-.18zm3.473 1.167a.299.299 0 010-.133c.064-.274.445-.473.817-.437.417.043.765.307.789.601a.859.859 0 01-.51.795c-.164.062-.195-.075-.29-.127-.095-.053-.234-.326-.372 0-.03.071-.143 0-.186-.068a1.04 1.04 0 01-.248-.631zm2.132-12.679c.003-.098.012-.195.026-.291.051-.287.164-.546.456-.647.292-.101.582.034.809.244.227.21.212.307-.044.538a.293.293 0 00-.131.264c.017.09.227.15.053.274a1.111 1.111 0 01-.601.227c-.318.01-.529-.19-.568-.61zm-1.252 6.899c.627-.07.964.236.903.765a.442.442 0 01-.33.42.43.43 0 01-.189.003c-.164-.017-.276-.063-.354.158-.03.088-.21-.026-.312-.075a.693.693 0 01-.441-.654c.017-.316.29-.454.543-.576a.611.611 0 01.18-.041zm.481-1.63a.469.469 0 01-.372.597 1.106 1.106 0 01-.799-.087.534.534 0 01-.346-.562.634.634 0 01.465-.615c.052-.015.126-.035.163-.011.175.118.302.394.577.157a.41.41 0 01.126.11c.1.116.164.26.186.411zm-3.998-20.2c.595-.045.84.248.66.832-.065.209-.065.51-.372.55-.307.04-.458-.188-.62-.375a.801.801 0 01-.169-.435c-.028-.38.117-.544.501-.572zm2.613 4.366c-.274.03-.55.006-.815-.07-.387-.115-.42-.155-.335-.518a2.61 2.61 0 01.065-.229c.151-.437.276-.474.599-.142.186.187.335.36.631.28a.248.248 0 01.331.239.33.33 0 01-.245.41 1.598 1.598 0 01-.231.03zm7.435 19.346a.366.366 0 00.151.472c.08.055.061.188-.017.267a.183.183 0 01-.264.011.563.563 0 00-.516-.152c-.269.013-.427-.188-.496-.433-.069-.246-.145-.504.039-.739a.223.223 0 01.093-.07c.314-.13.965.267 1.01.644zm-11.286-11.663c.259.038.573-.075.733.25.078.163-.149.483-.48.673a.657.657 0 01-.331.106.457.457 0 00-.409.188.346.346 0 01-.145.1.371.371 0 01-.465-.16c-.108-.169.05-.29.167-.394a.238.238 0 01.162-.065c.394.058.459-.171.476-.495.009-.17.088-.197.292-.203zm-.769 3.245c-.337.047-.687-.11-.776-.34a.819.819 0 01.271-.807.31.31 0 01.103-.056c.232-.077.392.092.511.223.164.187.402.375.326.665a.421.421 0 01-.435.315zm9.276 26.916a.647.647 0 01.385-.598c.263-.071.674.075.784.278a.278.278 0 010 .28 1.69 1.69 0 01-.391.507c-.314.257-.497.229-.657-.137-.043-.107-.08-.22-.121-.33zm-.248-22.131c.03.32-.096.452-.396.42a1.236 1.236 0 01-.288-.05c-.225-.076-.46-.168-.497-.441-.028-.214.346-.563.584-.587.238-.025.45.133.545.439.032.075.032.151.052.219zm-5.401 3.947c-.299-.157-.688-.119-.952-.395a.206.206 0 01.024-.315c.182-.146.38-.272.59-.374.186-.09.336.046.533.433.123.24.093.466-.078.588a.848.848 0 00-.117.062zm-1.502-12.882c-.305-.135-.645-.188-.867-.469a.16.16 0 01-.03-.05c-.046-.231.125-.327.281-.389.199-.08.428-.356.625-.105.147.19.231.419.242.658.015.193-.106.278-.251.355zm5.002 9.417a.673.673 0 01.125-.015c.232-.015.383.062.372.33.014.098.023.197.026.296-.026.174-.052.35-.255.433-.203.082-.275-.07-.381-.188-.106-.118-.186-.144-.266-.236-.097-.122-.209-.259-.138-.431.071-.172.246-.174.517-.19zm-2.342-5.177c.162-.018.261-.03.322.079.09.13.167.268.229.413a.404.404 0 01-.112.436.259.259 0 01-.329.013c-.186-.114-.422-.088-.595-.241-.173-.154-.209-.306-.034-.434a3.3 3.3 0 01.519-.266zm-.288-5.206a.418.418 0 01-.45-.302c-.044-.172-.32-.324-.11-.525a1.058 1.058 0 01.713-.363.164.164 0 01.166.138c.072.347-.051.66-.17.97-.017.04-.102.054-.149.082zm-.867 16.65c-.186 0-.433.1-.508-.156a.804.804 0 01.069-.74.236.236 0 01.363-.043c.122.097.235.206.336.326.092.118.246.234.186.407-.07.206-.267.2-.446.206zm-2.775-23.787a.416.416 0 01.087-.267.416.416 0 01.234-.153.294.294 0 01.398.22c.051.256-.018.406-.219.464a.39.39 0 01-.5-.264zm-3.165 18.055a.478.478 0 01.343-.433.357.357 0 01.36.19.35.35 0 01.041.137.36.36 0 01-.275.392.46.46 0 01-.469-.285zm5.778-4.388a.397.397 0 01.285-.457.434.434 0 01.454.211c.046.178-.153.417-.383.454-.231.038-.326-.036-.356-.208zm5.624 5.918a.726.726 0 01.446.327c.026.14-.186.341-.387.365-.201.025-.355-.069-.372-.262a.483.483 0 01.313-.43zm-2.67 6.613a.41.41 0 01.385.272c.06.135-.145.388-.32.425a.294.294 0 01-.249-.037.303.303 0 01-.132-.216.388.388 0 01.316-.444zm1.312 14.497a.432.432 0 01.411-.343c.186.019.33.161.305.308a.372.372 0 01-.351.339.329.329 0 01-.365-.304zm.075-10.12a.46.46 0 01.383-.397c.145 0 .282.187.268.395a.349.349 0 01-.278.338c-.093.022-.373-.255-.373-.336zM115.92 41.582a.37.37 0 01.356.246.366.366 0 01-.029.288.36.36 0 01-.232.171.228.228 0 01-.269-.172c-.064-.18.04-.494.174-.533zm10.36 15.248a.312.312 0 01.251.042.315.315 0 01.139.214.29.29 0 01-.059.223.292.292 0 01-.199.111c-.173.043-.395-.095-.393-.255a.307.307 0 01.261-.336zm3.699-9.926a.372.372 0 01.272-.332c.21-.061.407.016.434.188a.328.328 0 01-.246.358.458.458 0 01-.46-.214zm-5.448-24.352c.033.02.078.031.091.06a.412.412 0 01-.285.487.242.242 0 01-.163-.047c-.073-.06-.043-.137.013-.2a.798.798 0 01.344-.3zm-7.29 30.388c-.015-.152.063-.22.201-.222a.172.172 0 01.186.188c0 .125-.039.236-.186.257-.147.02-.188-.105-.201-.223zm10.471-16.654a.262.262 0 01.216-.298.151.151 0 01.142.018.156.156 0 01.066.128c0 .144-.028.281-.204.31a.186.186 0 01-.22-.158zm1.056-3.781c-.104-.015-.186-.07-.201-.173 0-.187.112-.274.283-.292a.132.132 0 01.108.03.14.14 0 01.047.103.274.274 0 01-.046.218.269.269 0 01-.191.114zm-2.208 5.939c-.011-.1-.017-.203.108-.23.175-.044.247.074.275.217a.161.161 0 01-.028.138.154.154 0 01-.055.047.158.158 0 01-.069.019c-.142.02-.216-.05-.231-.191zm-1.045-6.034c.024-.143.068-.27.243-.262.024 0 .047.006.068.015.022.01.041.024.056.042a.164.164 0 01.04.13.247.247 0 01-.221.231c-.116.032-.168-.061-.186-.155zm4.062 6.677a.289.289 0 01-.312-.199c-.034-.122.082-.156.186-.176.104-.02.236-.017.262.137a.21.21 0 01-.023.145.204.204 0 01-.113.093zm1.037 27.831c-.117.01-.231 0-.245-.169a.174.174 0 01.006-.075.183.183 0 01.093-.114.184.184 0 01.072-.021c.143-.036.221.08.255.188.033.106-.071.17-.181.19zm-14.353-18.639c.063-.188.158-.246.283-.203.08.028.186.094.165.2-.024.15-.149.164-.264.127a.685.685 0 01-.184-.124zm12.253 5.708c-.095-.01-.209-.009-.244-.121-.035-.113.062-.173.158-.188.097-.015.205-.03.236.1.032.129-.044.174-.15.21z" fill="#fff"/><path d="M127.872 54.31c-.24-.083-.402-.287-.64-.392-.238-.105-.302-.403-.274-.667.026-.229.493-.375.744-.248.09.045.147.15.231.21.084.06.186.072.186-.101 0-.172.034-.375.05-.562.012-.193.065-.38.155-.55.122-.22.255-.511.524-.493a.897.897 0 01.759.508c.093.197.156.392-.124.529-.281.137.063.285.044.319-.121.234-.203.51-.483.63-.186.078-.404 0-.542.099-.083.058.075.287 0 .465-.15.335-.294.412-.63.253zm-2.655-24.942c.092-.214.236-.401.419-.544a.447.447 0 01.532-.07c.372.269.744.563.917 1.02a.503.503 0 010 .486c-.05.073-.095.152-.045.233.231.36-.078.514-.282.643a.87.87 0 01-.904.037c-.373-.206-.772-1.124-.704-1.554.025-.103.056-.204.067-.251zm-4.506 8.414a1.225 1.225 0 01-.279-.223c-.275-.296-.347-.641-.197-.857.151-.215.685-.392.975-.326.216.049-.205.277.08.26.138 0 .266-.114.404-.144.429-.095 1.054.163 1.265.523.063.107.121.23.022.353-.303.375-1.745.67-2.27.414zm-1.72-12.518c-.13.26-.316.456-.601.355-.318-.115-.517.035-.744.198-.314.225-.526.152-.664-.204-.227-.592-.028-1.001.596-1.2a.64.64 0 00.325-.178.659.659 0 01.902-.176c.322.199.339.562.281.917a1.73 1.73 0 01-.095.288zm9.653 30.265c.093-.525.569-.544.99-.642a.296.296 0 01.238.044 1.267 1.267 0 01.284 1.84.527.527 0 01-.667.186c-.4-.16-.683-.476-.99-.75a.22.22 0 01-.037-.285c.052-.127.108-.242.182-.394zm1.585-11.819a.923.923 0 01.575.48c.201.409.013.77-.445.797-.186.023-.37.07-.545.138-.448.141-.452.14-.692-.279a1.335 1.335 0 01-.186-.853c.06-.474.346-.675.789-.525.138.049.266.128.504.242zm-14.65-3.827c.095.054.185.117.268.188.489.463.331 1.134-.314 1.352-.259.088-.406.022-.579-.265-.091-.148-.164-.307-.389-.198-.098.048-.152-.036-.171-.124-.078-.349-.065-.694.205-.95.27-.257.575-.21.98-.003zm8.761-3.421c.082.016.165.026.249.03.34-.019.621.043.757.418.147.407.156.795-.104 1.15a.504.504 0 01-.664.187 1.704 1.704 0 01-.536-.326c-.086-.087-.171-.23 0-.302.171-.073.151-.16.069-.23-.296-.263-.157-.483.041-.706l.208-.234-.02.013zm-2.655-13.069a.822.822 0 00.062-.223c0-.088-.045-.165-.157-.082a1.014 1.014 0 01-.098.065c-.047-.08.139-.624.223-.658.372-.15.947.045 1.09.375.199.44.019 1.125-.34 1.313a.729.729 0 01-.89-.269.375.375 0 01-.064-.136.363.363 0 01-.001-.15.348.348 0 01.175-.235zm7.329 23.787a2.59 2.59 0 01-.244-.187c-.228-.208-.394-.46-.316-.782.078-.322.361-.51.679-.596.318-.086.396-.015.458.349a.307.307 0 00.162.256c.091.038.264-.12.275.111.019.234-.03.469-.141.675-.173.296-.466.373-.873.174zm-15.033-18.596c-.122.312-.301.503-.58.488a.992.992 0 01-.764-.563.09.09 0 01.003-.046.098.098 0 01.025-.039.088.088 0 01.04-.021c.166-.045.097-.149.075-.248-.03-.137-.218-.238-.112-.401a.803.803 0 01.42-.375.718.718 0 01.895.386 1.13 1.13 0 01-.002.82zm4.337 3.272a.897.897 0 01-.313-1.44.27.27 0 01.178-.124.26.26 0 01.209.051c.324.26.589.585.778.956.147.253-.026.534-.324.63a.581.581 0 01-.528-.073zm-5.369 11.102c.301-.562.703-.62 1.116-.122.149.177.419.351.283.647-.136.296-.426.313-.698.345a.84.84 0 01-.485-.097c-.346-.184-.408-.409-.216-.773zm5.414-15.774c.015-.024.037-.06.061-.094.134-.187.266-.45.521-.408.255.04.329.315.34.545.015.311.246.484.372.718.155.276.129.474-.08.61a.37.37 0 01-.569-.188 1.389 1.389 0 00-.562-.737c-.199-.123-.186-.266-.083-.446zm-.017 15.902a2.267 2.267 0 01-.528.697c-.324.287-.372.294-.655.01-.06-.063-.113-.126-.166-.188-.305-.386-.267-.521.214-.624.27-.059.514-.098.614-.413a.27.27 0 01.158-.188.263.263 0 01.244.025.35.35 0 01.246.317.37.37 0 01-.021.14 1.533 1.533 0 01-.106.224zm4.659 7.891c.186-.214.263-.563.644-.523.186.022.348.41.327.82a.74.74 0 01-.095.362.488.488 0 00-.066.478.396.396 0 010 .188.39.39 0 01-.408.332c-.214 0-.231-.212-.257-.375a.258.258 0 01.036-.188c.277-.324.11-.515-.169-.714-.144-.105-.121-.193-.012-.38zm-2.019-16.311c-.131.259-.201.413-.356.505a.297.297 0 01-.287.056.297.297 0 01-.195-.22c-.055-.136-.111-.273-.16-.414-.152-.431-.107-.581.311-.784.168-.08.261-.283.478-.275.186 0 .372.013.331.259-.048.328.082.691-.122.873zm-7.289-17.347a.807.807 0 01-.419-.75.862.862 0 01.7-.562.527.527 0 01.491.337c.09.26.133.533.126.808.013.154-.113.22-.242.247a1.218 1.218 0 01-.656-.08zm11.768 36.213c-.151.332-.491.562-.744.508a.861.861 0 01-.558-.707.332.332 0 010-.125c.065-.255.307-.304.493-.336.256-.045.558-.154.781.084a.461.461 0 01.028.576zm-2.487-4.312c-.294.2-.538.476-.913.517a.122.122 0 01-.064 0c-.232-.09-.219-.3-.186-.476.043-.229-.07-.592.266-.628.253-.024.507.031.728.158a.4.4 0 01.169.43zm-1.981-21.164c-.127.238-.298.279-.488.159-.262-.167-.372-.456-.504-.709-.074-.137.03-.28.186-.346.303-.13.571.063.856.1.033 0 .082.11.074.162-.035.227-.089.452-.124.634zm7.286 21.184c.078-.157.123-.253.255-.247.167-.007.334.003.5.028a.42.42 0 01.327.356.285.285 0 01-.186.308c-.21.103-.321.332-.558.401-.236.07-.392.015-.405-.217a3.58 3.58 0 01.067-.628zm-4.814-2.718a.443.443 0 01-.527.236c-.186-.058-.472.105-.53-.2a1.134 1.134 0 01.082-.857.173.173 0 01.219-.07c.35.134.558.424.769.711.026.036-.013.118-.013.18zm2.072-22.384c.23.07.32.21.242.399-.09.223-.021.583-.333.628-.313.045-.449-.244-.558-.499-.036-.079-.09-.146-.123-.223-.097-.21.017-.33.197-.384a.837.837 0 01.575.079zm-.744 8.653a4.15 4.15 0 01-.603-.849c.019-.155.077-.29.248-.324.139-.026.286-.071.383.097.123.216.132.47.264.692.095.161-.154.439-.292.384zm-14.034 3.864c-.022-.034-.076-.08-.087-.137-.065-.305-.121-.615-.186-.922-.011-.064 0-.127.078-.139a.304.304 0 01.186.013c.195.113.484.8.428 1.002a.335.335 0 01-.419.184zm3.127-16.925a.382.382 0 01-.183-.243.388.388 0 01.047-.3.463.463 0 01.534-.203.803.803 0 01.197.562.52.52 0 01-.595.184zm1.117 26.01a.446.446 0 01-.186-.53.312.312 0 01.157-.219.309.309 0 01.267-.017c.26.1.353.25.29.465a.42.42 0 01-.36.319.41.41 0 01-.168-.018z" fill="#fff"/><path d="M124.367 36.455a1.302 1.302 0 01-.361-.437.425.425 0 01.125-.465c.104-.11.23-.068.351-.02.162.065.186.205.203.361.037.29-.22.386-.346.562l.028-.001zm4.962 22.484a.503.503 0 01-.186-.548.38.38 0 01.222-.204.385.385 0 01.3.017.384.384 0 01.186.474.498.498 0 01-.522.26zm-13.522-32.126c-.151.28-.372.354-.583.23a.377.377 0 01-.186-.478c.067-.187.406-.264.597-.142.151.1.244.227.172.39zm12.905 24.379a.428.428 0 01-.245-.521c.056-.167.312-.334.448-.289.186.06.285.375.186.606-.098.23-.217.277-.389.204zM113.826 26.75a.456.456 0 01-.171-.502.4.4 0 01.214-.227.385.385 0 01.44.096c.036.04.064.086.082.137a.407.407 0 01-.024.313.465.465 0 01-.541.182zm2.544-4.99a.434.434 0 01.515-.228.36.36 0 01.151.484.299.299 0 01-.166.177.3.3 0 01-.241-.002.353.353 0 01-.259-.43zm6.792 35.071a.397.397 0 01.424-.187.367.367 0 01.244.19.38.38 0 01.019.31.249.249 0 01-.311.148c-.197-.04-.417-.316-.376-.46zm-12.073-18.702c.037-.017.075-.05.106-.047a.431.431 0 01.272.536.252.252 0 01-.134.122c-.097.032-.147-.04-.173-.126a.89.89 0 01-.071-.485zm12.596-14.649a.275.275 0 01.372-.06.244.244 0 01.11.103.243.243 0 01.029.15c0 .093-.344.159-.44.099a.25.25 0 01-.071-.292zm1.494 19.622a.275.275 0 01-.145-.153.278.278 0 01.003-.212.165.165 0 01.25-.109c.132.077.236.188.16.364a.203.203 0 01-.19.128.194.194 0 01-.078-.017zm-2.769-3.121a.216.216 0 01-.27.082.288.288 0 01-.145-.189.29.29 0 01.045-.235.144.144 0 01.208-.063.295.295 0 01.191.287.287.287 0 01-.029.118zm-6.523-20.697a.2.2 0 01-.324.034c-.098-.083-.202-.197-.122-.315a.25.25 0 01.34-.025c.123.071.18.169.106.306zm10.558 26.098c-.095-.046-.186-.1-.143-.23.063-.188.21-.188.351-.126a.177.177 0 01.108.105.18.18 0 01-.013.15.191.191 0 01-.126.129.196.196 0 01-.177-.028zm1.336-17.315c-.124-.109-.199-.229-.074-.375.069-.08.186-.143.268-.056a.293.293 0 01.068.393.163.163 0 01-.262.038zm-7.324 14.814c-.116-.105-.203-.217-.093-.375a.186.186 0 01.268-.037.266.266 0 01.08.332c-.045.12-.151.118-.255.08zm-3.385-23.204c-.151-.086-.238-.196-.171-.375a.172.172 0 01.204-.106c.186.052.186.215.155.36a.164.164 0 01-.07.098.16.16 0 01-.118.023zm2.213 16.693a.212.212 0 01-.279.08c-.152-.06-.117-.205-.083-.322.033-.116.148-.187.243-.142a.306.306 0 01.119.384zm9.463 6.643a.31.31 0 01-.356.169c-.128-.04-.093-.164-.057-.261.046-.128.121-.224.273-.16.05.018.091.053.117.1.026.046.034.1.023.152zm.594 17.341c-.131-.161-.131-.283-.021-.375.071-.056.186-.112.275-.035.119.106.06.228-.041.31a.73.73 0 01-.213.1zm-10.169-27.263c-.186-.101-.301-.294-.487-.414s-.203-.375-.144-.598c.051-.188.464-.253.664-.109.069.05.105.146.168.206.063.06.147.085.171-.058.024-.142.076-.317.115-.474.035-.16.103-.31.199-.44.134-.171.281-.398.506-.347a.758.758 0 01.571.526c.054.177.082.35-.171.428-.253.079.017.247 0 .273-.132.188-.236.404-.487.467-.164.043-.34-.047-.469.014-.078.037.026.249-.065.39-.182.267-.309.313-.571.136zm-3.889-14.835a.957.957 0 01-.205-.224c-.186-.285-.21-.584-.056-.75a.979.979 0 01.86-.147c.177.07-.207.208.035.23.121-.015.241-.037.359-.068a1.128 1.128 0 01.995.605c.039.098.073.21-.026.298-.31.28-1.559.341-1.962.056zm4.38 15.96c.147-.429.559-.375.916-.41a.251.251 0 01.186.067 1.08 1.08 0 010 1.584.457.457 0 01-.586.068c-.315-.188-.512-.49-.733-.767a.19.19 0 01-.046-.123.19.19 0 01.046-.122 3.81 3.81 0 00.217-.297zm2.854-9.732a.801.801 0 01.422.478c.115.375-.087.651-.476.614a1.95 1.95 0 00-.476.044c-.397.06-.398.059-.547-.324a1.13 1.13 0 01-.045-.75c.11-.392.372-.523.729-.337.11.065.209.148.393.275zm-11.825-5.131c.072.056.138.119.199.188.353.453.134.997-.437 1.096-.229.04-.344-.034-.454-.298-.056-.137-.097-.28-.302-.217-.089.028-.122-.051-.128-.128a.807.807 0 01.296-.773c.251-.166.511-.097.826.132zm7.805-1.734c.067.026.136.045.207.058.288.03.517.118.582.452a.994.994 0 01-.235.952.427.427 0 01-.584.077 1.493 1.493 0 01-.409-.345c-.059-.084-.115-.215.045-.253.16-.037.147-.114.089-.187-.216-.26-.071-.424.125-.587l.204-.17-.024.003zm7.006 20.361c.098-.08.2-.154.307-.222.186-.102.385-.257.599-.122.214.135.063.356.05.545-.013.19-.102.347-.024.531.052.127.162.272.028.4-.186.187-.354.417-.642.468a.169.169 0 01-.212-.188 2.091 2.091 0 010-.487c.037-.244.139-.484-.119-.682-.065-.047-.026-.162.013-.242zm2.866-1.692a.258.258 0 01-.086-.083c-.147-.208-.054-.59.186-.823.277-.262.664-.343.878-.187a.777.777 0 01.235.827c-.056.15-.17.09-.259.123-.089.034-.363-.035-.221.253.031.062-.091.092-.16.09a.937.937 0 01-.573-.2zm-7.32-9.044a2.551 2.551 0 01-.186-.188.687.687 0 01-.165-.7.717.717 0 01.649-.413c.275-.03.335.04.339.354a.26.26 0 00.104.236c.07.045.238-.065.216.13-.013.2-.084.39-.205.55-.179.23-.439.25-.752.031zm3.931 4.983c.327-.472.744-.523 1.059-.163a.4.4 0 01-.025.61c-.108.102-.206.153-.104.337.041.073-.143.129-.238.17a.61.61 0 01-.705-.088c-.205-.2-.136-.47-.067-.718a.556.556 0 01.08-.148zm-.815-1.307a.426.426 0 01.244.442.425.425 0 01-.058.17 1.026 1.026 0 01-.538.5.48.48 0 01-.586-.097.579.579 0 01-.137-.686c.02-.047.052-.111.091-.12.186-.051.446.027.45-.304a.37.37 0 01.149-.02.74.74 0 01.385.115zm1.33-7.401c.396.3.372.523-.037.738-.246.128-.506.238-.755.027-.145-.122-.212-.014-.318.047-.106.06-.207-.017-.248-.126a.156.156 0 01-.011-.068.15.15 0 01.132-.136c.229-.025.342-.102.322-.364-.011-.154.132-.244.288-.276a.702.702 0 01.627.158zm-17.411-1.924c.327-.437.671-.43.96.043.102.17.307.351.152.582-.154.23-.398.208-.63.198a.726.726 0 01-.397-.144c-.271-.2-.294-.398-.085-.679zm4.522.812a1.943 1.943 0 01-.536.517c-.307.2-.355.2-.558-.078a1.94 1.94 0 01-.115-.188c-.206-.363-.158-.472.26-.497.235-.013.445-.015.57-.266a.226.226 0 01.061-.088.22.22 0 01.298.004.296.296 0 01.154.178.305.305 0 01-.022.236 1.841 1.841 0 01-.112.182zm2.904 7.244c.186-.155.292-.44.608-.354.156.041.238.39.169.731a.606.606 0 01-.126.293.42.42 0 00-.117.393.36.36 0 01-.25.364.347.347 0 01-.156.011c-.186-.026-.167-.21-.167-.35a.212.212 0 01.054-.152c.273-.236.158-.418-.052-.623-.11-.099-.08-.168.037-.313zm.4-13.98c-.143.203-.223.32-.372.375a.252.252 0 01-.385-.2 6.578 6.578 0 01-.082-.375c-.073-.375-.015-.503.372-.617.151-.047.257-.205.439-.17.149.027.305.057.244.26-.084.28-.023.602-.216.727zm1.339 16.459c-.171.258-.486.404-.696.33a.752.752 0 01-.385-.67.342.342 0 01.022-.105c.09-.206.298-.213.46-.217.221 0 .489-.056.645.172a.396.396 0 01-.046.49zm8.637-3.362c.234.17.249.336.048.523a1.13 1.13 0 01-.208.169c-.186.11-.387.216-.596.077-.16-.107-.186-.576-.046-.75.139-.174.357-.23.621-.113.067.027.129.064.181.094zm-.558 6.078c-.285.113-.491.403-.837.42a.187.187 0 01-.199-.206 3.17 3.17 0 01.091-.636c.052-.187.236-.204.614-.108.236.06.372.215.353.406a.414.414 0 01-.022.124zm-9.617-6.674c-.272.127-.514.33-.835.315a.099.099 0 01-.052-.01c-.186-.104-.147-.279-.095-.425.065-.188.015-.506.303-.491.215.011.421.09.59.225a.343.343 0 01.089.386zm9.368 2.194a.781.781 0 01.065-.096c.128-.169.271-.227.45-.062.065.06.158.092.214.16a.422.422 0 01.143.433c-.067.187-.214.148-.351.155-.107 0-.214.045-.319.041-.141 0-.301-.01-.372-.163-.07-.152.019-.273.17-.468zm-4.908-1.486c.086-.121.134-.187.246-.174.141.016.281.046.416.09a.36.36 0 01.229.338.24.24 0 01-.186.234c-.186.06-.312.238-.521.266-.208.028-.331-.041-.312-.236.027-.176.07-.35.128-.517zm-3.701-2.915a.374.374 0 01-.473.132c-.143-.074-.411.024-.42-.239a.97.97 0 01.186-.71.144.144 0 01.087-.049.15.15 0 01.099.019c.251.17.446.413.558.697.015.036-.024.1-.037.15zm10.764 10.554c-.113.129-.186.358-.409.256a.719.719 0 01-.459-.489.215.215 0 01.096-.247.208.208 0 01.09-.029c.14-.026.282-.039.424-.037.134 0 .305-.028.387.116.082.145-.026.304-.129.43zm-20.179-20.512a.405.405 0 01-.054-.126 30.431 30.431 0 01-.029-.799c0-.056.02-.106.083-.106a.258.258 0 01.149.033c.151.12.303.739.233.898a.287.287 0 01-.382.1zm2.401 8.196a.376.376 0 01-.093-.472.274.274 0 01.16-.162.264.264 0 01.225.021c.207.118.266.257.186.428a.355.355 0 01-.199.197.35.35 0 01-.279-.012z" fill="#fff"/><path d="M118.522 17.617a1.093 1.093 0 01-.245-.414.357.357 0 01.164-.375c.102-.08.202-.028.297.028.129.077.129.187.125.33 0 .25-.235.296-.372.431h.031zm1.28 19.563a.437.437 0 01-.095-.487.333.333 0 01.343-.136.33.33 0 01.221.479.426.426 0 01-.469.144zm.478-6.6a.375.375 0 01-.14-.471.409.409 0 01.415-.188c.151.075.186.355.08.536-.106.182-.219.205-.355.122zm7.376-.325a.66.66 0 01.487-.113c.11.068.117.334.015.486-.102.152-.258.203-.4.1a.43.43 0 01-.102-.473zm-12.767 4.342a.337.337 0 01.372-.1.331.331 0 01.109.078.333.333 0 01.046.376.212.212 0 01-.123.1.206.206 0 01-.156-.016c-.153-.065-.302-.322-.248-.438zm12.016-6.498a.33.33 0 01-.063-.386c.083-.188.254-.27.372-.188a.3.3 0 01.096.384.423.423 0 01-.405.19zm-19.761-10.81c.033 0 .067-.034.093-.026a.376.376 0 01.16.487.216.216 0 01-.128.085c-.086.015-.12-.053-.129-.128a.726.726 0 01.004-.418zm16.224 23.183a.166.166 0 01-.087-.127.163.163 0 01.057-.143.168.168 0 01.05-.042.164.164 0 01.129-.01.17.17 0 01.056.035.2.2 0 01.061.051.209.209 0 01.035.072.195.195 0 01.002.08.195.195 0 01-.031.073c-.08.122-.172.079-.272.011zm-5.017-17.154a.238.238 0 01-.072-.326.14.14 0 01.163-.09.14.14 0 01.06.032c.102.08.173.187.087.326a.155.155 0 01-.045.051.164.164 0 01-.129.032.174.174 0 01-.064-.025zm-1.927-2.99a.184.184 0 01-.238.034.264.264 0 01-.07-.08.256.256 0 01-.016-.206.248.248 0 01.057-.09.123.123 0 01.139-.052.132.132 0 01.047.026.246.246 0 01.123.165.248.248 0 01-.042.202zm2.7 5.069c-.073-.052-.146-.11-.092-.213.077-.147.201-.126.313-.059.02.01.037.024.05.042a.134.134 0 01.027.06.145.145 0 01-.031.123.156.156 0 01-.05.062.165.165 0 01-.217-.014zm-4.715-2.887c-.083-.103-.143-.208-.031-.324a.147.147 0 01.228 0 .228.228 0 01.066.14.234.234 0 01-.041.15c-.051.092-.142.081-.222.034zm-.149-5.628a.185.185 0 01-.245.032c-.121-.071-.073-.187-.028-.283.044-.096.149-.143.221-.086a.256.256 0 01.052.337zm7.105 6.822a.265.265 0 01-.322.096c-.102-.049-.058-.15-.015-.227.043-.077.13-.172.251-.1a.187.187 0 01.086.232zm5.221.893c-.109-.062-.121-.122-.083-.188.055-.11.108-.238.266-.16a.163.163 0 01.091.216c-.06.136-.194.105-.274.132zm-6.955 13.768c-.089-.152-.072-.255.03-.315.069-.037.175-.07.236 0 .088.107.023.2-.072.257a.63.63 0 01-.194.058zm-7.911-6.076c-.573.287-1.003.067-1.131-.6a1.278 1.278 0 00-.294-.675c-.294-.335-.186-1.063.167-1.35.229-.187.482-.129.724-.028a.699.699 0 01.407.604c0 .037-.082.088-.124.133-.043.045-.162.082 0 .148.154.072.301.156.441.253.505.317.576.686.234 1.172-.115.144-.26.26-.424.343z" fill="#fff"/><path d="M120.014 35.581c.243-.097.51-.114.763-.047.463.114.666.405.508.848-.112.316-.216.573.011.898.145.206-.093.7-.327.83-.173.098-.512.01-.69-.2a1.317 1.317 0 01-.225-.39 3.965 3.965 0 00-.395-.794c-.314-.472-.175-.888.355-1.145zm-15.555-16.586c-.197-.386-.186-.808.043-1.026a.872.872 0 011.008-.138c.177.084.274.169.186.392-.087.223-.137.433.235.418.069 0 .083.14.046.223-.139.32-.32.626-.679.72-.279.073-.642-.203-.839-.589zm21.828 10.679c-.24-.482-.078-.908.424-1.086a1.79 1.79 0 01.372-.084.808.808 0 01.83.363c.126.242.029.74-.186.966-.058.058-.147.133-.216.054-.128-.146-.225-.054-.331.011-.452.276-.67.222-.893-.224zm-23.263-9.371c.177-.103.377-.16.582-.168.385 0 .603.12.71.425a.942.942 0 01-.21.96.16.16 0 01-.171.034c-.219-.058-.498-.375-.597.133 0 .011-.082.017-.121 0-.27-.077-.677-.506-.664-.724a.72.72 0 01.471-.66zm7.105-3.771c.233.465.11.823-.331 1.042a.986.986 0 01-.619.12c-.281-.05-.573-.112-.681-.409a.823.823 0 01.195-.84c.082-.091.227-.39.356-.013l.24-.088c.148-.052.232-.285.442-.174a.83.83 0 01.398.362zm8.801 18.598c.21.406.106.811-.231.995-.372.187-.988.103-1.187-.4a.816.816 0 01.372-1.083c.359-.17.813.041 1.046.487zm-13.843-22.331c.558-.27.777-.127.766.486a.688.688 0 01-.034.315c-.186.303-.344.586-.07.937.076.097 0 .25-.13.322a.371.371 0 01-.358.066.286.286 0 01-.137-.375c.115-.25.039-.356-.173-.502-.655-.452-.599-.887.136-1.249zm-3.001 4.521c.336-.175.963.048 1.239.44.199.285.124.622-.203.905-.294.255-.542.227-.774-.105-.093-.133-.158-.257-.341-.127a.12.12 0 01-.111-.025c-.227-.22-.101-.933.19-1.089zm4.19-5.76c.101-.005.202 0 .302.013.407.09.761.335 1.192.375a.357.357 0 01.26.176.366.366 0 01.023.315c-.082.28-.305.3-.51.234-.251-.078-.478-.187-.684.075-.011.014-.041 0-.062.014-.223.04-.372-.096-.537-.525-.091-.216-.155-.44.016-.677zm4.768 9.29c-.165-.336-.143-.698.054-.893.197-.195.58-.188.895-.032a.362.362 0 01.221.354c0 .42-.269.707-.515 1-.082.095-.195.03-.296 0-.212-.073-.266-.267-.359-.43zm-5.359 5.142a1.44 1.44 0 01-.074-.178c-.093-.3.059-.726.301-.846.186-.092.744.073.882.26a.472.472 0 01.057.376c-.084.335-.29.626-.578.815-.102.079-.186.04-.296-.015a.749.749 0 01-.292-.412zm10.04 8.575a.438.438 0 01-.532-.047.884.884 0 01-.356-.842c.015-.305.212-.435.519-.36.166.035.327.088.48.16.469.24.504.613.099.948a2.47 2.47 0 01-.21.14zm8.259-7.651c.029.12.051.242.065.366a.658.658 0 01-.34.697.886.886 0 01-.807-.248.413.413 0 01-.058-.53c.105-.16.224-.31.355-.448.298-.308.627-.248.785.163zm-.854-2.081c-.177-.32-.1-.491.264-.596.101-.035.205-.064.309-.086.262-.042.543-.053.685.217a.835.835 0 01-.067.75.46.46 0 01-.493.23.895.895 0 01-.698-.515zm-18.234 2.733c.186.265.023.426-.204.608-.199.16-.372.405-.648.319-.32-.102-.195-.443-.238-.672-.076-.408.054-.592.384-.697.28-.09.491.041.706.442zm-1.146-10.98c-.359.178-.569.139-.709-.128-.195-.375-.107-.75.2-.89.306-.14.818.035.969.304.143.24-.028.508-.46.714zm-2.682 2.48a.496.496 0 01-.433.06.493.493 0 01-.311-.31c-.168-.327-.089-.828.147-.937.186-.088.841.268.958.53.11.22-.034.483-.361.657zm23.937 2.4c.019.05.026.103.021.156a.35.35 0 01-.047.151 2.63 2.63 0 01-.558.696c-.138.152-.42.037-.511-.188-.092-.225-.023-.51-.071-.763 0-.032.028-.078.054-.11.143-.188.93-.188 1.071 0l.041.058zm-8.875 17.158c-.097 0-.186.041-.216.011-.212-.167-.502-.242-.627-.52-.124-.277 0-.513.303-.515.274 0 .536-.139.819-.022.171.07.268.165.214.33a2.19 2.19 0 01-.493.716zm2.584-9.43a.334.334 0 01-.435-.064.334.334 0 01-.071-.143.578.578 0 01-.013-.255c.048-.225-.09-.534.132-.66.266-.148.586-.01.868.064.186.047.222.22.142.424-.123.307-.432.412-.623.634zm.565 8.406a.406.406 0 01-.139.563c-.186.073-.417.078-.484-.134-.087-.273-.234-.28-.474-.277-.387 0-.497-.188-.357-.532.104-.255.212-.306.496-.143.242.139.419.394.759.315.11-.036.129.14.199.208zm-7.917-12.568c-.288.01-.592.028-.848-.156-.13-.092-.147-.23-.052-.397.156-.272.431-.415.632-.634.101-.113.324-.024.372.1.124.297.137.63.036.937-.004.06-.079.093-.14.15zm15.608 1.513c.396.026.8-.122 1.178.095.13.075.135.188.08.336-.126.223-.293.42-.493.58a.224.224 0 01-.24.038c-.238-.091-.62-.628-.605-.866a.59.59 0 01.08-.183zm-25.257-13.562c.382-.214.417-.205.629.187.081.126.144.263.186.407.061.29-.141.472-.428.384a2.269 2.269 0 01-.601-.187c-.355-.227-.372-.43 0-.668.069-.046.14-.087.214-.123zm9.421-.245c-.173.072-.372.235-.527.065a.919.919 0 01-.295-.75.244.244 0 01.029-.11.246.246 0 01.287-.126c.226.05.443.129.647.237.292.16.292.413.026.591-.052.04-.109.064-.167.094zm7.716 7.66a.415.415 0 01-.447-.115.346.346 0 01-.114-.226.346.346 0 01.068-.245c.146-.208.337-.381.558-.506a.232.232 0 01.302.07.235.235 0 01.042.104c.056.201-.216.812-.409.917zm9.63 14.167c.16.309.139.5-.065.609-.205.109-.473 0-.614-.278a1.232 1.232 0 01-.052-.116c-.078-.23-.013-.526.145-.562.214-.041.426-.019.528.229.017.05.037.088.058.118zm-5.884 3.653a.491.491 0 01-.283.58.323.323 0 01-.446-.23.41.41 0 01.008-.31.404.404 0 01.502-.213.417.417 0 01.219.174zm-15.043-9.007a.348.348 0 01-.186.474.483.483 0 01-.558-.188.468.468 0 01.208-.487.391.391 0 01.536.2zm2.187-6.96a.392.392 0 01.305-.063.382.382 0 01.253.182c.101.217-.035.375-.169.506s-.459.035-.558-.14a.348.348 0 01-.019-.28.361.361 0 01.188-.204zm13.251 1.281c.121.234-.043.362-.186.48a.405.405 0 01-.502-.107.452.452 0 01.139-.563.466.466 0 01.549.19zm-1.81 1.633c.173-.081.506.015.558.159a.557.557 0 01-.29.577c-.203.066-.32-.086-.417-.219-.076-.103.05-.472.149-.517zm-8.055 8.395a.406.406 0 01-.534-.188c-.072-.226.064-.36.231-.464.123-.077.48.046.558.187.078.14-.086.392-.255.465zM96.25 10.382a.37.37 0 01.479.188.337.337 0 01-.044.397.331.331 0 01-.116.08.385.385 0 01-.434-.061.392.392 0 01-.091-.126c-.076-.232.063-.361.207-.478zm24.025 13.913a.36.36 0 01.487.154.357.357 0 01-.147.489.369.369 0 01-.485-.15.376.376 0 01.145-.493zm-21.27-6.747c.026.039-.056.16-.175.255-.169.13-.49.103-.558-.051a.315.315 0 01.117-.439c.216-.13.398-.1.616.235zm1.071 6.078a.37.37 0 01.475.211c.055.164.091.338-.11.445a.347.347 0 01-.275.04.346.346 0 01-.214-.177.455.455 0 01.124-.52zm15.58-8.726a.341.341 0 01.476.188c.101.188-.013.33-.169.42a.358.358 0 01-.482-.176.346.346 0 01.006-.25.345.345 0 01.169-.181zm-13.826-4.467c.263-.146.482-.1.614.126.067.112.021.197-.093.25-.299.141-.604.104-.671-.091-.054-.148.05-.232.15-.285zm14 14.706c.164-.092.289 0 .385.105.097.105.015.187-.085.238-.134.073-.289.122-.385-.023a.226.226 0 01.014-.262.22.22 0 01.071-.058zm-4.709-10.726c.143-.058.298-.107.372.086a.218.218 0 01-.108.272.31.31 0 01-.396-.107c-.063-.07.017-.196.132-.25zm-.253 19.076a.233.233 0 01-.007.194.236.236 0 01-.149.123.216.216 0 01-.296-.165c-.026-.081-.043-.177.062-.218.143-.058.288-.084.39.066zM98.219 11.1a.29.29 0 01-.147.362c-.105.056-.187-.024-.242-.13-.056-.104-.075-.241.067-.32a.218.218 0 01.322.088zm28.719 23.799a.18.18 0 01-.149.026.193.193 0 01-.119-.094.357.357 0 01.08-.41c.075-.062.197-.017.257.095.08.148.087.281-.069.383zm-7.593-17.7a.254.254 0 01-.153.317c-.122.067-.256.075-.319-.075a.194.194 0 01.004-.157.193.193 0 01.116-.106c.119-.058.242-.097.352.02zm-7.223 2.087c.068.112.061.208-.051.268a.182.182 0 01-.181.027.184.184 0 01-.116-.144c-.041-.091-.095-.187.039-.262.134-.075.227.019.309.11zm4.979 8.781c-.147.052-.243.015-.294-.092-.072-.152.015-.245.146-.296.13-.05.228-.036.269.08a.273.273 0 01-.121.308zm-7.297-7.162a.164.164 0 01.123-.029.167.167 0 01.108.067.182.182 0 01.047.083.186.186 0 01-.129.23c-.09.05-.211.11-.266-.023a.279.279 0 01.117-.328zm11.942 20.883a.392.392 0 01.391.12c.059.07-.015.118-.069.109-.134-.02-.287-.015-.372-.144-.013-.01.03-.055.05-.085z" fill="#fff"/><path d="M122.241 26.035a.848.848 0 01.937-.179.84.84 0 01.274.194c.499.487.583 1.173.186 1.563-.347.347-1.194.349-1.557 0-.362-.348-.286-1.126.16-1.578zM99.07 18.95c.43.403.449.842.058 1.277a1.112 1.112 0 01-1.488.052c-.372-.32-.385-1.06-.04-1.442.347-.38 1.007-.32 1.47.113zm10.06-.077c.694-.673 1.274-.448 1.643.28.186.375.061.704-.311.892-.13.064-.281.086-.407.155-.177.098-.305.287-.558.21a1.188 1.188 0 01-.581-.348c-.219-.259-.158-.75.117-1.103a.7.7 0 01.097-.086zm-2.524-6.149c-.395-.375-.434-.594-.186-.964.106-.155.186-.249.02-.418-.165-.168-.07-.392-.018-.594a.277.277 0 01.279-.208.611.611 0 01.654.514.54.54 0 00.207.405 1.141 1.141 0 01.372 1.134.372.372 0 01-.372.358 2.562 2.562 0 01-.956-.227zm-6.006-.409c.275-.337.297-.354.587-.135.186.145.518.223.475.53-.043.308-.352.306-.594.363-.344.079-.372.17-.152.45.039.05.089.09.128.138a.552.552 0 01.093.645c-.137.261-.372.312-.645.287a.47.47 0 01-.471-.425c-.045-.338-.22-.71.212-.95a.265.265 0 00.104-.278.787.787 0 01.263-.625zm4.812 9.585c.325-.374.93-.293 1.302.175.1.135.184.28.249.435.309.684.227.799-.509.75-.123-.01-.248.017-.372.019-.125.002-.257.02-.16-.199.048-.105-.097-.157-.199-.187-.144-.04-.346.148-.432-.105-.086-.253-.14-.535.043-.788.026-.033.052-.065.078-.1zm4.869-6.634a2.9 2.9 0 00.408.525c.23.268-.106.844-.491.913-.305.04-.614.03-.916-.03a.306.306 0 01-.256-.244c-.108-.392.245-1.096.602-1.276.261-.128.447-.055.653.112zm-13.475-2.184c-.413.463-.93.435-1.254-.062a.855.855 0 01-.102-.544c0-.241.186-.226.346-.277.16-.05.275-.105.14-.311-.047-.073.089-.115.17-.128.382-.058.814.101.944.349.13.247.05.643-.244.973zm18.165 2.338c-.158.208-.285.532-.603.431-.318-.101-.238-.465-.316-.716-.065-.21.032-.35.277-.396.315-.058.623-.152.887.113.172.169.281.064.426-.049.257-.197.486-.187.661 0a.45.45 0 01-.043.624c-.218.24-.513.302-.724.147-.067-.05-.111-.126-.186-.178-.189-.171-.236-.167-.379.024zm-1.298 3.83c.288-.347.578-.187.829-.178.252.01.252.244.253.439a2.17 2.17 0 01-.122.74.705.705 0 01-.731.454c-.198-.049-.558-.596-.503-.799.079-.223.171-.442.274-.656zm-7.931.21a1.127 1.127 0 01-1.017.366.507.507 0 01-.469-.433.485.485 0 01.314-.602.685.685 0 00.458-.29c.153-.269.372-.142.541-.067.367.171.441.717.173 1.026zm19.481 11.458c.121.05.231.107.21.27a.323.323 0 01-.292.282 6.083 6.083 0 01-.675.135c-.372.039-.558-.188-.606-.7-.038-.388.13-.667.435-.72.188-.03.382-.008.558.066.128.049.132.047.162.375a.346.346 0 00.208.292zM90.136 12.12a.59.59 0 01.672-.187.442.442 0 01.357.452c-.012.271-.015.553-.285.721a1.15 1.15 0 01-.895.088c-.186-.045-.23-.228-.186-.408a1.4 1.4 0 01.337-.666zm22.869 9.458c.43.41.339.86-.214 1.058-.078.028-.165.028-.243.054-.523.176-.659-.118-.558-.61a.872.872 0 01.301-.532c.257-.211.465-.204.714.03zm-9.186-6.908c.199.176.216.574.052.887a.594.594 0 01-.673.32.248.248 0 01-.177-.234 8.151 8.151 0 01-.1-.986c0-.283.167-.375.422-.255.171.079.329.184.476.268zm9.297 3.933c-.186.208-.623.311-.812.188-.19-.124-.305-.518-.253-.75a.542.542 0 01.638-.39c.227.047.547-.013.658.259.112.271-.128.48-.231.693zm6.989 5.984c.294.248.395.75.235 1.009-.16.259-.525.32-.849.187a.313.313 0 01-.175-.123.315.315 0 01-.057-.208c.039-.337.191-.65.429-.889.14-.169.306-.004.417.024zm-19.381-5.819a1.358 1.358 0 01-.201-.345c-.043-.161-.035-.358.212-.352.247.005.504-.188.789-.09.284.097.372.255.24.519-.017.038-.052.067-.071.103-.301.544-.497.59-.969.165zm19.851 12.216c.247-.315.292-.32.627-.028.169.148.416.274.338.563-.078.288-.35.301-.558.3-.208-.002-.528.22-.681-.107-.124-.27.071-.478.238-.671a.598.598 0 00.036-.057zm-4.019-7.261c-.249.206-.411.396-.673.446-.186.034-.3-.009-.354-.163a1.409 1.409 0 01.037-.793.186.186 0 01.187-.131c.221.032.452-.023.662.113.29.18.322.354.141.528zM93.16 14.736c.103.226.372.332.445.592.063.225 0 .392-.218.424a2.273 2.273 0 01-.618 0 .233.233 0 01-.22-.259c.02-.227-.034-.456.09-.677.125-.221.322-.292.521-.08zm14.549 10.281a.336.336 0 01.4-.208c.151.045.203.206.242.34.028.142.043.287.043.432a.226.226 0 01-.034.179.223.223 0 01-.152.097c-.278.02-.616.234-.819-.043-.203-.278.078-.49.244-.694l.076-.103zM96.183 22.6c.09-.077.173-.139.245-.212a.256.256 0 01.217-.106.254.254 0 01.208.123c.067.08.122.169.186.255.09.133.26.26.173.437-.105.21-.328.23-.54.223-.082 0-.162-.04-.243-.043-.186 0-.373.049-.456-.206-.084-.255.137-.315.21-.47zm10.494-4.531a.661.661 0 01.802.01.522.522 0 01-.092.678c-.245.232-.537.272-.716.097a.546.546 0 01-.16-.394.545.545 0 01.166-.392zm8.063 3.581c.24.25.3.474.173.615a.473.473 0 01-.621-.042c-.147-.151-.166-.51-.026-.628a.294.294 0 01.474.055zm12.183 8.172c-.142.086-.3.215-.493.092a.488.488 0 01-.062-.628.427.427 0 01.512.014.392.392 0 01.043.521zm-17.055-7.565a.359.359 0 01.484 0c.171.122.216.384.071.491-.145.107-.307.242-.506.084a.368.368 0 01-.159-.276.388.388 0 01.11-.299zm5.378-3.733a.426.426 0 01.026.574.294.294 0 01-.224.102.3.3 0 01-.224-.102c-.147-.122-.21-.444-.108-.562a.668.668 0 01.53-.012zm-14.561-7.296a.434.434 0 01.028.587.28.28 0 01-.434.018c-.165-.163-.201-.433-.063-.54.138-.106.318-.2.469-.065zm-4.842 8.868a.347.347 0 01.483-.038c.114.144.236.324.073.497a.351.351 0 01-.369.143.35.35 0 01-.227-.172.376.376 0 01.04-.43zm14.604 5.967a.343.343 0 01.244-.116.34.34 0 01.251.1.356.356 0 01.08.496.394.394 0 01-.499.084.452.452 0 01-.076-.564zm10.565-3.092c.132-.123.478-.11.567.042.071.118.149.255-.026.386s-.465.206-.571.103a.563.563 0 01.03-.53zM101.805 10.12c.086.155.186.322.073.512a.37.37 0 01-.558.067.396.396 0 010-.514.37.37 0 01.485-.065zm-13.552 2.235a.376.376 0 01.063.504c-.1.092-.445.107-.515.011a.407.407 0 01-.049-.517.37.37 0 01.5.002zm14.405-3.368a.348.348 0 01.583.232.353.353 0 01-.075.245.293.293 0 01-.212.123.291.291 0 01-.231-.084.378.378 0 01-.065-.516zm-5.178.162a.33.33 0 01.074.453.383.383 0 01-.502.087.39.39 0 01-.075-.51.355.355 0 01.503-.03zm5.068 12.938a.35.35 0 01-.227.588.346.346 0 01-.243-.075.433.433 0 01.026-.562.368.368 0 01.444.049zm-15.461-7.955a1.129 1.129 0 01.69.827.284.284 0 01-.052.23c-.073.053-.15-.034-.186-.101a2.905 2.905 0 01-.452-.956zm1.76 2.999a6.445 6.445 0 01-.404-.55c-.052-.089-.199-.216-.034-.314.13-.075.248.041.32.139a.752.752 0 01.118.725zm23.517 14.549a.261.261 0 01.327-.102c.145.038.27.111.285.284 0 .058.015.127-.073.146a.802.802 0 01-.537-.068c-.14-.067-.008-.174-.002-.26zm11.092-8.092c.095-.097.229-.16.318-.058a.328.328 0 01.039.452c-.084.092-.186.013-.277-.034-.181-.09-.149-.22-.08-.36zm-11.854 7.505a.245.245 0 01-.052-.165.245.245 0 01.072-.158c.127-.118.278-.035.391.055a.175.175 0 01.037.21.166.166 0 01-.05.058c-.108.07-.251.169-.398 0zM92.589 12.122c-.058.094-.134.071-.197.017a.237.237 0 01-.104-.181.24.24 0 01.078-.194.189.189 0 01.13-.068.186.186 0 01.138.047c.14.14.007.257-.045.38zm-.71.086a.14.14 0 01.04.174.14.14 0 01-.04.05.293.293 0 01-.397 0 .173.173 0 01.025-.272.28.28 0 01.372.048zm1.024 9.592a.145.145 0 01-.22.009c-.072-.056-.198-.131-.083-.242a.243.243 0 01.227-.04.216.216 0 01.076.273zm-2.047-11.142a.696.696 0 01-.497.63c-.234.064-.482.079-.668.27-.102.105-.216.05-.336 0-.121-.05-.313-.169-.397.088 0 .019-.072.028-.11.024-.204-.018-.518-.333-.58-.583a.529.529 0 01.246-.58.755.755 0 01.21-.126 1.35 1.35 0 00.82-.769c.112-.236.283-.427.558-.375a.544.544 0 01.488.55c.029.162.092.316.186.451.064.13.091.275.08.42z" fill="#fff"/><path d="M105.052 18.12c.277.039.515.148.512.444 0 .328.195.467.415.626.305.22.305.437.022.677-.465.395-.9.341-1.276-.173a.62.62 0 00-.266-.243.647.647 0 01-.443-.778c.08-.36.407-.49.744-.55.097-.01.195-.01.292-.004zm-4.071-9.714c.458.055.796.486.733.863-.037.232-.246.409-.413.375-.285-.05-.331.112-.452.28-.233.324-.549.33-.897.057-.305-.238-.357-.534-.1-.84.211-.23.436-.449.673-.652a.494.494 0 01.456-.083zm1.527 7.816a.702.702 0 00-.223.015c-.08.028-.136.092-.026.167.033.023.061.049.091.073a1.134 1.134 0 01-.67 0c-.251-.29-.255-.889 0-1.125.337-.32 1.019-.375 1.302-.097a.714.714 0 01.037.905.325.325 0 01-.104.103.326.326 0 01-.282.035.326.326 0 01-.125-.076zm7.147 5.484c.322.015.558.12.627.375a.983.983 0 01-.238.857.092.092 0 01-.076.041.09.09 0 01-.075-.042c-.093-.138-.166-.043-.249.01-.114.071-.147.276-.328.229a.768.768 0 01-.465-.274.71.71 0 01.067-.947c.207-.172.469-.261.737-.25zm1.605-5.039a.875.875 0 01-.408.695.857.857 0 01-.801.055.26.26 0 01-.167-.125.262.262 0 01-.019-.21c.132-.38.344-.728.623-1.017.186-.218.495-.146.676.1a.573.573 0 01.096.502zm-4.262 1.428l-.104-.026c-.216-.064-.493-.105-.534-.354-.041-.25.186-.402.389-.484.277-.113.361-.375.534-.576.201-.229.389-.268.578-.118a.354.354 0 01.149.294.362.362 0 01-.149.293 1.34 1.34 0 00-.481.763c-.052.212-.184.25-.382.208zm5.978-4.779c.277.04.437.057.569.17a.29.29 0 010 .496 7.425 7.425 0 01-.326.277c-.344.278-.495.284-.809-.039-.126-.13-.34-.152-.402-.354-.052-.167-.104-.341.131-.386.318-.06.608-.286.837-.164zM99.507 25.51a.793.793 0 01-.558.62.817.817 0 01-.729-.468.52.52 0 01.15-.563 2.21 2.21 0 01.697-.375c.134-.06.234.038.3.147.104.196.152.417.14.639zm-5.04-6.44c-.332-.054-.532-.212-.545-.442a.807.807 0 01.3-.76.341.341 0 01.349-.024c.186.077.355.192.496.337.348.387.317.606-.163.8-.145.057-.296.155-.437.09zm-1.982 2.581c.484.053.57.188.411.599-.022.058-.04.116-.069.172-.186.375-.372.499-.65.416-.243-.071-.524-.43-.503-.64.026-.25.355-.532.66-.561.05 0 .101.005.15.014zm3.168-6.281a.765.765 0 01-.088.284c-.143.188-.186.495-.472.5-.26 0-.372-.22-.476-.42a.713.713 0 01.027-.749c.114-.169.438-.188.744-.096.235.074.272.255.265.48zm-9.482-2.324c.408.043.88.475.83.76-.033.198-.49.571-.675.55-.289-.031-.558-.5-.532-.927a.368.368 0 01.23-.359.359.359 0 01.147-.024zm5.062-1.79c.35.04.514.21.486.504-.03.33-.396.797-.601.764-.292-.05-.536-.462-.49-.831.047-.37.23-.48.605-.437zm-1.993 6.813c-.111.187-.133.562-.45.598a.969.969 0 01-.788-.398c-.12-.136-.058-.256.065-.374.253-.23.586-.261.885-.36.209-.066.36.195.288.534zm17.723-2.679c.256.041.348.187.297.397-.068.297-.297.484-.485.69-.102.113-.264.062-.372-.062-.212-.238-.121-.545-.186-.82 0-.033.072-.111.123-.119.225-.032.446-.064.623-.086zm-4.995-2.964c0-.235.092-.36.289-.349.23.013.535-.165.675.11.139.276-.082.49-.277.678-.06.056-.104.125-.164.187-.16.154-.305.086-.413-.062a.838.838 0 01-.11-.564zm-17.439.626c-.035.332-.153.472-.372.45-.22-.023-.372-.248-.344-.548 0-.04.011-.082.02-.121.058-.225.266-.426.41-.366.186.08.347.212.3.463-.007.041-.01.077-.014.122zm33.474 9.078c-.024.03-.05.093-.097.122a26.5 26.5 0 01-.783.453c-.054.032-.117.038-.15-.028a.302.302 0 01-.045-.17c.039-.216.577-.698.776-.711a.326.326 0 01.299.334zm-16.371 2.442a.374.374 0 01-.45.298.443.443 0 01-.251-.152.457.457 0 01-.103-.277.763.763 0 01.443-.358.505.505 0 01.361.49zm-5.35-4.702a.4.4 0 01.364.302.408.408 0 01-.042.307.374.374 0 01-.381.175.403.403 0 01-.246-.49c.047-.16.123-.303.305-.293zm-12.605 1.333c-.026.141-.186.218-.381.207a.417.417 0 01-.35-.313.425.425 0 01-.01-.165.398.398 0 01.438-.257c.203.019.352.242.303.528zm23.794-.631c.301.05.439.232.392.465a.354.354 0 01-.372.324c-.186 0-.372-.29-.316-.506.034-.173.121-.298.296-.283zm.558 1.85a.444.444 0 01-.402.317.408.408 0 01-.372-.414.402.402 0 01.43-.345.451.451 0 01.247.161c.062.08.096.18.097.281zm-5.332-.778a.422.422 0 01-.372-.405.35.35 0 01.393-.29.288.288 0 01.275.2c.012.039.017.08.013.12 0 .216-.14.383-.309.375zm-8.657-4.229c-.03.127-.03.335-.303.315-.235-.017-.434-.201-.372-.375a.386.386 0 01.41-.295c.183.008.311.083.265.355zm-.47 2.592c-.092.132-.187.295-.373.323-.186.028-.31-.163-.331-.422-.02-.259.141-.272.298-.296.156-.025.405.229.405.395zm.66-8.993c-.097.145-.186.31-.411.287a.33.33 0 01-.285-.262.336.336 0 010-.137.326.326 0 01.313-.313c.165-.02.405.264.383.425zm-4.39 2.338a.225.225 0 01.219.198.23.23 0 01-.01.106c-.045.17-.08.375-.345.326-.208-.034-.355-.178-.333-.353a.427.427 0 01.47-.277zm29.398 8.011c-.028-.028-.068-.05-.076-.08a.424.424 0 01.402-.423c.06.009.114.04.152.087.06.078.012.148-.059.198a.814.814 0 01-.419.218zm-21.484-4.509c-.129-.028-.263-.06-.224-.223a.295.295 0 01.255-.219.29.29 0 01.117.013.214.214 0 01.19.177.221.221 0 01-.004.093c-.05.202-.204.161-.334.16zm4.202-2.504c-.143-.046-.186-.17-.169-.321a.235.235 0 01.186-.208c.087-.023.253.266.228.374a.237.237 0 01-.245.154zm-1.358 8.52a.202.202 0 01.139.11.21.21 0 01-.005.178c-.045.117-.118.25-.248.213-.13-.038-.154-.174-.13-.306.024-.131.097-.22.244-.195zM83.134 12.486c-.119-.015-.197-.094-.186-.197a.336.336 0 01.28-.283c.092-.01.165.092.154.212-.008.161-.07.27-.248.268zm21.701-3.366c-.057.149-.145.258-.318.188-.093-.037-.186-.12-.136-.23a.28.28 0 01.339-.187.16.16 0 01.115.23zm-4.247 12.534c-.031.165-.104.28-.279.271a.163.163 0 01-.111-.045.17.17 0 01-.051-.11c-.014-.188.138-.235.278-.255a.157.157 0 01.108.037c.031.026.05.062.055.102zm-4.403-3.744c-.069.121-.137.253-.312.213a.152.152 0 01-.1-.068.156.156 0 01-.021-.12.242.242 0 01.201-.213.237.237 0 01.104.008.154.154 0 01.127.118c.004.02.005.041.001.062zm18.875-3.56a.209.209 0 01.16.232c0 .161-.148.174-.268.187-.119.013-.221-.077-.204-.187a.298.298 0 01.312-.233zm-39.68.841a.373.373 0 01.246.302c.013.086-.073.086-.11.05-.097-.087-.221-.164-.227-.316 0-.011.06-.025.091-.036zm6.42 3.984c-.236 0-.438-.13-.68-.148-.242-.019-.387-.262-.441-.504-.047-.208.318-.484.586-.448.09.032.18.07.266.114.12.034.186 0 .136-.146-.05-.146-.086-.343-.129-.516a1.242 1.242 0 01-.031-.529c.042-.234.07-.528.314-.596a.824.824 0 01.818.216c.142.142.255.296.05.502-.204.207.142.23.137.265-.036.243-.025.51-.235.703-.136.123-.353.127-.446.253-.058.075.15.229.134.409-.041.35-.144.46-.478.425zm15.042 1.106c.039-.414.476-.772.982-.75.431.02.883.46.89.876a.71.71 0 01-.23.529c-.14.137-.294.258-.46.363-.414.263-.716.188-.972-.24a1.131 1.131 0 01-.21-.778z" fill="#fff"/><path d="M82.836 20.007c-.074-.489.337-.652.677-.866a.279.279 0 01.223-.033 1.156 1.156 0 01.737.585 1.179 1.179 0 01.067.942.499.499 0 01-.53.366c-.4-.017-.744-.21-1.1-.364a.204.204 0 01-.117-.238c.01-.118.026-.234.043-.392zm17.362-4.681a.802.802 0 01-.7-.45c-.132-.313.022-.58.24-.793.15-.154.324-.283.513-.384.456-.234 1.038.011 1.117.478.072.388-.159.688-.417.919a.979.979 0 01-.753.23zm-5.715 2.441c.054-.47.186-.656.441-.716a.944.944 0 01.93.352.134.134 0 01.022.11.136.136 0 01-.068.09.313.313 0 00-.123.314c.045.17.154 0 .229.02.074.021.06.093.039.141a.958.958 0 01-.72.63c-.298.058-.614-.187-.72-.562a1.73 1.73 0 01-.03-.379zm-4.098 2.874c.053-.13.116-.254.186-.375.126-.188.24-.448.513-.427.274.02.244.313.326.5.082.188.078.388.245.527.116.094.294.187.23.375-.094.276-.13.587-.382.784a.185.185 0 01-.296-.064 2.413 2.413 0 01-.242-.473c-.087-.256-.112-.54-.461-.6-.097-.018-.117-.15-.12-.247zm1.911-3.111a.305.305 0 01-.127-.035c-.247-.126-.35-.542-.229-.896.136-.394.47-.671.756-.628a.844.844 0 01.645.679c.02.172-.119.172-.186.25-.067.08-.372.155-.084.359.06.045-.042.137-.11.17a1.027 1.027 0 01-.665.102zm-5.332-2.178c.076-.624.448-.883.93-.703a.431.431 0 01.325.418.438.438 0 01-.038.184c-.054.156-.123.255.069.375.078.05-.073.2-.144.287a.675.675 0 01-.725.28c-.298-.089-.372-.385-.428-.66a.567.567 0 01.011-.18zm-1.444-.845a.463.463 0 01.486.495 1.13 1.13 0 01-.264.75.53.53 0 01-.616.208.626.626 0 01-.482-.593c0-.054 0-.13.027-.16.154-.145.448-.205.284-.526 0-.01.08-.077.132-.1a.804.804 0 01.434-.074zm4.742-5.075a.354.354 0 00.486-.038c.07-.065.186-.018.25.075a.189.189 0 01-.047.26.56.56 0 00-.266.468c-.047.264-.276.375-.527.384-.251.01-.515.024-.7-.208a.247.247 0 01-.044-.107c-.054-.335.476-.877.848-.834zm-13.75 8.305c.097-.244.06-.575.407-.656.173-.04.43.255.536.62a.694.694 0 01.026.347.462.462 0 00.086.44.376.376 0 01.061.164.378.378 0 01-.258.416c-.187.068-.266-.116-.339-.253a.24.24 0 01-.026-.172c.147-.375-.058-.486-.372-.576-.153-.047-.162-.131-.121-.33zm18.682-6.92a.736.736 0 01.16-.446c.156-.157.299-.244.492-.05.097.093.23.151.324.245.246.242.313.497.197.675a.84.84 0 01-.774.319.612.612 0 01-.407-.582.953.953 0 01.007-.16zm-15.751 8.41c-.034.34-.264.642-.504.677a.8.8 0 01-.71-.448.353.353 0 01-.032-.112c-.02-.244.185-.36.332-.447.213-.118.443-.305.711-.164a.423.423 0 01.203.494zm27.892-2.859a.635.635 0 01-.485-.511c0-.27.225-.638.446-.698a.263.263 0 01.268.062c.163.136.298.304.396.493.173.366.106.538-.281.61-.113.02-.229.03-.344.044zM86.09 11.543c.314.045.41.197.312.482a1.505 1.505 0 01-.114.27c-.126.2-.266.406-.537.374-.21-.02-.463-.464-.426-.703.037-.238.229-.406.541-.427.078 0 .156.004.224.004zm2.541 6.151c-.218.255-.27.643-.593.836a.202.202 0 01-.298-.096 3.433 3.433 0 01-.233-.66c-.042-.204.123-.318.536-.421.26-.064.469.017.547.21.015.041.022.079.041.131zm-12.674-1.49c-.197.264-.33.583-.647.735a.143.143 0 01-.055.018c-.23 0-.284-.187-.308-.362-.032-.213-.242-.496.044-.631.214-.1.453-.13.685-.087.184.038.238.175.28.327zm10.159-2.702a.793.793 0 01.015-.124c.039-.23.147-.36.402-.292.097.008.194.022.29.043.16.064.322.131.357.347.035.215-.132.25-.26.33-.1.06-.186.153-.289.202-.137.068-.293.145-.442.036-.15-.109-.11-.276-.073-.542zm-5.491 1.093c.02-.163.032-.26.149-.294a2.11 2.11 0 01.448-.13.392.392 0 01.393.208.266.266 0 01-.064.325c-.152.153-.186.39-.372.523s-.34.133-.422-.066a3.28 3.28 0 01-.132-.566zm10.69 3.742c-.045.188 0 .444-.264.46a.776.776 0 01-.692-.237.234.234 0 01-.066-.191.238.238 0 01.107-.173c.12-.097.25-.18.388-.25.134-.065.281-.188.432-.09.18.115.132.307.095.481zM84.47 22.8a.47.47 0 01-.337-.421.365.365 0 01.264-.307.357.357 0 01.452.348c.015.148-.238.392-.38.38zm-2.88-6.62a.391.391 0 01-.372-.376c0-.165.173-.39.305-.394.186 0 .372.246.348.477-.024.23-.11.307-.281.292zm6.953-4.11a.733.733 0 01.415-.36c.141.01.284.262.26.46-.024.2-.147.33-.335.305a.476.476 0 01-.34-.405zm5.72 4.103a.41.41 0 01.348-.31c.144-.029.339.228.335.408a.304.304 0 01-.203.299.297.297 0 01-.126.014.382.382 0 01-.354-.41zm-.132-6.627a.376.376 0 01-.372.326c-.173-.033-.352-.088-.348-.326 0-.2.251-.431.432-.375.18.056.234.229.288.375zm14.311 8.673a.423.423 0 01-.232-.48c.057-.169.229-.283.363-.227a.375.375 0 01.245.42.333.333 0 01-.376.287zm-2.02-8.399a.317.317 0 01-.294-.304.337.337 0 01.389-.34c.202.022.255.172.268.33a.347.347 0 01-.118.233.336.336 0 01-.245.081zm-7.649 6.009a.452.452 0 01-.294-.464c.028-.144.247-.23.439-.17a.335.335 0 01.258.347c-.001.09-.327.305-.403.287zm-20.357 7.004a.376.376 0 01.316-.291.35.35 0 01.382.36.231.231 0 01-.23.223c-.185.02-.46-.152-.468-.292zM95.38 16.25a.321.321 0 01.207-.303.313.313 0 01.127-.02.289.289 0 01.252.213c.01.037.014.077.009.116 0 .178-.186.362-.333.324a.305.305 0 01-.262-.33zm-5.797 7.895a.185.185 0 01-.173-.161.19.19 0 01.008-.085.177.177 0 01.078-.117.172.172 0 01.14-.02c.12.023.217.092.204.233-.013.14-.132.167-.257.15zm16.452-9.801c-.019.116-.056.225-.218.2a.186.186 0 01-.158-.139.207.207 0 01-.004-.074c0-.149.129-.2.24-.207.112-.007.147.103.14.22zm-21.129 9.69c-.163-.103-.2-.21-.13-.32.047-.071.132-.158.231-.116.136.058.12.187.06.285a.701.701 0 01-.16.151zm8.269-10.609c-.033.09-.057.2-.173.21-.115.01-.15-.1-.15-.198 0-.1.018-.207.15-.207s.164.085.173.195zM76.203 21.17c.15-.355.638-.544 1.077-.375a.944.944 0 01.54 1.03.663.663 0 01-.352.398 2.59 2.59 0 01-.508.188c-.441.112-.687-.036-.793-.49a1.064 1.064 0 01.036-.751zm4.351-3.412a.745.745 0 01-.489-.596c-.028-.314.186-.505.435-.632.176-.09.364-.153.558-.188.47-.075.912.306.858.75-.045.362-.333.563-.625.69a.9.9 0 01-.737-.024zm-5.724.521c.186-.398.344-.527.59-.506a.88.88 0 01.727.579c.022.097-.026.137-.097.163a.28.28 0 00-.186.242c-.01.163.136.04.186.084.05.045.026.098 0 .133a.88.88 0 01-.81.35c-.28-.033-.49-.335-.479-.698a1.57 1.57 0 01.069-.347zm-4.423 1.365a3.44 3.44 0 01.268-.278c.167-.135.338-.324.574-.229.237.096.127.346.145.535.02.19-.04.363.07.534.074.116.208.242.098.392-.16.217-.28.48-.558.581a.169.169 0 01-.242-.14 2.193 2.193 0 01-.08-.486c0-.251.054-.508-.24-.66-.078-.041-.06-.161-.035-.25zM91.823 10.1a.398.398 0 01-.256-.371c0-.054.01-.107.03-.157.048-.153.165-.307-.095-.375 0 0-.017-.037 0-.05a.88.88 0 01.558-.469.443.443 0 01.522.188.98.98 0 01.168.78.649.649 0 01-.35.46.637.637 0 01-.577-.007zm-18.855 7.347a.272.272 0 01-.102-.068c-.186-.188-.156-.578.05-.855.229-.31.6-.46.84-.337a.778.778 0 01.373.78c-.03.159-.153.12-.236.17-.084.05-.372.03-.175.29.04.057-.077.108-.144.119a.935.935 0 01-.606-.1z" fill="#fff"/><path d="M91.632 17.78c-.186.023-.283-.13-.398-.236-.047-.045-.103-.161-.08-.188.195-.255.117-.549.152-.828.019-.154.171-.218.333-.22a.269.269 0 01.27.227c.104.328.199.658.277.994a.305.305 0 01-.123.375c-.15.09-.232 0-.335-.07l-.096-.054zm5.163-4.898a.513.513 0 01-.336-.507.39.39 0 01.273-.416c.225-.066.456-.137.666.04a1.01 1.01 0 01.313.729c.013.17-.127.251-.283.264a1.212 1.212 0 01-.633-.11zm-7.74.367c.186-.418.476-.47.783-.14.037.038.072.08.104.123.235.32.262.482.117.624a.693.693 0 01-.794.085c-.294-.197-.344-.372-.21-.692zm-2.498 7.467a.594.594 0 01-.292-.585.75.75 0 01.59-.487.25.25 0 01.219.13c.105.167.176.355.21.55.05.375-.058.503-.419.456-.098-.02-.204-.045-.308-.064zm1.968-9.089c.132-.31.307-.335.525-.095.089.086.173.178.253.273a.463.463 0 01.122.402c-.087.29-.333.215-.54.202-.21-.013-.433.032-.433-.266a1.107 1.107 0 01.073-.516zm9.589-1.959c.158-.146.17-.395.372-.529.2-.133.318-.108.405.066.077.164.132.336.166.514a.204.204 0 01-.153.253c-.186.043-.362.15-.575.107-.249-.05-.332-.184-.215-.41zm-6.442 4.565c-.108-.105-.264-.187-.255-.375.01-.187.164-.17.26-.24l.045-.032c.207-.107.438-.296.65-.127.212.168.015.444 0 .667a.226.226 0 01-.11.185.222.222 0 01-.212.008l-.378-.086zm2.352-1.155a11.041 11.041 0 01-.25-.206c-.145-.13-.185-.283-.033-.424.153-.14.246-.48.534-.375.216.077.212.349.244.563v.163c.031.337-.132.448-.495.28zm-22.148 4.803c-.09.149-.129.392-.363.33a.719.719 0 01-.543-.406.216.216 0 01.138-.308 2.16 2.16 0 01.414-.112c.136-.017.3-.083.406.046.106.13.028.304-.052.45zM48.177 1.035a.376.376 0 01-.076-.116 23.024 23.024 0 01-.171-.792c-.012-.054 0-.11.065-.12a.258.258 0 01.156 0c.17.092.43.681.387.853a.291.291 0 01-.361.175zM64.584 19.86a.435.435 0 01-.176-.467.334.334 0 01.444-.165.33.33 0 01.175.404.43.43 0 01-.443.227zm10.499-3.05a.373.373 0 01.397-.173c.133.016.232.298.186.455a.28.28 0 01-.144.18.273.273 0 01-.228.008.36.36 0 01-.21-.47zm11.926 5.852a.392.392 0 01-.071-.487.283.283 0 01.383-.098.34.34 0 01.099.44.304.304 0 01-.295.178.3.3 0 01-.116-.033zm3.849-7.082c-.1.187-.276.265-.424.174a.36.36 0 01-.084-.484c.084-.137.207-.218.357-.1.121.087.296.182.15.41zm-3.265-.904a.295.295 0 01.002-.549.311.311 0 01.262.009c.173.077.186.223.144.375a.313.313 0 01-.408.165zm-8.437 3.117a.418.418 0 01-.128-.491c.065-.118.283-.133.435-.024a.314.314 0 01.133.375c-.028.086-.376.18-.44.14zm18.339-3.415a.329.329 0 01.396-.188c.1.06.206.34.147.424a.349.349 0 01-.41.187.324.324 0 01-.133-.423zM59.238 18.16a.335.335 0 01.361-.164.32.32 0 01.21.159.327.327 0 01.025.264.211.211 0 01-.264.133c-.172-.035-.365-.266-.332-.391zm16.814-.961a.292.292 0 01.385-.188.268.268 0 01.163.26.274.274 0 01-.025.104.303.303 0 01-.269.205.297.297 0 01-.117-.017.283.283 0 01-.137-.364zm23.206-2.332a.989.989 0 01.489-.795.242.242 0 01.2-.019c.062.047.014.135-.029.188-.18.247-.404.46-.66.626zm1.976-2.269a5.899 5.899 0 01-.34.484c-.06.066-.123.223-.248.11-.097-.086-.031-.215.026-.301a.651.651 0 01.562-.293zM48.486 2.295c.031-.015.063-.045.089-.043a.373.373 0 01.245.457.21.21 0 01-.113.107c-.082.028-.129-.03-.15-.105a.755.755 0 01-.072-.416zm47.513 14.69c-.035.12-.084.16-.17.137-.14-.035-.236-.114-.174-.268.031-.075.084-.17.2-.139.174.041.122.193.144.27zm-8.575-5.142c-.09-.045-.147-.109-.09-.21a.253.253 0 01.328-.103c.097.032.106.133.069.225-.052.127-.164.159-.307.088zM68.717 22.506a.164.164 0 01-.11-.11.166.166 0 01.032-.154.163.163 0 01.103-.08.159.159 0 01.128.022.195.195 0 01.13.184.197.197 0 01-.015.079c-.058.134-.164.108-.268.06zm27.42-11.651c.095.022.095.092.069.16a.207.207 0 01-.209.147.203.203 0 01-.087-.026.151.151 0 01-.095-.088.155.155 0 01.006-.13c.07-.16.203-.082.316-.063zM85.98 18.56c-.05.096-.114.187-.25.112a.177.177 0 01-.082-.234c.042-.131.168-.139.27-.112.103.026.1.13.062.234zm10.419-7.147a.122.122 0 01.079-.075.118.118 0 01.107.021.256.256 0 01.11.326.147.147 0 01-.227.055.242.242 0 01-.07-.327zm-31.776 9.656c-.116-.137-.117-.242-.024-.32.06-.05.16-.102.234-.037.106.09.058.197-.028.268a.619.619 0 01-.182.088zm10.272-6.991c-.052.07-.106.16-.21.136-.104-.024-.104-.13-.076-.219.028-.088.074-.176.186-.139.111.038.122.122.1.222zm29.055-6.103a.118.118 0 01.048.03.122.122 0 01.019.158c-.028.075-.054.2-.175.135a.218.218 0 01-.07-.077.222.222 0 01-.025-.102.188.188 0 01.074-.11.184.184 0 01.129-.034z" fill="#fff"/></g><defs><clipPath id="clip0_5507_3136"><path fill="#fff" d="M0 0h132v132H0z"/></clipPath></defs></svg>