<svg width="159" height="160" fill="none" xmlns="http://www.w3.org/2000/svg"><g clip-path="url(#clip0_5507_1804)"><path d="M119.745 119.63l.141-.748c.939-4.957-2.352-9.827-7.45-11.381 5.322.375 10.171-2.988 11.11-7.945l.141-.747c.92-4.857-2.225-9.628-7.146-11.279 5.194.218 9.869-3.1 10.788-7.958l.143-.748c1.014-5.358-2.91-10.623-8.72-11.7l-16.814-3.114.021-.122-5.096-.815-11.747-2.175c-.288-4.453 7.902-12.517 9.172-16.723a36.322 36.322 0 00.461-19.19c-1.007-4.078-5.774-8.84-10.38-8.328-2.525.281-4.438 2.217-5.296 4.341-.859 2.124-.88 4.446-1.061 6.713-.513 6.445-4.312 10.412-9.624 14.697-4.656 3.754-8.314 7.096-10.253 12.77-1.508 4.405-6.214 7.143-11.272 6.551l-5.302-.62c-3.114 17.794-6.463 35.408-9.11 53.095a222.929 222.929 0 0015.625 2.595l-.05.318 27.631 4.434 31.685 5.872c5.804 1.069 11.389-2.435 12.403-7.793z" fill="#FCFCF0"/><path d="M119.994 87.314l-20.885-3.176c-.922-.14-1.308 1.284-.37 1.422l20.889 3.177c.924.14 1.309-1.283.371-1.42l-.005-.003zm-3.096 20.697l-20.292-3.087c-.923-.14-1.309 1.284-.37 1.421l20.291 3.087c.924.14 1.309-1.283.371-1.421zM94.872 23.16L80.55 20.981c-1.847-.282-2.614 2.56-.743 2.844l14.325 2.178c1.845.281 2.611-2.558.74-2.843z" fill="#00153B"/><path d="M122.418 119.183l.125-.719c.823-4.776-2.671-9.459-7.919-10.942 5.446.346 10.307-2.904 11.133-7.68l.124-.718c.807-4.68-2.533-9.266-7.605-10.846 5.31.2 9.997-3.011 10.805-7.69l.124-.721c.891-5.162-3.259-10.224-9.223-11.245l-41.591-7.126c-5.965-1.023-11.573 2.365-12.465 7.529l-.124.72c-.809 4.68 2.532 9.265 7.606 10.845-5.313-.199-9.998 3.01-10.806 7.69l-.124.72c-.825 4.777 2.668 9.457 7.917 10.943-5.445-.347-10.308 2.902-11.132 7.679l-.125.719c-.89 5.165 3.26 10.225 9.224 11.245l41.591 7.127c5.964 1.022 11.573-2.366 12.465-7.53z" fill="#FCFCF0"/><path d="M120.359 67.203l-25.323-4.338-14.098-2.416c-4.58-.79-9.188-.872-12.982 2.358-2.81 2.393-4.206 6.323-3.594 9.965.772 4.595 4.455 7.786 8.678 9.243l.372-2.887c-5.806-.05-11.315 3.314-12.311 9.324-1.023 6.175 3.271 11.135 8.934 12.919l.37-2.886c-7.417-.254-14.45 5.731-12.552 13.597 1.312 5.437 6.269 8.271 11.41 9.151l30.123 5.156 10.219 1.753c1.848.325 2.609-2.525.742-2.844l-21.276-3.647-14.35-2.459c-2.422-.414-4.996-.641-7.366-1.344-4.074-1.206-7.382-4.892-6.746-9.321.704-4.895 5.199-7.27 9.811-7.112 1.716.064 1.902-2.406.371-2.886-4.257-1.345-7.593-5.004-6.776-9.685.796-4.585 5.087-6.815 9.425-6.778 1.736.016 1.88-2.366.364-2.89-4.04-1.394-7.198-4.932-6.495-9.415.57-3.633 3.445-6.108 6.984-6.784 2.833-.541 5.92.322 8.71.798l28.445 4.874 8.191 1.403c1.848.325 2.608-2.523.741-2.844l-.021-.005z" fill="#00153B"/><path d="M121.676 86.193L73.502 77.94c-1.847-.325-2.608 2.523-.741 2.842l48.174 8.256c1.847.325 2.607-2.523.741-2.845zm-3.725 21.577l-48.104-8.243c-1.848-.325-2.608 2.523-.74 2.843l48.102 8.242c1.848.325 2.608-2.523.742-2.842z" fill="#00153B"/><path d="M74.632 61.566l-9.749 56.461c-.327 1.85 2.52 2.605 2.841.737l9.747-56.46c.328-1.85-2.517-2.607-2.84-.737l.001-.002z" fill="#00153B"/><path d="M41.568 61.099L25.76 58.546l-8.655 53.162 15.808 2.553 8.655-53.162z" fill="#2367ED"/></g><defs><clipPath id="clip0_5507_1804"><path fill="#fff" transform="rotate(30 28.574 110.816)" d="M0 0h114.538v117.332H0z"/></clipPath></defs></svg>