<svg width="86" height="86" fill="none" xmlns="http://www.w3.org/2000/svg"><path d="M70.614 84.522a259.404 259.404 0 01-55.228 0c-7.34-.79-13.136-6.568-13.908-13.908a259.412 259.412 0 010-55.228c.79-7.34 6.584-13.135 13.908-13.908a259.413 259.413 0 0155.228 0c7.34.79 13.135 6.584 13.908 13.908a259.417 259.417 0 010 55.228 15.625 15.625 0 01-13.908 13.908z" fill="#FFFCF8"/><path d="M67.59 79.987a231.583 231.583 0 01-49.197 0 13.973 13.973 0 01-12.38-12.396 231.587 231.587 0 010-49.198 13.973 13.973 0 0112.396-12.38 231.587 231.587 0 0149.198 0A13.974 13.974 0 0180.004 18.41a231.583 231.583 0 010 49.198 14.005 14.005 0 01-12.413 12.38z" fill="url(#paint0_linear_5507_797)"/><path opacity=".5" d="M70.614 84.522a259.404 259.404 0 01-55.228 0c-7.34-.79-13.136-6.568-13.908-13.908a259.412 259.412 0 010-55.228c.79-7.34 6.584-13.135 13.908-13.908a259.413 259.413 0 0155.228 0c7.34.79 13.135 6.584 13.908 13.908a259.417 259.417 0 010 55.228 15.625 15.625 0 01-13.908 13.908z" fill="url(#paint1_linear_5507_797)"/><path d="M56.203 26.506a12.743 12.743 0 01-2.604-7.727h-.033v-.017h-2.2a12.807 12.807 0 004.837 7.744zM35.34 43.957a7.523 7.523 0 00-7.525 7.525 7.535 7.535 0 003.578 6.417 7.504 7.504 0 01-1.108-3.947 7.523 7.523 0 017.525-7.526c.823 0 1.629.135 2.368.387V38.38a15.715 15.715 0 00-2.368-.185h-.101v6.148a7.444 7.444 0 00-2.369-.387z" fill="#F00044"/><path d="M66.415 31.578c-.84 0-1.663-.084-2.452-.235v5.997a20.79 20.79 0 01-8.197-1.663 20.469 20.469 0 01-4.653-2.721V51.55h-.017c-.016 4.182-1.646 8.113-4.619 11.069-2.402 2.402-5.459 3.947-8.768 4.434-.772.118-1.562.168-2.368.168-3.628 0-7.055-1.21-9.843-3.443.37.453.756.89 1.159 1.31 2.973 2.99 6.937 4.62 11.136 4.62.807 0 1.596-.068 2.369-.169a15.695 15.695 0 008.768-4.434 15.654 15.654 0 004.619-11.07h.017v-18.61a20.844 20.844 0 004.652 2.72 20.79 20.79 0 008.197 1.664v-8.23z" fill="url(#paint2_linear_5507_797)"/><path d="M63.946 31.343v-2.234a12.79 12.79 0 01-7.744-2.604 12.883 12.883 0 007.744 4.838z" fill="#08FFF9"/><path d="M37.793 61.477c.823 0 1.63-.135 2.368-.387 2.99-.99 5.157-3.813 5.157-7.138l.017-12.464V18.762h6.03a13.06 13.06 0 01-.235-2.452h-.034v-.017h-8.213v22.743l-.017 12.463c0 3.326-2.167 6.148-5.157 7.139a7.37 7.37 0 01-2.368.386 7.503 7.503 0 01-3.947-1.108 7.53 7.53 0 006.4 3.56z" fill="url(#paint3_linear_5507_797)"/><path d="M26.657 42.815a15.676 15.676 0 0111.035-4.619v-2.284a15.64 15.64 0 00-13.505 4.434 15.669 15.669 0 00-4.619 11.137c0 4.199 1.646 8.163 4.62 11.136.42.42.856.806 1.31 1.159a15.638 15.638 0 01-3.444-9.843c0-4.183 1.63-8.147 4.603-11.12z" fill="#08FFF9"/><path d="M37.692 67.07a15.695 15.695 0 008.768-4.434 15.654 15.654 0 004.62-11.07h.016v-18.61a20.837 20.837 0 004.653 2.72 20.79 20.79 0 008.197 1.663v-5.996a12.812 12.812 0 01-7.76-4.837 12.882 12.882 0 01-4.838-7.744h-6.03v22.743L45.3 53.968c0 3.326-2.167 6.148-5.157 7.14a7.367 7.367 0 01-2.368.385 7.535 7.535 0 01-6.416-3.577 7.514 7.514 0 01-3.578-6.417 7.523 7.523 0 017.525-7.525c.823 0 1.63.135 2.368.387V38.23c-4.165.017-8.08 1.663-11.035 4.619a15.67 15.67 0 00-4.62 11.136c0 3.612 1.21 7.055 3.444 9.843a15.638 15.638 0 009.843 3.444c.823-.034 1.612-.084 2.385-.202z" fill="#000"/><defs><linearGradient id="paint0_linear_5507_797" x1="10.021" y1="10.021" x2="75.979" y2="75.98" gradientUnits="userSpaceOnUse"><stop stop-color="#E8EBEE"/><stop offset="1" stop-color="#E8EBEE" stop-opacity="0"/></linearGradient><linearGradient id="paint1_linear_5507_797" x1="43.001" y1="69.888" x2="43.001" y2="84.418" gradientUnits="userSpaceOnUse"><stop stop-color="#94A1B2" stop-opacity="0"/><stop offset="1" stop-color="#94A1B2"/></linearGradient><linearGradient id="paint2_linear_5507_797" x1="41.125" y1="42.924" x2="56.117" y2="57.916" gradientUnits="userSpaceOnUse"><stop stop-color="#F00044"/><stop offset="1" stop-color="#C70038"/></linearGradient><linearGradient id="paint3_linear_5507_797" x1="31.586" y1="27.578" x2="53.204" y2="49.196" gradientUnits="userSpaceOnUse"><stop stop-color="#08FFF9"/><stop offset="1" stop-color="#07D4CF"/></linearGradient></defs></svg>