<svg width="85" height="85" fill="none" xmlns="http://www.w3.org/2000/svg"><rect x="4.491" y="4.491" width="76.017" height="76.017" rx="38.009" fill="#FCFCF0" stroke="#F68D2E" stroke-width="6"/><rect x="6.465" y="6.465" width="72.07" height="72.07" rx="36.035" fill="#FCFCF0" stroke="#2D2A26"/><g clip-path="url(#clip0_5507_1365)" fill="#2D2A26"><path d="M48.542 19.863c-2.664-.709-3.533-2.034-2.973-4.151l.808-3.027 1.557.418-.808 3.027c-.235.85-.252 1.89 1.765 2.424 2.016.534 2.508-.378 2.732-1.219l.808-3.027 1.554.418-.796 3.01c-.57 2.127-1.992 2.836-4.647 2.127zm10.567 3.347l-.149 2.192-1.53-1.11.152-1.955-2.12-1.519-.975 1.366-1.31-.945 3.654-5.109 4.004 2.878c1.157.834 1.413 2.14.608 3.28-.598.834-1.458 1.143-2.334.921zm-2.857-3.493l2.327 1.675c.393.281 1.005.72 1.552-.045.547-.765-.056-1.212-.45-1.495l-2.327-1.676-1.102 1.54zm4.388 7.885l-1.06-1.217 4.711-4.138 1.06 1.217-4.711 4.138zm10.165 5.082l-5.603 2.824-.985-1.966 2.28-5.945-4.2 2.127-.723-1.444 5.6-2.835.979 1.958-2.282 5.957 4.204-2.126.73 1.45zm-.315 4.835l-1.263.144.565 4.995-1.156.13-.566-4.995-1.262.144.565 4.995-1.272.147-.746-6.602 6.223-.709.749 6.6-1.272.146-.566-4.995zM67.814 49.52c.653.222.806.747.497 1.666-.308.92-.751 1.243-1.413 1.02-.662-.221-.813-.76-.504-1.67.308-.91.76-1.24 1.42-1.016zm-9.01 9.553c1.97-1.937 3.545-2.015 5.074-.45l2.186 2.237-1.15 1.13-2.186-2.239c-.614-.626-1.488-1.18-2.977.289-1.488 1.47-.954 2.363-.346 2.98l2.186 2.237-1.15 1.132-2.186-2.238c-1.533-1.557-1.413-3.15.55-5.078zm-8.241 7.429l-1.81-1.238 1.734-.77 1.602 1.125 2.377-1.052-.678-1.536 1.474-.654 2.532 5.749-4.501 1.996c-1.303.58-2.56.144-3.126-1.136a2.15 2.15 0 01.396-2.484zm4.45-.694l-2.622 1.16c-.44.196-1.129.5-.75 1.363.38.863 1.072.567 1.513.371l2.626-1.162-.768-1.732zm-9-.22l1.583-.293 1.142 6.181-1.583.293-1.142-6.181zm-9.526 6.198l.42-6.271 2.188.146 3.945 4.988.313-4.709 1.61.109-.42 6.27-2.188-.141L38.4 67.18l-.313 4.712-1.6-.106zm-3.995-2.729l.516-1.165-4.577-2.049.471-1.066 4.577 2.049.518-1.165-4.576-2.049.52-1.181 6.054 2.717-2.554 5.74-6.048-2.708.52-1.181 4.58 2.058zm-8.936-8.415c-.52.452-1.05.315-1.682-.42-.63-.735-.685-1.279-.162-1.73.523-.451 1.064-.316 1.689.414.624.73.685 1.278.155 1.736zm-3.632-12.639c.66 2.684-.076 4.086-2.196 4.61l-3.034.75-.383-1.57 3.031-.749c.853-.21 1.769-.685 1.27-2.717-.5-2.032-1.538-2.025-2.382-1.817l-3.031.749-.386-1.57 3.033-.748c2.11-.522 3.425.385 4.078 3.062zm-2.182-10.89l1.984-.934-.22 1.89-1.78.813-.302 2.588 1.663.194-.186 1.606-6.225-.742.572-4.905c.165-1.418 1.178-2.285 2.563-2.127a2.13 2.13 0 011.931 1.617zm-1.649 4.198l.333-2.854c.056-.473.143-1.229-.79-1.34-.932-.11-1.031.64-1.085 1.12l-.335 2.855 1.877.22zm4.747-7.679l-.551 1.52-5.889-2.15.552-1.52 5.888 2.15zm-.466-11.377l5.165 3.558-1.241 1.815-6.292.86 3.875 2.67-.914 1.333-5.165-3.559 1.236-1.807 6.306-.863-3.882-2.675.912-1.332zm4.366-2.056l.738 1.04 4.082-2.919.676.945-4.082 2.919.737 1.037 4.082-2.916.742 1.045-5.394 3.856-3.635-5.106 5.395-3.857.741 1.047-4.081 2.909zm11.766-3.45c-.12-.68.264-1.068 1.215-1.238.952-.17 1.449.061 1.569.742.12.68-.273 1.077-1.215 1.247-.943.17-1.447-.061-1.57-.751z"/></g><g clip-path="url(#clip1_5507_1365)"><path d="M45.703 54.08h-7.834c-1.075 0-1.981-.8-2.112-1.864l-.41-3.339.002-3.776-.93-3.776-.56-4.572h15.854l-1.898 15.463a2.126 2.126 0 01-2.112 1.864z" fill="#E3F2FF"/><path d="M47.85 36.753l-1.9 15.463a2.126 2.126 0 01-2.111 1.864h1.864c1.075 0 1.981-.8 2.112-1.864l1.899-15.463h-1.865z" fill="#CFE9FF"/><path d="M35.757 52.216a2.126 2.126 0 002.112 1.864h7.834c1.075 0 1.981-.8 2.112-1.864l.835-6.8h-7.936l-5.36 3.46.403 3.34z" fill="#FFBE30"/><path d="M46.785 45.417l-.834 6.799a2.126 2.126 0 01-2.112 1.864h1.864c1.075 0 1.981-.8 2.112-1.864l.835-6.8h-1.864z" fill="#FFAF00"/><path d="M40.097 48.876h-4.742l-.924-7.552h5.666c.705 0 1.276.57 1.276 1.273v5.006c0 .703-.571 1.273-1.276 1.273z" fill="#fff"/><path d="M49.808 37.602H33.764a.85.85 0 01-.85-.85v-2.917c0-.47.38-.85.85-.85h16.044c.47 0 .85.38.85.85v2.917c0 .47-.38.85-.85.85z" fill="#FF4C30"/><path d="M50.927 30.918s-2.652 3.143-2.652 5.522a2.648 2.648 0 002.652 2.645 2.648 2.648 0 002.652-2.645c0-2.201-2.652-5.522-2.652-5.522z" fill="#FFBE30"/><path d="M50.928 30.918s-.433.513-.95 1.282c.767 1.168 1.737 2.908 1.737 4.24 0 1.133-.715 2.1-1.72 2.476a2.648 2.648 0 003.584-2.477c0-2.2-2.651-5.521-2.651-5.521z" fill="#FFAF00"/><path d="M34.632 36.66a.35.35 0 00.35-.35v-2.033a.35.35 0 10-.7 0v2.033c0 .193.157.35.35.35zm1.788 0a.35.35 0 00.35-.35v-2.033a.35.35 0 00-.7 0v2.033c0 .193.157.35.35.35zm1.789 0a.35.35 0 00.35-.35v-2.033a.35.35 0 00-.7 0v2.033c0 .193.157.35.35.35zm1.788 0a.35.35 0 00.35-.35v-2.033a.35.35 0 10-.7 0v2.033c0 .193.157.35.35.35zm1.788 0a.35.35 0 00.35-.35v-2.033a.35.35 0 00-.7 0v2.033c0 .193.157.35.35.35zm1.789 0a.35.35 0 00.35-.35v-2.033a.35.35 0 00-.7 0v2.033c0 .193.157.35.35.35zm1.789 0a.35.35 0 00.35-.35v-2.033a.35.35 0 10-.7 0v2.033c0 .193.157.35.35.35zm1.788 0a.35.35 0 00.35-.35v-2.033a.35.35 0 00-.7 0v2.033c0 .193.157.35.35.35z" fill="#000"/><path d="M52.053 31.892c-.229-.402-.822-.09-.619.326.573 1.086 1.795 3.532 1.795 4.222-.125 3.046-4.466 3.034-4.604 0 0-1.781 1.633-4.09 2.295-4.952.137.185.317.436.514.73a.35.35 0 10.58-.39c-.449-.67-.8-1.11-.814-1.128a.353.353 0 00-.54-.007 16.91 16.91 0 00-1.378 1.942H33.764a1.2 1.2 0 00-1.2 1.2v2.917c0 .624.48 1.138 1.089 1.194L35.41 52.26a2.478 2.478 0 002.459 2.17h1.054a.35.35 0 000-.698h-1.054c-.897 0-1.656-.67-1.765-1.558l-.362-2.947h4.354c.897 0 1.626-.728 1.626-1.623v-1.837h6.532l-.786 6.407a1.778 1.778 0 01-1.765 1.558h-7.21a.35.35 0 000 .699h7.21c1.25 0 2.306-.934 2.458-2.171l1.604-13.06c1.92.844 4.197-.657 4.163-2.761 0-.804-1.249-3.36-1.875-4.548zm-18.79 4.86v-2.917c0-.276.225-.5.501-.5h15.118c-.642 1.247-1.196 2.6-.844 3.918H33.764a.501.501 0 01-.5-.5zm7.76 10.85c0 .51-.416.925-.927.925h-4.44l-.242-1.97h3.053a.35.35 0 100-.7h-3.139l-.19-1.544h3.329a.35.35 0 100-.699h-3.414l-.238-1.94h5.28c.512 0 .928.414.928.923v5.006zm7.317-2.535h-6.618v-2.47c0-.895-.73-1.623-1.626-1.623h-5.367l-.371-3.022h13.98c.197.336.46.631.77.868l-.768 6.247z" fill="#000"/><path d="M50.185 36.478c-.014-.461-.684-.462-.699 0 0 .772.63 1.4 1.402 1.4.462-.015.462-.685 0-.7a.702.702 0 01-.703-.7z" fill="#000"/></g><defs><clipPath id="clip0_5507_1365"><path fill="#fff" transform="translate(12.676 12.675)" d="M0 0h59.649v59.649H0z"/></clipPath><clipPath id="clip1_5507_1365"><path fill="#fff" transform="translate(31.316 30.57)" d="M0 0h23.86v23.86H0z"/></clipPath></defs></svg>