<svg width="477" height="576" viewBox="0 0 477 576" fill="none" xmlns="http://www.w3.org/2000/svg">
<g clip-path="url(#clip0_5506_966)">
<path d="M0.000152588 445.428C0.000152588 445.428 5.05025 451.232 23.5487 450.928C42.0472 450.624 34.4646 421.161 34.4646 421.161C34.4646 421.161 18.9992 419.883 17.4827 421.161C15.9662 422.44 0.000152588 445.428 0.000152588 445.428Z" fill="#362E4D"/>
<path d="M332.405 202.49C332.405 202.49 363.922 217.57 384.263 266.06C403.088 310.903 429.425 390.316 429.425 390.316L315.086 412.137L332.405 202.49Z" fill="#8ABADD"/>
<path d="M472.739 502.631C472.739 502.631 476.329 518.938 476.978 529.314C477.348 535.34 473.103 544.331 465.598 541.737C459.054 539.476 454.534 531.149 452.621 525.104C450.422 518.159 448.768 508.279 448.768 508.279L472.739 502.631Z" fill="#A66161"/>
<path d="M186.727 168.473L131.948 184.038L176.813 266.064C176.813 266.064 218.211 270.107 224.599 270.107C230.988 270.107 245.538 271.723 248.775 263.236C252.012 254.749 274.685 188.882 274.685 188.882L230.191 183.223L186.727 168.473Z" fill="#A66161"/>
<path d="M208.837 89.4266C208.837 62.48 231.9 42.8084 260.087 42.8084C283.965 42.8084 311.344 60.3083 311.344 87.2549C311.344 114.201 288.489 136.049 260.302 136.049C232.115 136.049 208.837 116.373 208.837 89.4266Z" fill="#362E4D"/>
<path d="M253.888 170.159L251.014 179.494L245.86 196.249L243.302 204.595L206.572 227.595L173.917 189.712L214.225 122.888L253.888 170.159Z" fill="#A66161"/>
<path d="M251.014 179.491L245.86 196.249C243.55 195.816 240.669 194.522 237.332 191.572C221.337 177.541 220.888 153.849 220.888 153.849L251.014 179.491Z" fill="#362E4D"/>
<path d="M210.587 109.128C210.503 111.817 210.626 114.508 210.958 117.177C211.743 123.698 213.732 130.016 216.824 135.811C217.728 137.575 218.749 139.276 219.879 140.903C226.839 150.965 237.306 158.044 249.813 159.912C266.913 162.458 283.502 154.601 294.129 140.711C294.322 140.466 298.326 132.732 300.873 127.81C301.333 126.913 301.745 126.113 302.086 125.46C302.497 124.66 302.787 124.078 302.909 123.882C302.926 123.862 302.935 123.837 302.935 123.811L302.957 123.785C302.957 123.785 303.005 123.641 303.102 123.374C303.198 123.107 303.272 122.818 303.395 122.403C304.655 118.356 305.916 114.769 308.126 107.208C316.565 78.138 292.382 60.2675 266.524 56.391C242.775 52.8481 220.05 69.3622 212.894 94.1629C212.894 94.1629 212.868 94.2593 212.819 94.4038C212.17 96.6079 211.667 98.8525 211.314 101.123C210.885 103.771 210.642 106.446 210.587 109.128Z" fill="#A66161"/>
<path d="M217.365 148.782C219.219 164.033 228.185 178.312 247.399 184.36C265.133 189.96 277.988 177.015 285.845 163.851C291.233 154.783 298.267 136.452 301.37 128.114C301.759 127.095 302.112 126.224 302.342 125.542C302.657 124.645 302.876 124.041 302.924 123.845C302.941 123.825 302.95 123.8 302.95 123.774L301.952 124.404L300.425 124.775L296.932 125.575L257.184 134.7L220.331 106.215L219.46 105.537C219.451 105.74 219.426 105.942 219.386 106.141C219.363 106.278 219.355 106.417 219.36 106.556C219.193 107.668 218.948 109.68 218.755 112.348C218.196 118.119 216.983 126.702 216.816 135.793C216.696 140.13 216.879 144.471 217.365 148.782Z" fill="#A66161"/>
<path d="M261.689 118.882C259.52 119.412 257.695 122.347 257.332 124.812C257.173 125.875 257.402 127.087 258.129 127.736C259.182 128.666 260.725 128.047 261.759 127.058C262.655 126.178 263.347 125.113 263.787 123.937C264.183 123.002 264.319 121.978 264.18 120.972C264.01 119.983 263.387 119.067 262.549 118.867C262.265 118.802 261.97 118.807 261.689 118.882Z" fill="#362E4D"/>
<path d="M290.143 130.456C288.059 130.964 286.305 133.792 285.953 136.141C285.801 137.168 286.02 138.331 286.724 138.954C287.733 139.847 289.224 139.251 290.21 138.302C291.071 137.456 291.736 136.433 292.16 135.304C292.535 134.407 292.663 133.427 292.531 132.465C292.364 131.512 291.767 130.612 290.963 130.441C290.692 130.381 290.411 130.386 290.143 130.456Z" fill="#362E4D"/>
<path d="M270.558 146.559C271.871 146.559 273.024 146.466 273.58 146.188C274.136 145.91 275.3 145.336 275.894 134.258C275.906 133.94 275.793 133.63 275.578 133.394C275.364 133.159 275.065 133.017 274.747 133C274.429 132.983 274.117 133.092 273.878 133.303C273.64 133.514 273.494 133.811 273.472 134.129C273.261 138.102 272.76 142.819 272.293 144.065C271.366 144.213 268.522 144.113 266.175 143.898C265.861 143.879 265.552 143.984 265.313 144.189C265.075 144.395 264.925 144.685 264.897 144.998C264.868 145.312 264.963 145.624 265.161 145.869C265.359 146.114 265.644 146.272 265.957 146.311C267.221 146.411 269.001 146.559 270.558 146.559Z" fill="#362E4D"/>
<path d="M271.214 154.026C268.233 153.376 265.353 152.33 262.649 150.917C259.507 149.305 256.587 147.293 253.962 144.932C253.962 144.932 252.601 151.818 258.585 155.038C264.7 158.329 271.214 154.026 271.214 154.026Z" fill="white"/>
<path d="M256.991 107.053C257.28 106.912 257.583 106.801 257.896 106.723C261.704 105.797 265.721 106.325 269.16 108.205C270.91 109.176 275.982 113.323 272.204 115.061C271.746 115.243 271.256 115.331 270.763 115.32C270.271 115.31 269.785 115.202 269.334 115.002C268.436 114.599 267.579 114.113 266.772 113.549C264.18 111.926 261.314 110.788 258.315 110.192C257.269 109.984 255.938 109.562 255.901 108.494C255.879 107.835 256.375 107.364 256.991 107.053Z" fill="#362E4D"/>
<path d="M292.405 123.744C293.269 124.209 294.18 124.582 295.123 124.856C295.731 125.075 296.335 125.316 296.917 125.597C298.307 126.206 299.632 126.95 300.874 127.821C301.04 127.926 301.201 128.04 301.356 128.162C301.745 127.143 302.097 126.272 302.327 125.59C302.642 124.693 302.861 124.089 302.909 123.893C302.926 123.873 302.935 123.848 302.935 123.822L302.957 123.796C302.957 123.796 303.006 123.652 303.102 123.385C301.632 121.781 299.832 120.514 297.826 119.672C296.15 118.993 292.705 118.311 291.081 119.549C289.376 120.857 291 122.918 292.405 123.744Z" fill="#362E4D"/>
<path d="M309.457 101.019C309.457 101.019 264.592 78.4679 258.689 77.8601C252.786 77.2523 245.652 101.949 239.434 101.649C233.216 101.349 225.489 110.518 220.031 117.411C214.573 124.304 212.66 125.479 212.66 125.479C211.224 120.616 210.194 115.643 209.579 110.61C209.271 108.046 204.729 77.5006 215.719 66.2861C222.523 59.3485 232.697 57.5584 240.962 57.4213C249.227 57.2842 258.548 53.9376 261.429 54.2415C264.31 54.5454 269.156 52.7369 278.711 54.2193C288.267 55.7017 297.662 61.8167 301.3 65.3003C304.937 68.784 311.003 77.7267 311.311 86.3654C311.619 95.0042 309.457 101.019 309.457 101.019Z" fill="#362E4D"/>
<path d="M239.494 109.869C237.395 119.79 230.45 126.724 223.98 125.357C217.51 123.989 213.969 114.839 216.071 104.918C218.174 94.9968 225.115 88.0591 231.585 89.4266C238.055 90.7942 241.592 99.937 239.494 109.869Z" fill="#A66161"/>
<path d="M258.523 55.8907C258.523 55.8907 268.808 34.5958 272.835 25.2603C275.208 19.8125 280.08 10.262 275.579 4.7289C271.923 0.23719 266.12 5.96301 264.281 9.4578C262.753 12.3559 260.769 18.6117 260.769 18.6117C260.769 18.6117 259.854 0 250.087 0C238.637 0 245.66 20.4425 245.66 20.4425C245.66 20.4425 235.968 4.47689 228.107 9.00196C218.033 14.7982 232.404 29.2851 237.873 35.6854C245.808 45.0135 258.523 55.8907 258.523 55.8907Z" fill="#362E4D"/>
<path d="M257.284 186.669C257.284 186.669 237.962 236.968 220.884 239.999C203.805 243.031 162.897 175.24 162.897 175.24L131.947 184.034C131.947 184.034 139.226 269.699 136.193 277.578C133.16 285.457 170.153 420.016 162.27 475.777C154.387 531.538 156.812 577 156.812 577H296.713C296.713 577 302.038 313.33 303.102 289.093C304.166 264.855 302.653 194.218 299.924 192.736C297.195 191.254 257.284 186.669 257.284 186.669Z" fill="#F5CABF"/>
<path d="M142.897 180.921C142.897 180.921 153.424 219.349 162.271 271.823C167.172 300.915 174.48 377.79 177.228 405.474C188.118 515.298 182.482 577.004 182.482 577.004H68.2803C68.2803 577.004 64.3388 553.363 61.6061 509.721C58.8734 466.078 63.7307 219.09 69.1887 212.126C74.6466 205.162 96.9975 197.176 104.257 193.944C111.517 190.713 142.897 180.921 142.897 180.921Z" fill="#8ABADD"/>
<path d="M283.087 189.849C283.087 189.849 292.041 225.449 293.862 249.694C295.682 273.939 296.194 349.705 296.713 371.515C297.232 393.325 295.601 479.405 294.118 498.799C292.634 518.193 288.7 576.996 288.7 576.996H352.079C352.079 576.996 350.866 504.262 354.504 470.926C358.141 437.59 358.749 244.487 351.875 227.591C345 210.696 335.327 200.537 315.085 195.367C304.578 192.705 293.88 190.86 283.087 189.849Z" fill="#8ABADD"/>
<path d="M348.118 359.144C348.423 359.145 348.717 359.03 348.941 358.825C349.166 358.619 349.305 358.336 349.331 358.033L354.025 290.683C354.049 290.364 353.945 290.048 353.736 289.805C353.528 289.562 353.232 289.411 352.913 289.386C352.596 289.372 352.285 289.479 352.044 289.685C351.803 289.892 351.649 290.182 351.615 290.498L346.921 357.832C346.898 358.151 347.002 358.466 347.211 358.708C347.419 358.95 347.715 359.1 348.033 359.126L348.118 359.144Z" fill="#362E4D"/>
<path d="M188.118 357.173L167.12 382.437C167.12 382.437 199.06 442.241 209.568 443.453C220.076 444.665 253.888 443.453 253.888 443.453L243.932 354.96L188.118 357.173Z" fill="#A66161"/>
<path d="M188.118 357.173C188.118 357.173 200.472 339.384 229.582 334.566C258.693 329.748 311.155 332.142 321.452 332.142C327.51 332.142 335.868 332.372 341.997 332.372C353.614 332.372 363.206 345.369 355.345 355.698C350.874 361.59 344.648 361.576 339.891 361.59L322.731 361.642L297.225 361.72L243.168 361.883C237.491 361.883 231.266 362.65 225.622 361.935L188.118 357.173Z" fill="#A66161"/>
<path d="M270.21 361.224C270.256 361.227 270.304 361.227 270.351 361.224C270.503 361.224 285.423 359.341 285.575 346.7C285.727 334.058 271.715 332.168 271.574 332.15C271.255 332.11 270.933 332.198 270.679 332.396C270.426 332.593 270.261 332.883 270.221 333.202C270.181 333.521 270.269 333.843 270.467 334.097C270.664 334.35 270.955 334.515 271.274 334.555C271.763 334.618 283.272 336.197 283.139 346.67C283.009 357.202 270.191 358.8 270.061 358.818C269.753 358.853 269.469 359.004 269.269 359.24C269.069 359.477 268.967 359.782 268.985 360.091C269.002 360.401 269.138 360.692 269.364 360.905C269.589 361.117 269.888 361.235 270.198 361.235L270.21 361.224Z" fill="white"/>
<path d="M299.895 361.224C299.942 361.227 299.989 361.227 300.036 361.224C300.188 361.224 315.108 359.341 315.26 346.7C315.412 334.058 301.4 332.168 301.259 332.15C300.94 332.11 300.618 332.198 300.364 332.396C300.111 332.593 299.946 332.883 299.906 333.202C299.866 333.521 299.955 333.843 300.152 334.097C300.35 334.35 300.64 334.515 300.959 334.555C301.448 334.618 312.961 336.197 312.824 346.67C312.698 357.202 299.876 358.8 299.746 358.818C299.438 358.853 299.155 359.004 298.954 359.24C298.754 359.477 298.652 359.782 298.67 360.091C298.687 360.401 298.823 360.692 299.049 360.905C299.275 361.117 299.573 361.235 299.884 361.235L299.895 361.224Z" fill="white"/>
<path d="M329.583 361.224C329.629 361.227 329.675 361.227 329.721 361.224C329.873 361.224 344.793 359.341 344.945 346.7C345.097 334.058 331.085 332.168 330.944 332.15C330.625 332.11 330.303 332.198 330.049 332.396C329.796 332.593 329.631 332.883 329.591 333.202C329.551 333.521 329.64 333.843 329.837 334.097C330.035 334.35 330.325 334.515 330.644 334.555C331.137 334.618 342.646 336.197 342.509 346.67C342.383 357.202 329.561 358.8 329.435 358.818C329.127 358.853 328.843 359.004 328.643 359.24C328.443 359.477 328.341 359.782 328.358 360.091C328.376 360.401 328.512 360.692 328.737 360.905C328.963 361.117 329.262 361.235 329.572 361.235L329.583 361.224Z" fill="white"/>
<path d="M244.678 361.576H471C474.314 361.576 477 364.262 477 367.576V516.451C477 519.765 474.314 522.451 471 522.451H244.678C241.364 522.451 238.678 519.764 238.678 516.451V367.576C238.678 364.262 241.364 361.576 244.678 361.576Z" fill="#FCFCF0"/>
<mask id="mask0_5506_966" style="mask-type:alpha" maskUnits="userSpaceOnUse" x="238" y="361" width="239" height="162">
<path d="M244.678 361.576H471C474.314 361.576 477 364.262 477 367.576V516.451C477 519.765 474.314 522.451 471 522.451H244.678C241.364 522.451 238.678 519.764 238.678 516.451V367.576C238.678 364.262 241.364 361.576 244.678 361.576Z" fill="#FCFCF0"/>
</mask>
<g mask="url(#mask0_5506_966)">
<path d="M318.178 596.578C349.736 548.124 312.169 432.793 228.19 426.41C123.216 418.432 190.203 692.233 318.178 596.578Z" fill="#F87C56"/>
<path d="M546.726 343.502C527.72 315.643 457.204 309.994 434.928 353.773C407.083 408.496 569.512 433.858 546.726 343.502Z" fill="#F68D2E"/>
<path d="M199.183 654.374C239.865 616.803 312.341 529.475 276.783 480.73C232.335 419.8 72.2345 663.216 199.183 654.374Z" fill="#ECB3CB"/>
</g>
<path d="M439.947 554.982C443.748 553.793 448.001 549.983 449.862 533.428C451.723 516.873 448.253 502.06 443.607 497.368C438.045 491.769 430.7 494.185 428.531 497.02C427.233 498.716 426.424 500.734 426.191 502.857C426.191 502.857 426.217 493.907 418.66 492.11C411.104 490.312 406.425 496.95 405.82 500.229C405.447 502.566 405.29 504.932 405.353 507.297C405.353 507.297 403.202 500.207 396.272 499.788C389.342 499.37 385.431 505.477 384.9 508.683C384.583 510.643 384.494 512.632 384.633 514.613C384.633 514.613 381.326 508.939 373.38 510.369C365.434 511.8 364.956 525.223 364.229 534.862C363.884 539.395 363.413 543.835 365.712 547.978C366.872 550.093 368.551 551.879 370.592 553.166C372.633 554.453 374.968 555.199 377.377 555.334C380.859 555.486 384.537 553.607 384.537 553.607C384.537 553.607 386.391 558.214 390.84 560.234C396.525 562.828 404.582 560.975 406.829 554.449C407.907 556.269 409.434 557.783 411.263 558.846C413.093 559.91 415.165 560.487 417.281 560.523C424.782 560.805 429.235 549.913 429.235 549.913C429.235 549.913 432.962 557.188 439.947 554.982Z" fill="#A66161"/>
<path d="M429.425 549.468H429.51C429.828 549.441 430.123 549.291 430.331 549.049C430.539 548.807 430.644 548.493 430.622 548.174L427.56 504.239C427.528 503.923 427.375 503.631 427.133 503.424C426.892 503.217 426.58 503.111 426.262 503.128C425.943 503.153 425.648 503.303 425.439 503.546C425.231 503.788 425.127 504.102 425.149 504.421L428.212 548.356C428.237 548.66 428.376 548.943 428.601 549.149C428.825 549.355 429.12 549.469 429.425 549.468Z" fill="white"/>
<path d="M406.444 554.616H406.466C406.787 554.606 407.092 554.469 407.313 554.236C407.534 554.003 407.653 553.692 407.645 553.37L406.433 508.676C406.418 508.356 406.28 508.055 406.048 507.835C405.816 507.615 405.507 507.494 405.187 507.497C405.028 507.501 404.871 507.537 404.725 507.602C404.58 507.667 404.449 507.76 404.339 507.875C404.23 507.991 404.144 508.127 404.087 508.276C404.03 508.425 404.003 508.583 404.008 508.742L405.216 553.437C405.226 553.755 405.36 554.056 405.59 554.277C405.819 554.497 406.126 554.619 406.444 554.616Z" fill="white"/>
<path d="M384.266 553.452C384.587 553.452 384.895 553.325 385.123 553.098C385.35 552.872 385.478 552.564 385.479 552.244L385.505 515.298C385.505 515.139 385.474 514.981 385.414 514.834C385.354 514.687 385.265 514.553 385.152 514.44C385.04 514.327 384.907 514.238 384.76 514.176C384.613 514.115 384.455 514.083 384.296 514.083C383.975 514.084 383.667 514.212 383.44 514.439C383.213 514.666 383.085 514.973 383.084 515.295L383.054 552.24C383.054 552.561 383.182 552.87 383.409 553.097C383.636 553.324 383.945 553.452 384.266 553.452Z" fill="white"/>
<path d="M19.0325 437.205C19.0325 437.205 20.0522 460.53 24.0529 475.317C27.2565 487.269 33.2966 499.951 44.016 507.008C62.5552 519.178 96.775 504.58 115.066 497.891C135.392 490.479 155.429 482.059 175.174 472.99C181.529 470.06 187.86 467.07 194.165 464.021C207.514 457.547 220.777 450.806 233.839 443.92L184.896 365.463L163.116 374.873V374.895L141.284 384.327L19.0325 437.205Z" fill="#A66161"/>
<path d="M19.0324 437.205L17.4825 415.773L112.233 396.894L43.2558 445.428L19.0324 437.205Z" fill="#A66161"/>
<path d="M73.8713 208.079C73.8713 208.079 28.0905 224.623 13.5372 301.975C1.74253 364.655 -0.00387573 445.399 -0.00387573 445.399C-0.00387573 445.399 15.0537 434.533 39.0064 423.904C62.9591 413.275 112.229 396.85 112.229 396.85L73.8713 208.079Z" fill="#8ABADD"/>
<path d="M200.272 419.208H200.309C200.765 419.208 211.615 418.889 221.144 409.572C230.562 400.367 234.844 386.224 235.022 385.613C235.114 385.304 235.079 384.972 234.925 384.689C234.771 384.406 234.512 384.196 234.203 384.105C233.894 384.013 233.562 384.048 233.279 384.202C232.996 384.355 232.785 384.615 232.694 384.924C232.653 385.064 228.407 399.081 219.449 407.838C210.599 416.495 200.365 416.784 200.265 416.788C199.943 416.791 199.636 416.921 199.411 417.151C199.185 417.38 199.061 417.69 199.064 418.011C199.066 418.332 199.197 418.64 199.427 418.865C199.656 419.09 199.966 419.215 200.287 419.212L200.272 419.208Z" fill="white"/>
<path d="M156.642 450.031C163.19 459.778 169.423 467.268 175.181 473.009C181.537 470.078 187.867 467.089 194.173 464.04C188.303 459.189 181.029 451.48 172.756 439.21C154.807 412.526 159.779 385.965 163.116 374.91L141.284 384.342C139.008 401.275 140.194 425.568 156.642 450.031Z" fill="white"/>
<path d="M296.713 273.031H296.75C326.042 272.112 327.088 271.467 327.433 271.256C330.399 269.436 322.453 241.33 318.645 229.915C311.726 209.161 304.248 194.144 304.185 193.996C304.041 193.709 303.788 193.49 303.483 193.389C303.178 193.287 302.845 193.311 302.557 193.455C302.269 193.599 302.051 193.851 301.949 194.156C301.848 194.462 301.872 194.794 302.016 195.082C302.09 195.23 309.494 210.103 316.358 230.682C322.809 250.028 325.905 266.027 325.813 269.255C322.939 269.625 306.758 270.292 296.687 270.607C296.366 270.612 296.059 270.745 295.835 270.975C295.612 271.206 295.489 271.516 295.493 271.838C295.498 272.159 295.631 272.465 295.862 272.689C296.093 272.913 296.403 273.036 296.725 273.031H296.713Z" fill="white"/>
<path d="M139.649 277.656C144.903 277.656 151.514 277.586 159.867 277.423C160.027 277.419 160.184 277.385 160.33 277.321C160.475 277.257 160.607 277.164 160.717 277.049C160.827 276.935 160.914 276.799 160.972 276.651C161.029 276.502 161.057 276.344 161.054 276.185C161.061 276.023 161.034 275.861 160.974 275.711C160.914 275.56 160.822 275.424 160.706 275.312C160.589 275.2 160.449 275.114 160.296 275.06C160.143 275.006 159.981 274.985 159.819 274.999C143.412 275.318 125.114 275.284 121.565 274.628C121.361 270.648 121.41 249.683 122.948 233.295C124.847 213.053 126.285 189.397 126.285 189.16C126.305 188.839 126.196 188.523 125.982 188.283C125.769 188.042 125.468 187.897 125.147 187.877C124.826 187.858 124.511 187.967 124.27 188.181C124.029 188.394 123.883 188.694 123.864 189.015C123.864 189.252 122.429 212.867 120.527 233.069C118.873 250.658 118.892 274.002 119.229 275.688C119.422 276.641 119.63 277.656 139.649 277.656Z" fill="white"/>
<path d="M117.439 393.644H117.568C117.888 393.609 118.181 393.45 118.383 393.2C118.586 392.949 118.681 392.63 118.647 392.31L108.228 295.271C108.214 295.112 108.168 294.957 108.092 294.816C108.017 294.675 107.914 294.55 107.789 294.45C107.665 294.35 107.521 294.275 107.367 294.232C107.213 294.188 107.052 294.176 106.893 294.196C106.574 294.231 106.281 294.391 106.079 294.641C105.878 294.891 105.784 295.211 105.818 295.53L116.233 392.565C116.267 392.862 116.408 393.135 116.631 393.334C116.853 393.533 117.14 393.643 117.439 393.644Z" fill="white"/>
<path d="M223.112 121.013C224.127 121.013 225.118 120.713 225.961 120.149C226.805 119.586 227.462 118.786 227.85 117.849C228.238 116.913 228.34 115.882 228.142 114.888C227.944 113.894 227.455 112.98 226.738 112.263C226.021 111.547 225.107 111.059 224.113 110.861C223.118 110.663 222.087 110.764 221.15 111.152C220.213 111.54 219.412 112.197 218.849 113.04C218.285 113.883 217.984 114.874 217.984 115.888C217.985 117.247 218.526 118.55 219.487 119.511C220.449 120.472 221.753 121.012 223.112 121.013ZM223.112 113.186C223.647 113.186 224.169 113.344 224.614 113.641C225.059 113.938 225.405 114.36 225.61 114.854C225.814 115.347 225.868 115.891 225.763 116.415C225.659 116.939 225.402 117.42 225.024 117.798C224.646 118.176 224.164 118.433 223.64 118.537C223.115 118.642 222.572 118.588 222.078 118.384C221.584 118.179 221.162 117.833 220.865 117.389C220.568 116.944 220.409 116.422 220.409 115.888C220.415 115.175 220.702 114.493 221.209 113.99C221.715 113.488 222.399 113.205 223.112 113.205V113.186Z" fill="#362E4D"/>
<path d="M247.847 45.5101C247.938 45.5094 248.029 45.4995 248.118 45.4805C248.151 45.4805 251.433 44.7393 254.659 44.3687C257.885 43.9981 263.45 44.1463 263.509 44.15C263.825 44.1377 264.125 44.0109 264.354 43.7932C264.582 43.5756 264.724 43.2821 264.751 42.9678C264.756 42.8086 264.729 42.6501 264.672 42.5014C264.615 42.3527 264.53 42.2166 264.42 42.1009C264.311 41.9853 264.179 41.8924 264.034 41.8274C263.888 41.7625 263.732 41.7269 263.572 41.7225C263.339 41.7225 257.762 41.5743 254.384 41.9597C251.007 42.3452 247.71 43.0715 247.58 43.116C247.292 43.1849 247.039 43.3567 246.868 43.5992C246.698 43.8417 246.621 44.1382 246.654 44.4328C246.687 44.7274 246.826 44.9999 247.046 45.199C247.266 45.3981 247.551 45.51 247.847 45.5138V45.5101Z" fill="#0F0A1C"/>
<path d="M258.841 43.5311C259.146 43.5312 259.439 43.4169 259.663 43.211C259.887 43.005 260.025 42.7224 260.05 42.4193L261.793 19.8421C261.812 19.5247 261.705 19.2124 261.496 18.9727C261.287 18.733 260.992 18.585 260.675 18.5607C260.358 18.5364 260.044 18.6377 259.801 18.8427C259.557 19.0478 259.405 19.3402 259.375 19.6568L257.632 42.234C257.62 42.3924 257.639 42.5518 257.688 42.703C257.737 42.8543 257.815 42.9943 257.919 43.1151C258.022 43.236 258.148 43.3353 258.29 43.4073C258.432 43.4793 258.586 43.5226 258.745 43.5348L258.841 43.5311Z" fill="#0F0A1C"/>
<path d="M253.398 43.6237L255.642 42.6972C255.642 42.6972 252.972 36.2413 251.285 32.0943C249.279 27.1652 246.965 20.9057 246.943 20.8427C246.831 20.541 246.604 20.2959 246.312 20.1614C246.02 20.0269 245.686 20.0141 245.384 20.1256C245.082 20.2372 244.837 20.464 244.702 20.7563C244.568 21.0485 244.555 21.3823 244.666 21.684C244.689 21.747 247.017 28.0436 249.038 33.0096C250.736 37.1604 253.398 43.6237 253.398 43.6237Z" fill="#0F0A1C"/>
<path d="M153.171 290.698C153.171 291.627 153.447 292.536 153.963 293.308C154.48 294.081 155.214 294.684 156.073 295.039C156.933 295.395 157.878 295.488 158.79 295.307C159.702 295.125 160.54 294.678 161.197 294.021C161.855 293.363 162.302 292.526 162.484 291.614C162.665 290.703 162.572 289.758 162.216 288.899C161.86 288.041 161.258 287.307 160.485 286.79C159.712 286.274 158.803 285.998 157.873 285.998C156.626 285.998 155.43 286.494 154.548 287.375C153.666 288.256 153.171 289.451 153.171 290.698Z" fill="white"/>
<path d="M162.419 365.463C162.418 366.393 162.693 367.302 163.209 368.075C163.725 368.848 164.459 369.451 165.318 369.807C166.177 370.164 167.123 370.257 168.035 370.076C168.947 369.895 169.785 369.448 170.443 368.791C171.101 368.134 171.549 367.297 171.731 366.385C171.913 365.473 171.82 364.528 171.464 363.669C171.108 362.81 170.506 362.076 169.733 361.56C168.959 361.043 168.05 360.768 167.12 360.768C165.874 360.768 164.679 361.262 163.797 362.143C162.915 363.023 162.42 364.218 162.419 365.463Z" fill="white"/>
<path d="M171.822 525.178C171.822 526.108 172.097 527.017 172.614 527.79C173.131 528.562 173.865 529.165 174.725 529.52C175.584 529.876 176.53 529.969 177.442 529.787C178.354 529.606 179.192 529.158 179.849 528.5C180.506 527.842 180.954 527.005 181.135 526.093C181.316 525.181 181.222 524.236 180.866 523.378C180.509 522.519 179.906 521.785 179.132 521.269C178.359 520.753 177.449 520.478 176.519 520.479C175.902 520.479 175.291 520.601 174.721 520.837C174.151 521.073 173.632 521.419 173.196 521.856C172.76 522.292 172.414 522.81 172.178 523.38C171.942 523.951 171.821 524.562 171.822 525.178Z" fill="white"/>
</g>
<defs>
<clipPath id="clip0_5506_966">
<rect width="477" height="577" fill="white" transform="matrix(-1 0 0 1 477 0)"/>
</clipPath>
</defs>
</svg>
