<svg width="477" height="576" fill="none" xmlns="http://www.w3.org/2000/svg"><g clip-path="url(#clip0_5506_966)"><path d="M0 445.428s5.05 5.804 23.549 5.5c18.498-.304 10.916-29.767 10.916-29.767s-15.466-1.278-16.982 0C15.966 422.44 0 445.428 0 445.428z" fill="#362E4D"/><path d="M332.405 202.49s31.517 15.08 51.858 63.57c18.825 44.843 45.162 124.256 45.162 124.256l-114.339 21.821 17.319-209.647z" fill="#8ABADD"/><path d="M472.739 502.631s3.59 16.307 4.239 26.683c.37 6.026-3.875 15.017-11.38 12.423-6.544-2.261-11.064-10.588-12.977-16.633-2.199-6.945-3.853-16.825-3.853-16.825l23.971-5.648zM186.727 168.473l-54.779 15.565 44.865 82.026s41.398 4.043 47.786 4.043c6.389 0 20.939 1.616 24.176-6.871 3.237-8.487 25.91-74.354 25.91-74.354l-44.494-5.659-43.464-14.75z" fill="#A66161"/><path d="M208.837 89.427c0-26.947 23.063-46.619 51.25-46.619 23.878 0 51.257 17.5 51.257 44.447 0 26.946-22.855 48.794-51.042 48.794s-51.465-19.676-51.465-46.622z" fill="#362E4D"/><path d="M253.888 170.159l-2.874 9.335-5.154 16.755-2.558 8.346-36.73 23-32.655-37.883 40.308-66.824 39.663 47.271z" fill="#A66161"/><path d="M251.014 179.491l-5.154 16.758c-2.31-.433-5.191-1.727-8.528-4.677-15.995-14.031-16.444-37.723-16.444-37.723l30.126 25.642z" fill="#362E4D"/><path d="M210.587 109.128a52.04 52.04 0 00.371 8.049 53.052 53.052 0 005.866 18.634 44.525 44.525 0 003.055 5.092c6.96 10.062 17.427 17.141 29.934 19.009 17.1 2.546 33.689-5.311 44.316-19.201.193-.245 4.197-7.979 6.744-12.901.46-.897.872-1.697 1.213-2.35.411-.8.701-1.382.823-1.578a.11.11 0 00.026-.071l.022-.026s.048-.144.145-.411c.096-.267.17-.556.293-.971 1.26-4.047 2.521-7.634 4.731-15.195 8.439-29.07-15.744-46.94-41.602-50.817-23.749-3.543-46.474 12.971-53.63 37.772 0 0-.026.096-.075.24a52.155 52.155 0 00-1.505 6.72 57.417 57.417 0 00-.727 8.005z" fill="#A66161"/><path d="M217.365 148.782c1.854 15.251 10.82 29.53 30.034 35.578 17.734 5.6 30.589-7.345 38.446-20.509 5.388-9.068 12.422-27.399 15.525-35.737.389-1.019.742-1.89.972-2.572.315-.897.534-1.501.582-1.697a.11.11 0 00.026-.071l-.998.63-1.527.371-3.493.8-39.748 9.125-36.853-28.485-.871-.678a3.955 3.955 0 01-.074.604 2.058 2.058 0 00-.026.415c-.167 1.112-.412 3.124-.605 5.792-.559 5.771-1.772 14.354-1.939 23.445-.12 4.337.063 8.678.549 12.989z" fill="#A66161"/><path d="M261.689 118.882c-2.169.53-3.994 3.465-4.357 5.93-.159 1.063.07 2.275.797 2.924 1.053.93 2.596.311 3.63-.678a8.596 8.596 0 002.028-3.121 5.626 5.626 0 00.393-2.965c-.17-.989-.793-1.905-1.631-2.105a1.787 1.787 0 00-.86.015zm28.454 11.574c-2.084.508-3.838 3.336-4.19 5.685-.152 1.027.067 2.19.771 2.813 1.009.893 2.5.297 3.486-.652a8.287 8.287 0 001.95-2.998 5.442 5.442 0 00.371-2.839c-.167-.953-.764-1.853-1.568-2.024a1.749 1.749 0 00-.82.015zm-19.585 16.103c1.313 0 2.466-.093 3.022-.371.556-.278 1.72-.852 2.314-11.93a1.214 1.214 0 00-2.016-.955 1.217 1.217 0 00-.406.826c-.211 3.973-.712 8.69-1.179 9.936-.927.148-3.771.048-6.118-.167a1.212 1.212 0 00-.218 2.413c1.264.1 3.044.248 4.601.248z" fill="#362E4D"/><path d="M271.214 154.026a34.246 34.246 0 01-8.565-3.109 40.93 40.93 0 01-8.687-5.985s-1.361 6.886 4.623 10.106c6.115 3.291 12.629-1.012 12.629-1.012z" fill="#fff"/><path d="M256.991 107.053c.289-.141.592-.252.905-.33a15.733 15.733 0 0111.264 1.482c1.75.971 6.822 5.118 3.044 6.856a3.712 3.712 0 01-2.87-.059 15.67 15.67 0 01-2.562-1.453 25.188 25.188 0 00-8.457-3.357c-1.046-.208-2.377-.63-2.414-1.698-.022-.659.474-1.13 1.09-1.441zm35.414 16.691c.864.465 1.775.838 2.718 1.112.608.219 1.212.46 1.794.741a22.88 22.88 0 013.957 2.224c.166.105.327.219.482.341.389-1.019.741-1.89.971-2.572.315-.897.534-1.501.582-1.697a.11.11 0 00.026-.071l.022-.026s.049-.144.145-.411a15.067 15.067 0 00-5.276-3.713c-1.676-.679-5.121-1.361-6.745-.123-1.705 1.308-.081 3.369 1.324 4.195z" fill="#362E4D"/><path d="M309.457 101.019s-44.865-22.551-50.768-23.159c-5.903-.608-13.037 24.089-19.255 23.789-6.218-.3-13.945 8.869-19.403 15.762-5.458 6.893-7.371 8.068-7.371 8.068a91.83 91.83 0 01-3.081-14.869c-.308-2.564-4.85-33.11 6.14-44.324 6.804-6.938 16.978-8.728 25.243-8.865 8.265-.137 17.586-3.483 20.467-3.18 2.881.304 7.727-1.504 17.282-.022 9.556 1.483 18.951 7.598 22.589 11.081 3.637 3.484 9.703 12.427 10.011 21.065.308 8.64-1.854 14.654-1.854 14.654z" fill="#362E4D"/><path d="M239.494 109.869c-2.099 9.921-9.044 16.855-15.514 15.488-6.47-1.368-10.011-10.518-7.909-20.439 2.103-9.921 9.044-16.859 15.514-15.491 6.47 1.367 10.007 10.51 7.909 20.442z" fill="#A66161"/><path d="M258.523 55.89s10.285-21.294 14.312-30.63c2.373-5.448 7.245-14.998 2.744-20.531-3.656-4.492-9.459 1.234-11.298 4.729-1.528 2.898-3.512 9.154-3.512 9.154S259.854 0 250.087 0c-11.45 0-4.427 20.442-4.427 20.442s-9.692-15.965-17.553-11.44c-10.074 5.796 4.297 20.283 9.766 26.683 7.935 9.328 20.65 20.206 20.65 20.206z" fill="#362E4D"/><path d="M257.284 186.669s-19.322 50.299-36.4 53.33c-17.079 3.032-57.987-64.759-57.987-64.759l-30.95 8.794s7.279 85.665 4.246 93.544c-3.033 7.879 33.96 142.438 26.077 198.199C154.387 531.538 156.812 577 156.812 577h139.901s5.325-263.67 6.389-287.907c1.064-24.238-.449-94.875-3.178-96.357-2.729-1.482-42.64-6.067-42.64-6.067z" fill="#F5CABF"/><path d="M142.897 180.921s10.527 38.428 19.374 90.902c4.901 29.092 12.209 105.967 14.957 133.651 10.89 109.824 5.254 171.53 5.254 171.53H68.28s-3.941-23.641-6.674-67.283c-2.733-43.643 2.125-290.631 7.583-297.595 5.458-6.964 27.809-14.95 35.068-18.182 7.26-3.231 38.64-13.023 38.64-13.023zm140.19 8.928s8.954 35.6 10.775 59.845c1.82 24.245 2.332 100.011 2.851 121.821.519 21.81-1.112 107.89-2.595 127.284-1.484 19.394-5.418 78.197-5.418 78.197h63.379s-1.213-72.734 2.425-106.07c3.637-33.336 4.245-226.439-2.629-243.335-6.875-16.895-16.548-27.054-36.79-32.224a210.056 210.056 0 00-31.998-5.518z" fill="#8ABADD"/><path d="M348.118 359.144a1.215 1.215 0 001.213-1.111l4.694-67.35a1.208 1.208 0 00-1.112-1.297 1.253 1.253 0 00-1.298 1.112l-4.694 67.334a1.215 1.215 0 001.112 1.294l.085.018z" fill="#362E4D"/><path d="M188.118 357.173l-20.998 25.264s31.94 59.804 42.448 61.016c10.508 1.212 44.32 0 44.32 0l-9.956-88.493-55.814 2.213z" fill="#A66161"/><path d="M188.118 357.173s12.354-17.789 41.464-22.607c29.111-4.818 81.573-2.424 91.87-2.424 6.058 0 14.416.23 20.545.23 11.617 0 21.209 12.997 13.348 23.326-4.471 5.892-10.697 5.878-15.454 5.892l-17.16.052-25.506.078-54.057.163c-5.677 0-11.902.767-17.546.052l-37.504-4.762z" fill="#A66161"/><path d="M270.21 361.224c.046.003.094.003.141 0 .152 0 15.072-1.883 15.224-14.524.152-12.642-13.86-14.532-14.001-14.55a1.21 1.21 0 00-1.107 1.947c.197.253.488.418.807.458.489.063 11.998 1.642 11.865 12.115-.13 10.532-12.948 12.13-13.078 12.148a1.212 1.212 0 00.137 2.417l.012-.011zm29.685 0c.047.003.094.003.141 0 .152 0 15.072-1.883 15.224-14.524.152-12.642-13.86-14.532-14.001-14.55a1.21 1.21 0 00-1.107 1.947c.198.253.488.418.807.458.489.063 12.002 1.642 11.865 12.115-.126 10.532-12.948 12.13-13.078 12.148a1.212 1.212 0 00.138 2.417l.011-.011zm29.688 0c.046.003.092.003.138 0 .152 0 15.072-1.883 15.224-14.524.152-12.642-13.86-14.532-14.001-14.55a1.21 1.21 0 00-1.107 1.947c.198.253.488.418.807.458.493.063 12.002 1.642 11.865 12.115-.126 10.532-12.948 12.13-13.074 12.148a1.217 1.217 0 00-1.077 1.273c.018.31.154.601.379.814.226.212.525.33.835.33l.011-.011z" fill="#fff"/><path d="M244.678 361.576H471a6 6 0 016 6v148.875a6 6 0 01-6 6H244.678a6 6 0 01-6-6V367.576a6 6 0 016-6z" fill="#FCFCF0"/><mask id="a" style="mask-type:alpha" maskUnits="userSpaceOnUse" x="238" y="361" width="239" height="162"><path d="M244.678 361.576H471a6 6 0 016 6v148.875a6 6 0 01-6 6H244.678a6 6 0 01-6-6V367.576a6 6 0 016-6z" fill="#FCFCF0"/></mask><g mask="url(#a)"><path d="M318.178 596.578c31.558-48.454-6.009-163.785-89.988-170.168-104.974-7.978-37.987 265.823 89.988 170.168z" fill="#F87C56"/><path d="M546.726 343.502c-19.006-27.859-89.522-33.508-111.798 10.271-27.845 54.723 134.584 80.085 111.798-10.271z" fill="#F68D2E"/><path d="M199.183 654.374c40.682-37.571 113.158-124.899 77.6-173.644-44.448-60.93-204.549 182.486-77.6 173.644z" fill="#ECB3CB"/></g><path d="M439.947 554.982c3.801-1.189 8.054-4.999 9.915-21.554 1.861-16.555-1.609-31.368-6.255-36.06-5.562-5.599-12.907-3.183-15.076-.348a11.704 11.704 0 00-2.34 5.837s.026-8.95-7.531-10.747c-7.556-1.798-12.235 4.84-12.84 8.119a38.363 38.363 0 00-.467 7.068s-2.151-7.09-9.081-7.509c-6.93-.418-10.841 5.689-11.372 8.895a25.816 25.816 0 00-.267 5.93s-3.307-5.674-11.253-4.244c-7.946 1.431-8.424 14.854-9.151 24.493-.345 4.533-.816 8.973 1.483 13.116a14.213 14.213 0 0011.665 7.356c3.482.152 7.16-1.727 7.16-1.727s1.854 4.607 6.303 6.627c5.685 2.594 13.742.741 15.989-5.785a12.39 12.39 0 0010.452 6.074c7.501.282 11.954-10.61 11.954-10.61s3.727 7.275 10.712 5.069z" fill="#A66161"/><path d="M429.425 549.468h.085a1.218 1.218 0 001.112-1.294l-3.062-43.935a1.237 1.237 0 00-1.298-1.111 1.209 1.209 0 00-1.113 1.293l3.063 43.935a1.21 1.21 0 001.213 1.112zm-22.981 5.148h.022a1.213 1.213 0 001.179-1.246l-1.212-44.694a1.238 1.238 0 00-1.246-1.179 1.211 1.211 0 00-1.179 1.245l1.208 44.695a1.217 1.217 0 001.228 1.179zm-22.178-1.164a1.214 1.214 0 001.213-1.208l.026-36.946a1.197 1.197 0 00-.353-.858 1.215 1.215 0 00-.856-.357 1.216 1.216 0 00-1.212 1.212l-.03 36.945a1.213 1.213 0 001.212 1.212z" fill="#fff"/><path d="M19.032 437.205s1.02 23.325 5.02 38.112c3.204 11.952 9.245 24.634 19.964 31.691 18.54 12.17 52.759-2.428 71.05-9.117 20.326-7.412 40.363-15.832 60.108-24.901 6.355-2.93 12.686-5.92 18.991-8.969 13.349-6.474 26.612-13.215 39.674-20.101l-48.943-78.457-21.78 9.41v.022l-21.832 9.432-122.251 52.878z" fill="#A66161"/><path d="M19.032 437.205l-1.55-21.432 94.751-18.879-68.977 48.534-24.224-8.223z" fill="#A66161"/><path d="M73.871 208.079s-45.78 16.544-60.334 93.896C1.743 364.655-.003 445.399-.003 445.399s15.057-10.866 39.01-21.495c23.952-10.629 73.222-27.054 73.222-27.054L73.871 208.079z" fill="#8ABADD"/><path d="M200.272 419.208h.037c.456 0 11.306-.319 20.835-9.636 9.418-9.205 13.7-23.348 13.878-23.959a1.21 1.21 0 00-.819-1.508 1.21 1.21 0 00-.924.097 1.21 1.21 0 00-.585.722c-.041.14-4.287 14.157-13.245 22.914-8.85 8.657-19.084 8.946-19.184 8.95a1.209 1.209 0 00-1.201 1.223 1.212 1.212 0 001.223 1.201l-.015-.004zm-43.63 30.823c6.548 9.747 12.781 17.237 18.539 22.978 6.356-2.931 12.686-5.92 18.992-8.969-5.87-4.851-13.144-12.56-21.417-24.83-17.949-26.684-12.977-53.245-9.64-64.3l-21.832 9.432c-2.276 16.933-1.09 41.226 15.358 65.689zm140.071-177h.037c29.292-.919 30.338-1.564 30.683-1.775 2.966-1.82-4.98-29.926-8.788-41.341-6.919-20.754-14.397-35.771-14.46-35.919a1.213 1.213 0 00-2.169 1.086c.074.148 7.478 15.021 14.342 35.6 6.451 19.346 9.547 35.345 9.455 38.573-2.874.37-19.055 1.037-29.126 1.352a1.218 1.218 0 00-.852.368 1.212 1.212 0 00.89 2.056h-.012zm-157.064 4.625c5.254 0 11.865-.07 20.218-.233a1.217 1.217 0 001.187-1.238 1.144 1.144 0 00-.348-.873 1.144 1.144 0 00-.887-.313c-16.407.319-34.705.285-38.254-.371-.204-3.98-.155-24.945 1.383-41.333 1.899-20.242 3.337-43.898 3.337-44.135a1.214 1.214 0 00-2.421-.145c0 .237-1.435 23.852-3.337 44.054-1.654 17.589-1.635 40.933-1.298 42.619.193.953.401 1.968 20.42 1.968zm-22.21 115.988h.129a1.217 1.217 0 001.079-1.334l-10.419-97.039a1.177 1.177 0 00-.136-.455 1.176 1.176 0 00-.725-.584 1.185 1.185 0 00-.474-.036 1.214 1.214 0 00-1.075 1.334l10.415 97.035a1.214 1.214 0 001.206 1.079z" fill="#fff"/><path d="M223.112 121.013c1.015 0 2.006-.3 2.849-.864a5.117 5.117 0 002.181-5.261 5.132 5.132 0 00-4.029-4.027 5.128 5.128 0 00-6.129 5.027 5.13 5.13 0 005.128 5.125zm0-7.827a2.704 2.704 0 012.651 3.229 2.698 2.698 0 01-2.123 2.122 2.702 2.702 0 01-3.231-2.649 2.705 2.705 0 012.703-2.683v-.019z" fill="#362E4D"/><path d="M247.847 45.51c.091 0 .182-.01.271-.03.033 0 3.315-.74 6.541-1.111 3.226-.37 8.791-.223 8.85-.219a1.3 1.3 0 001.242-1.182 1.198 1.198 0 00-.331-.867 1.213 1.213 0 00-.848-.379c-.233 0-5.81-.148-9.188.238-3.377.385-6.674 1.111-6.804 1.156a1.218 1.218 0 00-.926 1.317 1.215 1.215 0 001.193 1.08v-.003z" fill="#0F0A1C"/><path d="M258.841 43.531a1.213 1.213 0 001.209-1.112l1.743-22.577a1.213 1.213 0 00-2.418-.185l-1.743 22.577a1.222 1.222 0 00.287.881 1.2 1.2 0 00.826.42l.096-.004zm-5.443.093l2.244-.927s-2.67-6.456-4.357-10.603c-2.006-4.929-4.32-11.188-4.342-11.251a1.216 1.216 0 00-1.559-.717 1.215 1.215 0 00-.718 1.558c.023.063 2.351 6.36 4.372 11.326 1.698 4.15 4.36 10.614 4.36 10.614z" fill="#0F0A1C"/><path d="M153.171 290.698a4.699 4.699 0 005.619 4.609 4.706 4.706 0 003.694-3.693 4.7 4.7 0 00-7.936-4.239 4.695 4.695 0 00-1.377 3.323zm9.248 74.765a4.695 4.695 0 002.899 4.344 4.698 4.698 0 005.125-1.016 4.699 4.699 0 00-3.323-8.023 4.701 4.701 0 00-4.701 4.695zm9.403 159.715a4.697 4.697 0 005.62 4.609 4.702 4.702 0 003.424-6.409 4.703 4.703 0 00-8.688.002 4.688 4.688 0 00-.356 1.798z" fill="#fff"/></g><defs><clipPath id="clip0_5506_966"><path fill="#fff" transform="matrix(-1 0 0 1 477 0)" d="M0 0h477v577H0z"/></clipPath></defs></svg>